<mxfile host="Electron" agent="Mozilla/5.0 (Windows NT 10.0; Win64; x64) AppleWebKit/537.36 (KHTML, like Gecko) draw.io/28.0.6 Chrome/138.0.7204.100 Electron/37.2.3 Safari/537.36" version="28.0.6" pages="4">
  <diagram name="Architecture" id="FQCy7DP508l9GaI5c0Z9">
    <mxGraphModel dx="1883" dy="1186" grid="1" gridSize="10" guides="1" tooltips="1" connect="1" arrows="1" fold="1" page="1" pageScale="1" pageWidth="1654" pageHeight="1169" math="0" shadow="0">
      <root>
        <mxCell id="0" />
        <mxCell id="1" parent="0" />
        <mxCell id="lRhgDuw3gsUNNQDoHB9H-1" value="" style="rounded=0;whiteSpace=wrap;html=1;hachureGap=4;fontFamily=Architects Daughter;fontSource=https%3A%2F%2Ffonts.googleapis.com%2Fcss%3Ffamily%3DArchitects%2BDaughter;dashed=1;strokeColor=light-dark(#787878, #ededed);fillColor=none;" parent="1" vertex="1">
          <mxGeometry x="120" y="260" width="190" height="670" as="geometry" />
        </mxCell>
        <mxCell id="lRhgDuw3gsUNNQDoHB9H-2" value="Sources" style="rounded=0;whiteSpace=wrap;html=1;hachureGap=4;fontFamily=Architects Daughter;fontSource=https%3A%2F%2Ffonts.googleapis.com%2Fcss%3Ffamily%3DArchitects%2BDaughter;strokeColor=none;fontSize=15;fontStyle=1;" parent="1" vertex="1">
          <mxGeometry x="155" y="240" width="120" height="40" as="geometry" />
        </mxCell>
        <mxCell id="lRhgDuw3gsUNNQDoHB9H-3" value="" style="rounded=0;whiteSpace=wrap;html=1;hachureGap=4;fontFamily=Architects Daughter;fontSource=https%3A%2F%2Ffonts.googleapis.com%2Fcss%3Ffamily%3DArchitects%2BDaughter;strokeColor=light-dark(#787878, #ededed);fillColor=none;strokeWidth=1;flipV=1;dashed=1;" parent="1" vertex="1">
          <mxGeometry x="420" y="260" width="820" height="670" as="geometry" />
        </mxCell>
        <mxCell id="lRhgDuw3gsUNNQDoHB9H-6" value="Data Warehouse" style="rounded=0;whiteSpace=wrap;html=1;hachureGap=4;fontFamily=Architects Daughter;fontSource=https%3A%2F%2Ffonts.googleapis.com%2Fcss%3Ffamily%3DArchitects%2BDaughter;strokeColor=none;fontSize=15;fontStyle=1;" parent="1" vertex="1">
          <mxGeometry x="757" y="240" width="120" height="40" as="geometry" />
        </mxCell>
        <mxCell id="lRhgDuw3gsUNNQDoHB9H-7" value="&lt;font&gt;&lt;b&gt;High Level Architecture&lt;/b&gt;&lt;/font&gt;" style="text;html=1;align=center;verticalAlign=middle;whiteSpace=wrap;rounded=0;fontFamily=Architects Daughter;fontSource=https%3A%2F%2Ffonts.googleapis.com%2Fcss%3Ffamily%3DArchitects%2BDaughter;fontSize=20;" parent="1" vertex="1">
          <mxGeometry x="120" y="50" width="300" height="60" as="geometry" />
        </mxCell>
        <mxCell id="lRhgDuw3gsUNNQDoHB9H-8" value="" style="rounded=0;whiteSpace=wrap;html=1;hachureGap=4;fontFamily=Architects Daughter;fontSource=https%3A%2F%2Ffonts.googleapis.com%2Fcss%3Ffamily%3DArchitects%2BDaughter;strokeColor=#d79b00;fillColor=none;strokeWidth=1;flipV=1;" parent="1" vertex="1">
          <mxGeometry x="480" y="390" width="170" height="490" as="geometry" />
        </mxCell>
        <mxCell id="lRhgDuw3gsUNNQDoHB9H-9" value="Bronze" style="rounded=0;whiteSpace=wrap;html=1;hachureGap=4;fontFamily=Architects Daughter;fontSource=https%3A%2F%2Ffonts.googleapis.com%2Fcss%3Ffamily%3DArchitects%2BDaughter;fillColor=#ffe6cc;strokeColor=#d79b00;fontSize=15;fontStyle=1;" parent="1" vertex="1">
          <mxGeometry x="480" y="310" width="170" height="60" as="geometry" />
        </mxCell>
        <mxCell id="lRhgDuw3gsUNNQDoHB9H-10" value="Silver" style="rounded=0;whiteSpace=wrap;html=1;hachureGap=4;fontFamily=Architects Daughter;fontSource=https%3A%2F%2Ffonts.googleapis.com%2Fcss%3Ffamily%3DArchitects%2BDaughter;fillColor=#f5f5f5;strokeColor=#666666;fontSize=15;fontColor=#333333;fontStyle=1;" parent="1" vertex="1">
          <mxGeometry x="757" y="310" width="170" height="60" as="geometry" />
        </mxCell>
        <mxCell id="lRhgDuw3gsUNNQDoHB9H-11" value="" style="rounded=0;whiteSpace=wrap;html=1;hachureGap=4;fontFamily=Architects Daughter;fontSource=https%3A%2F%2Ffonts.googleapis.com%2Fcss%3Ffamily%3DArchitects%2BDaughter;strokeColor=#666666;fillColor=none;fontColor=#333333;strokeWidth=1;flipV=1;" parent="1" vertex="1">
          <mxGeometry x="757" y="390" width="170" height="490" as="geometry" />
        </mxCell>
        <mxCell id="lRhgDuw3gsUNNQDoHB9H-12" value="Gold" style="rounded=0;whiteSpace=wrap;html=1;hachureGap=4;fontFamily=Architects Daughter;fontSource=https%3A%2F%2Ffonts.googleapis.com%2Fcss%3Ffamily%3DArchitects%2BDaughter;fillColor=#fff2cc;strokeColor=#d6b656;fontSize=15;fontStyle=1;" parent="1" vertex="1">
          <mxGeometry x="1030" y="310" width="170" height="60" as="geometry" />
        </mxCell>
        <mxCell id="lRhgDuw3gsUNNQDoHB9H-13" value="" style="rounded=0;whiteSpace=wrap;html=1;hachureGap=4;fontFamily=Architects Daughter;fontSource=https%3A%2F%2Ffonts.googleapis.com%2Fcss%3Ffamily%3DArchitects%2BDaughter;strokeColor=#d6b656;fillColor=none;strokeWidth=1;flipV=1;" parent="1" vertex="1">
          <mxGeometry x="1030" y="390" width="170" height="490" as="geometry" />
        </mxCell>
        <mxCell id="lRhgDuw3gsUNNQDoHB9H-14" value="" style="rounded=0;whiteSpace=wrap;html=1;hachureGap=4;fontFamily=Architects Daughter;fontSource=https%3A%2F%2Ffonts.googleapis.com%2Fcss%3Ffamily%3DArchitects%2BDaughter;dashed=1;strokeColor=light-dark(#787878, #ededed);fillColor=none;" parent="1" vertex="1">
          <mxGeometry x="1340" y="260" width="190" height="670" as="geometry" />
        </mxCell>
        <mxCell id="lRhgDuw3gsUNNQDoHB9H-15" value="Consumer" style="rounded=0;whiteSpace=wrap;html=1;hachureGap=4;fontFamily=Architects Daughter;fontSource=https%3A%2F%2Ffonts.googleapis.com%2Fcss%3Ffamily%3DArchitects%2BDaughter;strokeColor=none;fontSize=15;fontStyle=1;" parent="1" vertex="1">
          <mxGeometry x="1375" y="240" width="120" height="40" as="geometry" />
        </mxCell>
        <mxCell id="lRhgDuw3gsUNNQDoHB9H-18" value="" style="image;aspect=fixed;html=1;points=[];align=center;fontSize=12;image=img/lib/azure2/general/Folder_Blank.svg;hachureGap=4;fontFamily=Architects Daughter;fontSource=https%3A%2F%2Ffonts.googleapis.com%2Fcss%3Ffamily%3DArchitects%2BDaughter;" parent="1" vertex="1">
          <mxGeometry x="170" y="390" width="69" height="56.00000000000001" as="geometry" />
        </mxCell>
        <mxCell id="lRhgDuw3gsUNNQDoHB9H-19" value="" style="image;aspect=fixed;html=1;points=[];align=center;fontSize=12;image=img/lib/azure2/general/File.svg;hachureGap=4;fontFamily=Architects Daughter;fontSource=https%3A%2F%2Ffonts.googleapis.com%2Fcss%3Ffamily%3DArchitects%2BDaughter;" parent="1" vertex="1">
          <mxGeometry x="220" y="420" width="32.46" height="40" as="geometry" />
        </mxCell>
        <mxCell id="lRhgDuw3gsUNNQDoHB9H-20" value="CRM" style="text;html=1;align=center;verticalAlign=middle;whiteSpace=wrap;rounded=0;fontFamily=Architects Daughter;fontSource=https%3A%2F%2Ffonts.googleapis.com%2Fcss%3Ffamily%3DArchitects%2BDaughter;fontStyle=1;" parent="1" vertex="1">
          <mxGeometry x="235" y="470" width="60" height="30" as="geometry" />
        </mxCell>
        <mxCell id="lRhgDuw3gsUNNQDoHB9H-21" value="" style="image;aspect=fixed;html=1;points=[];align=center;fontSize=12;image=img/lib/azure2/general/Folder_Blank.svg;hachureGap=4;fontFamily=Architects Daughter;fontSource=https%3A%2F%2Ffonts.googleapis.com%2Fcss%3Ffamily%3DArchitects%2BDaughter;" parent="1" vertex="1">
          <mxGeometry x="163.26999999999998" y="585" width="69" height="56.00000000000001" as="geometry" />
        </mxCell>
        <mxCell id="lRhgDuw3gsUNNQDoHB9H-22" value="" style="image;aspect=fixed;html=1;points=[];align=center;fontSize=12;image=img/lib/azure2/general/File.svg;hachureGap=4;fontFamily=Architects Daughter;fontSource=https%3A%2F%2Ffonts.googleapis.com%2Fcss%3Ffamily%3DArchitects%2BDaughter;" parent="1" vertex="1">
          <mxGeometry x="213.26999999999998" y="615" width="32.46" height="40" as="geometry" />
        </mxCell>
        <mxCell id="lRhgDuw3gsUNNQDoHB9H-23" value="ERP" style="text;html=1;align=center;verticalAlign=middle;whiteSpace=wrap;rounded=0;fontFamily=Architects Daughter;fontSource=https%3A%2F%2Ffonts.googleapis.com%2Fcss%3Ffamily%3DArchitects%2BDaughter;fontStyle=1;" parent="1" vertex="1">
          <mxGeometry x="234.99999999999997" y="655" width="60" height="40" as="geometry" />
        </mxCell>
        <mxCell id="lRhgDuw3gsUNNQDoHB9H-29" value="" style="line;strokeWidth=1;html=1;hachureGap=4;fontFamily=Architects Daughter;fontSource=https%3A%2F%2Ffonts.googleapis.com%2Fcss%3Ffamily%3DArchitects%2BDaughter;fontStyle=1;fontColor=light-dark(#868383, #ededed);strokeColor=light-dark(#484747, #ededed);" parent="1" vertex="1">
          <mxGeometry x="135" y="695" width="160" height="10" as="geometry" />
        </mxCell>
        <mxCell id="lRhgDuw3gsUNNQDoHB9H-30" value="&lt;b&gt;Object type: &lt;/b&gt;CSV Files&lt;div&gt;&lt;br&gt;&lt;/div&gt;&lt;div&gt;&lt;b&gt;Interface:&amp;nbsp;&lt;/b&gt;Files in Folder&lt;/div&gt;" style="text;html=1;align=center;verticalAlign=middle;whiteSpace=wrap;rounded=0;fontFamily=Architects Daughter;fontSource=https%3A%2F%2Ffonts.googleapis.com%2Fcss%3Ffamily%3DArchitects%2BDaughter;" parent="1" vertex="1">
          <mxGeometry x="135" y="730" width="165" height="60" as="geometry" />
        </mxCell>
        <mxCell id="lRhgDuw3gsUNNQDoHB9H-31" value="" style="html=1;verticalLabelPosition=bottom;align=center;labelBackgroundColor=#ffffff;verticalAlign=top;strokeWidth=2;strokeColor=#d79b00;shadow=0;dashed=0;shape=mxgraph.ios7.icons.data;fillColor=#ffe6cc;" parent="1" vertex="1">
          <mxGeometry x="520" y="431" width="90" height="79" as="geometry" />
        </mxCell>
        <mxCell id="lRhgDuw3gsUNNQDoHB9H-32" value="" style="html=1;verticalLabelPosition=bottom;align=center;labelBackgroundColor=#ffffff;verticalAlign=top;strokeWidth=2;strokeColor=#666666;shadow=0;dashed=0;shape=mxgraph.ios7.icons.data;fillColor=#f5f5f5;fontColor=#333333;" parent="1" vertex="1">
          <mxGeometry x="787" y="431" width="90" height="79" as="geometry" />
        </mxCell>
        <mxCell id="lRhgDuw3gsUNNQDoHB9H-33" value="" style="html=1;verticalLabelPosition=bottom;align=center;labelBackgroundColor=#ffffff;verticalAlign=top;strokeWidth=2;strokeColor=#d6b656;shadow=0;dashed=0;shape=mxgraph.ios7.icons.data;fillColor=#fff2cc;" parent="1" vertex="1">
          <mxGeometry x="1070" y="431" width="90" height="79" as="geometry" />
        </mxCell>
        <mxCell id="lRhgDuw3gsUNNQDoHB9H-34" value="" style="shape=singleArrow;whiteSpace=wrap;html=1;arrowWidth=0.3752754211425781;arrowSize=0.3062389026988636;fillColor=#dae8fc;strokeColor=#6c8ebf;" parent="1" vertex="1">
          <mxGeometry x="320" y="550" width="100" height="60" as="geometry" />
        </mxCell>
        <mxCell id="lRhgDuw3gsUNNQDoHB9H-35" value="" style="shape=singleArrow;whiteSpace=wrap;html=1;arrowWidth=0.3752754211425781;arrowSize=0.3062389026988636;fillColor=#dae8fc;strokeColor=#6c8ebf;" parent="1" vertex="1">
          <mxGeometry x="660" y="550" width="97" height="60" as="geometry" />
        </mxCell>
        <mxCell id="lRhgDuw3gsUNNQDoHB9H-36" value="" style="shape=singleArrow;whiteSpace=wrap;html=1;arrowWidth=0.3752754211425781;arrowSize=0.3062389026988636;fillColor=#dae8fc;strokeColor=#6c8ebf;" parent="1" vertex="1">
          <mxGeometry x="930" y="550" width="100" height="60" as="geometry" />
        </mxCell>
        <mxCell id="lRhgDuw3gsUNNQDoHB9H-37" value="" style="shape=singleArrow;whiteSpace=wrap;html=1;arrowWidth=0.3752754211425781;arrowSize=0.3062389026988636;fillColor=#dae8fc;strokeColor=#6c8ebf;" parent="1" vertex="1">
          <mxGeometry x="1240" y="555" width="100" height="60" as="geometry" />
        </mxCell>
        <mxCell id="lRhgDuw3gsUNNQDoHB9H-38" value="" style="line;strokeWidth=1;html=1;hachureGap=4;fontFamily=Architects Daughter;fontSource=https%3A%2F%2Ffonts.googleapis.com%2Fcss%3Ffamily%3DArchitects%2BDaughter;fontStyle=1;fontColor=light-dark(#868383, #ededed);strokeColor=light-dark(#484747, #ededed);" parent="1" vertex="1">
          <mxGeometry x="485" y="580" width="160" height="10" as="geometry" />
        </mxCell>
        <mxCell id="lRhgDuw3gsUNNQDoHB9H-39" value="Raw Data" style="text;html=1;align=center;verticalAlign=middle;whiteSpace=wrap;rounded=0;" parent="1" vertex="1">
          <mxGeometry x="535" y="520" width="60" height="30" as="geometry" />
        </mxCell>
        <mxCell id="lRhgDuw3gsUNNQDoHB9H-40" value="Clean, Standardized data" style="text;html=1;align=center;verticalAlign=middle;whiteSpace=wrap;rounded=0;" parent="1" vertex="1">
          <mxGeometry x="770" y="513" width="140" height="30" as="geometry" />
        </mxCell>
        <mxCell id="lRhgDuw3gsUNNQDoHB9H-41" value="Bussiness-ready data" style="text;html=1;align=center;verticalAlign=middle;whiteSpace=wrap;rounded=0;" parent="1" vertex="1">
          <mxGeometry x="1045" y="513" width="140" height="30" as="geometry" />
        </mxCell>
        <mxCell id="lRhgDuw3gsUNNQDoHB9H-42" value="" style="line;strokeWidth=1;html=1;hachureGap=4;fontFamily=Architects Daughter;fontSource=https%3A%2F%2Ffonts.googleapis.com%2Fcss%3Ffamily%3DArchitects%2BDaughter;fontStyle=1;fontColor=light-dark(#868383, #ededed);strokeColor=light-dark(#484747, #ededed);" parent="1" vertex="1">
          <mxGeometry x="765" y="580" width="160" height="10" as="geometry" />
        </mxCell>
        <mxCell id="lRhgDuw3gsUNNQDoHB9H-43" value="" style="line;strokeWidth=1;html=1;hachureGap=4;fontFamily=Architects Daughter;fontSource=https%3A%2F%2Ffonts.googleapis.com%2Fcss%3Ffamily%3DArchitects%2BDaughter;fontStyle=1;fontColor=light-dark(#868383, #ededed);strokeColor=light-dark(#484747, #ededed);" parent="1" vertex="1">
          <mxGeometry x="1035" y="580" width="160" height="10" as="geometry" />
        </mxCell>
        <mxCell id="lRhgDuw3gsUNNQDoHB9H-44" value="&lt;b&gt;Object type: Tables&lt;/b&gt;&lt;div&gt;&lt;br&gt;&lt;/div&gt;&lt;div style=&quot;text-align: left;&quot;&gt;&lt;b&gt;Load:&amp;nbsp;&lt;/b&gt;&lt;/div&gt;&lt;div style=&quot;text-align: left;&quot;&gt;&lt;ul&gt;&lt;li&gt;Batch processing&lt;/li&gt;&lt;li&gt;Full load&lt;/li&gt;&lt;li&gt;Truncate and insert&lt;/li&gt;&lt;/ul&gt;&lt;b&gt;No transformation&lt;/b&gt;&lt;/div&gt;&lt;div style=&quot;text-align: left;&quot;&gt;&lt;b&gt;&lt;br&gt;&lt;/b&gt;&lt;/div&gt;&lt;div style=&quot;text-align: left;&quot;&gt;&lt;b&gt;Data model: &lt;/b&gt;None (As-Is)&lt;/div&gt;&lt;div&gt;&lt;br&gt;&lt;/div&gt;" style="text;html=1;align=center;verticalAlign=middle;whiteSpace=wrap;rounded=0;fontFamily=Architects Daughter;fontSource=https%3A%2F%2Ffonts.googleapis.com%2Fcss%3Ffamily%3DArchitects%2BDaughter;" parent="1" vertex="1">
          <mxGeometry x="480" y="630" width="165" height="150" as="geometry" />
        </mxCell>
        <mxCell id="lRhgDuw3gsUNNQDoHB9H-45" value="&lt;b&gt;Object type: Tables&lt;/b&gt;&lt;div&gt;&lt;br&gt;&lt;/div&gt;&lt;div style=&quot;text-align: left;&quot;&gt;&lt;b&gt;Load:&amp;nbsp;&lt;/b&gt;&lt;/div&gt;&lt;div style=&quot;text-align: left;&quot;&gt;&lt;ul&gt;&lt;li&gt;Batch processing&lt;/li&gt;&lt;li&gt;Full load&lt;/li&gt;&lt;li&gt;Truncate and insert&lt;/li&gt;&lt;/ul&gt;&lt;b&gt;Transformation:&lt;/b&gt;&lt;/div&gt;&lt;div style=&quot;text-align: left;&quot;&gt;&lt;ul&gt;&lt;li&gt;Data Cleansing&lt;/li&gt;&lt;li&gt;Data Standardization&lt;/li&gt;&lt;li&gt;Data Normalizaton&lt;/li&gt;&lt;li&gt;Derived Columns&lt;/li&gt;&lt;li&gt;Data Enrichment&lt;/li&gt;&lt;/ul&gt;&lt;/div&gt;&lt;div style=&quot;text-align: left;&quot;&gt;&lt;b&gt;&lt;br&gt;&lt;/b&gt;&lt;/div&gt;&lt;div style=&quot;text-align: left;&quot;&gt;&lt;b&gt;Data model: &lt;/b&gt;None (As-Is)&lt;/div&gt;&lt;div&gt;&lt;br&gt;&lt;/div&gt;" style="text;html=1;align=center;verticalAlign=middle;whiteSpace=wrap;rounded=0;fontFamily=Architects Daughter;fontSource=https%3A%2F%2Ffonts.googleapis.com%2Fcss%3Ffamily%3DArchitects%2BDaughter;" parent="1" vertex="1">
          <mxGeometry x="759.5" y="680" width="165" height="150" as="geometry" />
        </mxCell>
        <mxCell id="lRhgDuw3gsUNNQDoHB9H-46" value="&lt;b&gt;Object type: View&lt;/b&gt;&lt;div&gt;&lt;br&gt;&lt;/div&gt;&lt;div style=&quot;text-align: left;&quot;&gt;&lt;b&gt;No Load:&amp;nbsp;&lt;/b&gt;&lt;/div&gt;&lt;div style=&quot;text-align: left;&quot;&gt;&lt;b&gt;&lt;br&gt;&lt;/b&gt;&lt;/div&gt;&lt;div style=&quot;text-align: left;&quot;&gt;&lt;b&gt;Transformation:&lt;/b&gt;&lt;/div&gt;&lt;div style=&quot;text-align: left;&quot;&gt;&lt;ul&gt;&lt;li&gt;Data Aggregation&lt;/li&gt;&lt;li&gt;Aggregations&lt;/li&gt;&lt;li&gt;Business logic&lt;/li&gt;&lt;/ul&gt;&lt;/div&gt;&lt;div style=&quot;text-align: left;&quot;&gt;&lt;b&gt;Data model:&amp;nbsp;&lt;/b&gt;&lt;/div&gt;&lt;div style=&quot;text-align: left;&quot;&gt;&lt;ul&gt;&lt;li&gt;Flat Table&lt;/li&gt;&lt;li&gt;Star Schema&lt;/li&gt;&lt;li&gt;Aggregate table&lt;/li&gt;&lt;/ul&gt;&lt;/div&gt;&lt;div&gt;&lt;br&gt;&lt;/div&gt;" style="text;html=1;align=center;verticalAlign=middle;whiteSpace=wrap;rounded=0;fontFamily=Architects Daughter;fontSource=https%3A%2F%2Ffonts.googleapis.com%2Fcss%3Ffamily%3DArchitects%2BDaughter;" parent="1" vertex="1">
          <mxGeometry x="1032.5" y="670" width="165" height="150" as="geometry" />
        </mxCell>
        <mxCell id="lRhgDuw3gsUNNQDoHB9H-47" value="" style="shape=image;verticalLabelPosition=bottom;labelBackgroundColor=default;verticalAlign=top;aspect=fixed;imageAspect=0;image=data:image/png,iVBORw0KGgoAAAANSUhEUgAAAgAAAAIACAYAAAD0eNT6AAAQAElEQVR4AeydB7glRdGGe2HZBZaccw6So0oGQRDlF1AURBCUaEJAVBRUFBAFA1GUpESJKhKVnEFyWMk557zEBf7vvbsH7t49YWaqJ52pfaq2J3RXV39z7kx1d3X1JMH/OQKOgCPgCDgCjkDjEHADoHGP3BvsCDgCjoAj4AiE4AaA/wocAUfAEXAEHIEGIuAGQAMfujfZEXAEHAFHoNkI0Ho3AEDB2RFwBBwBR8ARaBgCbgA07IF7cx0BR8ARcASajsC49rsBMA4H/98RcAQcAUfAEWgUAm4ANOpxe2MdAUfAEXAEmo5Aq/1uALSQ8NQRcAQcAUfAEWgQAm4ANOhhe1MdAUfAEXAEmo7AR+13A+AjLPzIEXAEHAFHwBFoDAJuADTmUXtDHQFHwBFwBJqOwOD2uwEwGA0/dgQcAUfAEXAEGoKAGwANedDeTEfAEXAEHIGmIzBh+90AmBAPP3MEHAFHwBFwBBqBgBsAjXjM3khHwBFwBByBpiMwtP1uAAxFxM8dAUfAEXAEHIEGIOAGQAMesjfREXAEHAFHoOkITNx+NwAmxsSvOAKOgCPgCDgCfY+AGwB9/4i9gY6AI+AIOAJNR6Bd+90AaIeKX3MEHAFHwBFwBPocATcA+vwBe/McAUfAEXAEmo5A+/a7AdAeF7/qCDgCjoAj4Aj0NQJuAPT14/XGOQKOgCPgCDQdgU7tdwOgEzJ+3RFwBKwIzCwBnxJ/R3y4+FLxLeIHxM+L3x7PLyrl2u1KLxT/UbyTeD0xMpQ4OQKOQGwE3ACIjajLcwSai8AUajof7d8rHS1+VnyJ+DDxt8RriZcVLyCeUTxiPE+vlGtLKf20+NviQ8T/ET8jvk18kPjzYupQ4uQIOALJEOicyw2Aztj4HUfAEUiGwGrKdrz4BTEf7e8rXUIcg4ZJyNLincVniZ8WHyNeU8w9JU6OgCOQBQE3ALKg5mUcAUdgSkHwPfH/xFeKvyYuonc+jerZRnyZ+H7xN8UjxU6OgCPQBoFul9wA6IaO33MEHIGhCDBszxA9H9+DdXNxcVnEtMGfVPmDYkYdijBAVJWTI9AfCLgB0B/P0VvhCBSBwFdUyd1inPRmV1oVmkOK4HfAaAR+Ajp1cgQcgRC6Y+AGQHd8/K4j4AiEMJtAOFN8snh+cVUJ3fATQNd5qqqk6+UIVAUBNwCq8iRcD0egmgjQ68ejf6NqqtdWK3S9VXc2Fjs5Ao1FoFfD3QDohZDfdwSaicCkavZvxPT6WbKnw1oRSwv/KY2PEOO3oMTJEXAEBiPgBsBgNPzYEXAEQICP5791sLu47rSDGnCxmDYpcXIEmoJA73a6AdAbI8/hCDQJATzr/6sGE5BHSV8QcQquUEvmFDs5Ao7AeATcABgPhCeOgCMQ5hUGRO5bWGm/0ZJq0NXiRcROjkDfI5CkgW4AJEHJ8zgC/Y/AXGoiQ+UYATrsS6JttNFXCPTl4/VGpUXADYC0iHl+R6D/EMDJjw/jgv3XtIlahKFzrq66T4BAcOpXBJK1yw2AZDh5LkegnxE4So1r0tA40wHEC/DVAXrwTs1FwA2A5j57b7kjAAKr678viJtGOAbu37RGe3ubgUDSVroBkBQpz+cI9CcC2+XdrJmmHhm+8Mm5w8+/vGQ4cedVwhX7fjrcfuDnwoOHbzjAow/aIFy+z6cH7u216VJhw4/PFWaappD9fdhh0IMF5f0DcPmVRcANgMo+GlfMESgEAXrC0SuaZsrJwtc/tUA4d8+1wk2/Wz8csu0KYft1FwprLjFLmH+WqcL0o0aEyYZPMsDTKu8Cs041cG+7Ty8Y/rj9iuHm3342nPWTNQdkTKe8IZ9/wyT2L+K5xU6OQJ8gkLwZbgAkx8pzOgL9iABx/qO1i97+LzZbKtx4wPphn82XDkvPO12YZBjf2XRVUGS5+acfkPHf33wm/FwjA7NON3k6IclyT69sh4idHIHGIeAGQOMeuTfYEZgAgfcmOMt4MnySYeG7n10kXLXfumHbdRYMU4wgknBGYUOKTTly0rC9RgaYJthxvYXC8Emjv7Y2VpUbiJ0cgdojkKYB0f+S0lTueR0BR6B0BO61arDQbFOHM3+8Rtj9C4uHUSOHW8V1LI/sn35pSU0NrBHmm2VUx3wZbzAKMEXGsl7MEaglAm4A1PKxudKOQDQEzrNIWnupWcPZe6wZlpmPkXSLpORll5pnunD+Tz8V1lt29uSFeudcQFnYN0CJkyNQVwTS6e0GQDq8PLcj0G8IHKMGvSlOTVuuMV/4y3dWClNNnl+vv5NS1HnkNz8RNl9t3k5Zslz/oQoVsvxA9Tg5AqUj4AZA6Y/AFXAESkXgEdW+tzgVbbbqvGG/LZYNk2ruP1XBiJmpe/+vLRfTCGCzoK0jquiiHIFCEUhbmRsAaRHz/I5A/yFAQByiASZqGT3/A7ZaNuCpn6hAjpnQ4ddbLhtzOoBRgPTLFnJso4t2BPJCwA2AvJB1uY5AfRD4QKru8I21Fzhv6ikm02F74t6+my8d+OBOwpe3fbbCrzIScPA2K4RIjoELqQGriZ0cgZohkF5dNwDSY+YlHIG+Q+C+Qz47zd5fWXrl6/f/TPjVV5cJ/7fCnGGpeacbcO77/IpzDnz0r/31emHrT+ErV73m4xNw+A4fj7VEcKvqtdA1cgTiI+AGQHxMXaIjUDsERk4+Ag/46fmQbrXW/OFPO348nLfnWuGcPdYMfFgZ9idiX5UbxuqAbdaOYqB8We2cQuzkCNQGgSyKugGQBTUv4wj0GQLDPhjWF85vu37+Y2HmacwRA6fV411b7OQI9DUCbgD09eP1xjkCvRF49MgvfjwMC2yR2ztzxXNMNfnwQLTACGp+KoIMF+EIFIRAtmrcAMiGm5dyBPoIgQ8276PGhC3XnC9E2EBonX7CxNviCLRDwA2Adqj4NUegQQgMC2G9fmouIYM3/DhL+k2tWlqlZxI7OQKVRyCrgm4AZEXOyzkC9USAof6DpPpo8evDhoUx6/zioiV+ceod4Z4nXtWl/qBNVprb2hDejctZhXh5R6DKCPAjr7J+rpsj4AjEQWCExPxRfJt4Z/ES4lEffBCmvPfJ18IxFz8QPrPPpeFnJ98e3h37vm7Vm5abf4Yw49QjrY1Y1CrAyzsC+SOQvQY3ALJj5yUdgbogwMf/fCn7bXHHv/n33v8gHHvpg2GrQ66tvRGgkY2wyqLmEfxFhJeTI9C3CHR8GfRti71hjkDzEDhQTU68rO2qu58L+5zBDIFK1ZiWW2AGq/Y+AmBF0MvnjoClAjcALOh5WUeg+ggw579jWjWPv+yhwNRA2nJVyr/grFNZ1ZnNKsDLOwJVRsANgCo/HdfNEbAjsJ1ETCpORUwHnHLVw6nKVC3z/LOOsqo0tVWAl3cE8kXAJt0NABt+XtoRqDoC62ZV8Iq7nstatBLlpp0S1weTKm4AmODzwlVHwA2Aqj8h188RsCEwT9biT7zwRtailShHVECjIm4AGAH04vkiYJXuBoAVQS/vCFQbgczd4NffGlv71QDGRzPMWN6LOwKVRsANgEo/HlfOETAj8LpFwpi3x1qKl1oWA8aowGvG8l7cEcgRAbtoNwDsGLoER6DKCJgMgJfHvFvltnXV7ZU33ul6P8FNNwASgORZ6ouAGwD1fXauuSOQBAGTAfDwc6biSfTLLc9Dz4yxyq5v460t9/KVRyCGgm4AxEDRZTgC1UXgCYtqDzxd32/gA8+YdX/cgp2XdQSqjoAbAFV/Qq6fI2BD4D5L8ZsffMlSvNSyNz/worV+E3bWyr28I9AZgTh33ACIg6NLcQSqioDpI3bN3c+FDz6oatM664XO1977fOcMye6YsEtWhedyBMpDwA2A8rD3mh2BIhC4x1LJ86+9HW57uH6jADc/9GJ4Qbpb2q6y94qdHIHKIRBLITcAYiHpchyBaiLwX6n1vjgz/f26xzKXLavg36816wxmYFdWE7xeRyB3BNwAyB1ir8ARKBUBJsJNW/udef3j4Y233yu1EWkqJ3bB2TeafB+p7jb997LYyRGoGALx1HEDIB6WLskRqCoCl1sUe3nMO+GkK+uzMdAJlz0U0NnSZpW9QuzkCPQ1Am4A9PXj9cY5AgMIXDzwv+G/Iy64L9CzNogopCjR/4688IEYdV0UQ4jLcARiIxBTnhsAMdF0WY5ANRH4j9QyDWc/8/Jb4aBzTP6EUiF/+sNZd4XnXn3LWhFejxdYhXh5R6DqCLgBUPUn5Po5AnYE+CL+wyrm6IseCHc8arIjrCp0LX/HIy+Hv17yYNc8CW+ClTmOcMK6PJsjkAKBuFndAIiLp0tzBKqKwMlWxca+93749pE3BIbZrbJil3/tzXfDt6Tb2PejBC04JbZ+Ls8RqCICbgBU8am4To5AfAQulUhzYJuHnx0Tdv7LTeG9OB9aqWQnPvo7H3NTeOQ5c+x/lLlL/10sdnIEKodAbIXcAIiNqMtzBKqJAOv4fh9DtQtufSrscdJtlYgQSMS/n5x4a7jw9qdjNA0Zf9B/UYYRJMfJEag0Am4AVPrxuHKOQFQEjpW0p8Rm+tuVD4fdjr050Ps2C8sogFGIn5x0azjlqkcySpio2LO6cqLYyRGoIALxVXIDID6mLtERqCoCb0uxA8VR6PRrHw07/vn6UnwCmPPf/vD/hpOuiBqf4NcCBodJJU6OQP8j4AZA/z9jb6EjMBiBQ3QSZaG85ASmAz6776WFrg7A2/+z+14Wc9ifptyr//4odnIEKolAHkq5AZAHqi7TEaguAowCfD+mejgGbrjf5WGvU+7IdTSAcMR/OPvusNH+V8Ry+BsMw246eVfs5Ag0BgE3ABrzqL2hjsCHCJylo/PF0QhfgL9c8kBY46cXhSMvvD9q1EAiEB5xwf1h1T0vCAfKAHh37PvR9B4v6BylsBInR6CKCOSjkxsA+eDqUh2BqiOwvRR8QRyViMK3z+mjw0o/viD89OTbw80PvphptQDe/Tep7J5/uy18cvf/hH3PGB2ef5XBi6jqIuw5/QcWSpwcgWYh4AZAs563t9YRaCHAdnnbtU5ip2zGc9ylD4aNfnNFWO4H5w8EEDrqogfCpaOfCQ88/Xp4acw7gZ48zDHXuHeURg++dcQNA2U2VtnjL3sovPLGu7HVGyxvB51EW0MoWU6OQHQE8hLoBkBeyBYndxZV9SXxXuKTxTeJiYf6olLCmcIcc417f9P1n4s3EVNWiVNDEThT7f6zOFd64bW3w9k3PhH2Pu2OsNUh14a1fn5RWHrX88IC3z5rgDnmGvf21ujBOTc9ESiTq1LjhOP0Bwbjzvx/R6BhCLgBUM8HvqLUJmDJHUrpvZyu9Bfir4iXF88vnl482XjmmGvc21zXfik+Q0zZ25X+XoxMJU4NQ2BntfcScdOI3f52aVqjvb11RCA/nd0AyA/b2JKnlsAfiO8U3yDeVbykeJg4K1F2KRXGKxyZ/9Mx3tDUpUOnBiDACBGjZMHFNwAAEABJREFUQfyuGtDcgSbeo/83FY8VOzkCjUXADYDqP/oZpCI9dsKd/VbHi4nzosUl+HdioqswosDIgU6d+hwBtvjbts/bOLh5j+qENitxcgSqjUCe2rkBkCe6Ntn0zreSCDYnYc6+yI8xRgc+BferfoaI/XciIPqY+K39tI/bN7Rp6+oCo15KnByB5iLgL/ZqPvuFpNaV4uPEZTrqYQgcJB0uFy8odupPBL6lZm0gbhLtp8auIHZyBCqMQL6quQGQL75ZpH9BhZiPX1VpVWg1KXKzeDOxU38h8DE1h6klJY2iEWrtKWL3dxEITs1EwA2A6jx3ngXe+P+QStOJq0bTSCFemHwsGDLWqVPNEWCVyAlqw5TiJhIjbQc3seHe5nogkLeWfHTyrsPl90ZguLIcLa7DvCQrEfho8PGQyk41RgA/j6Yv//yGnh9LY5U4OQLNQsANgPKfNx9SgpHwIipfm2QabKFsjFSguw6daojAKtL5x2KnEA4XCPOJnRyBCiGQvypuAOSPcbcaGEo/Shk2ENeN/k8KHyv235BAqBmNkr48u0mVOoXAlNupIQQ3aAWCU3MQmKQ5Ta1kS1lzv3UlNUum1FeV7ddip3ohcIjUXVjs9BECn9Dhz8ROjkAlEChCCTcAikC5fR1EIqvDnH977T+6+kMdflHsVA8EWGWyTT1U7aklMTL+1TNX8gx7KOsaYidHoBEIuAFQzmNmTf2R5VQdvVamMY6R1AXETtVGgJgSf6q2ij21e0s52PuCYD5L6JiNsK5RGoOYEjlJgmYUOzkCJSJQTNVuABSD8+Ba+GAS4GfawRdrfswc6l/VBtqmxKmCCPBsmPeftYK6dVPpA91kwyqmy9bTMcGpGD1jMx/uEc8fp9RXdC8GzSUhR4idHIG+R8ANgOIfMd7+VQryEwsBhk6/FkuYy4mOANH+PhtdajaB76vY62Lobf33vJjtqgk2daGODxN/W7y2mFGLZZQy1cS9N3U8lNi7YsehFw3nbI60vaG8F3UETAgUVdgNgKKQHlcPvZf9xx3G/X/kVFOHpT63SdjolweHHU+9OOx+5b1hr9ueGWCOubbRLw9Sni+GkaOmilv5R9IO0GE/jWyoOX1Bi6oVBHBSEoXoeVsEMWRPBD5GJSaXoJnFTIsRmpde/k46Z6riUqUYB0p6El78jEL1zJgwAyGw89x4K6Eans0RyA8BNwDyw7adZDbWmandjazXZpxvwbDxPoeGH11+d/jyb48KK3zpa2HOJZcLo2aYKUw6fLIB5phrK3xpK+U5OvzoinvCxnsfEmacl3du1prblmN4+Xtt7/jFshBgaduJqjxWtL8rJIthdyWZ6ZLMJbsX5Ld3b/csie+C18nKPVLs5AgUiEBxVU1SXFWNr4lQuvRsogAx2eSTh8/8cJ+w01nXhuW/uEWYbPIpEssl7/KbbBm+e9Y1Yb3dfhmGj4z6jsPIyW2IIXEjPWMLAXaSXLF1YkyfU3l62RgVOsxMeRkATCuwNPWdzJpNWJCph1xG7Casxs8cgXIQcAOgONx3UFVRtvSl577jKReHVb/+nTDJpMMlNhsxQrDaNjuFb/z17DDVTEy1ZpMzpBQe1LR1yGU/LQEBov39JGK9zIsvYZT3hspfJ86LbpLgPcWxiFGFz8US5nIcgV4IFHnfDYDi0I6y9nr2xZYO2514fphl4XjTk3Mvs2L45mmXhFkXWTxE+oejYyRRLiYjAsyxs2cDS9syipigGEs9WXOPY94EN1KeXK38OP4pyY3+IMkXiGMQfgqMeswWQ5jLcASqhIAbAMU8DYZgzV9sev5bHXnGwPx+bLWnmXWOsOWfTo01ErCk9FtO7FQeAjixxYrN8ICasYsYJ9ZllVoor+H/wTqxyoAIm88Ovmg4ZniMpbsYAwYxXtQR6IVAsffdACgGb+YlTTVNpjn/zQ8+PpePf0uxaWebM2x+8Alh+IgoPgGbt+R6WjgCX1CNUUacJAeHv68pZX59LaXWd0YRBoDUDE/rP0airCsWJGaAWJ2w28CR/+cI9AkC1j/mPoEh92YQtcxUydo77Rl12L+TMnMv+/Gwxg67drqd5rq5zWkq87wfIsBQdcwok+z1cO146dbh/5clhzl6JYXQeaqFfQ+URKFfSQpLFZU4OQLxEShaohsA+SPO8KHJcWrG+RYMK38tZpyT7o1eZevvxJgKWFq1RF3yKHlO3RFgiPovyhIL9xskax9xi6wGwOUS9J64SNpdld0mjkEjJORvYl/lIhCc6o/AJPVvQuVbQIQ8XsyZFV19211M3v5pKx4x5aiw1rd+lLbY0Pz8tmj70Ot+nh8CMaP94a3P0P+749WdQ6nVj6Wo4X+p+iHhcMh0FO358KLhYBGVjTmqIHFOjgAIFM+8pIuvtVk14hCXucXjIvwVv9nesht9JUbEwCUyN9wLpkXgYyoQM9of8933SGaLrL1/5JRhAFAvuwbuykEkxrfA7NcTSRcX4whkRsANgMzQJS5IjyFx5qEZF1ljvVRBfoaWz3o+Yoopw8JrmKfxCUGbVQUvlxwBAvOw5I/odclLdc7J3PnQDXE+1Tl7ojvPKNf/xGURfhF/j1j54ZI1n9jJEYiCQBlC3ADIH3WTAbDAJ8sbRY9Qt6nt+T+avqkhdrS/bYXMUO/5dXTNQsT1HyrTIi9LWQIZPZalYJsy7Hlxkq5nj8Slwk6OQJkIuAGQP/omh6zZPmaaQTC1btZFzCP4prablG9O4djR/r4t6FhCp+RDYtOIeT88y3ZwcbZiUUu9JGlbiGM5IoL9zyTPyREwIlBOcTcA8sfd5DE8/Zzz5K9hhxpmmNv6zg9Eo+sg3S9HQAB8j5ecmNH+zpC8oRRj/p8RgKFyyzi/UpXuJ45FhB0ub5guVitcTiMRcAMg/8fOSzpzLTgBZi5sLDhyqmmMEtwAsALYo/zBuk/vXImZHpSETo5yVgPgUckmmqCSStDe0oKQxErMhPHFVAB7YJiFuYBmIlBWq90AyB/5JmPMyzF/hJtZw0ZqNt7oSsxEtL8tJeU18VBiCSsRAIdeT3N+UZrMBeSlvSwNZEogRnVzSQhOhkqcHIH6INDkj1NRT+lNS0Vvv97unWyRmLzs26+/mjxz+5xsy8oHpP1dv5oVgdlU8GhxLBoc7W+oTBxBqG/o9TTnZS3/66YjzoDETeiWJ8091ur6LphpEPO84xEoL3EDIH/sTV/wFx9/JH8NO9Tw4mPmulmWhhCGqpkn9RGBDlinuIxBlWe0v6GqWIf/kVeV+X90Gcyn6oSd/pREoQMlxRosSSKcHIFiEHADIH+cn7RU8cw9oy3FTWWfjlP33FLie2LCwD6h9M9iNlZh7boOnVIiQK/1synLdMpOdLzB0f7a5bMaAAThMf0NtFMq4jV+m/dGkofBe7JkjRQ7OQKJECgzkxsA+aPPUGPmWh787xWZy1oLPngd32yrlAnKz6ozNjX4j1KWmh2r9PPiycVOvREgsFLMaH8/UJWDo/3pdAJixGbNCa6kP6ni8P/gVrDLIVH9mK4afD3r8TIquL/YyRGoPAJuAOT/iEzRz+657D/hnTfG5K/lkBreefONcN+VufpuzaAqtxafJX5BfLZ4K7Fp1YTK9ysRcIYlf/QyY7QRI4zRmG6y2Pluum4ZEtyrwvr/XmqyQyHL+XrlS3qfUQUM26T5PV9jESi34W4A5I//7ZYq+PiPPv+fFhGZyt5+zulFGh581P5Pih4nJmQsDcYr3frxkbi+ob3Ukk+IY9BzEvJ1ca/IfNbwv++rjujDSJKZB/1eQi8QxyD8NHDStDpPxtDFZTgCHRFwA6AjNNFuXGOVdOUxB4f3xrY2ZbNK613+vXffCVcejd9e77w55JhCMjcWE9seY+B8HW8nnlncVCLi3E8iNh5vdaZgeom0zv/fogpeFNeBMIYYkXo2krJsA45B6+/YSID2o5iy2+Q/zvyfAI5v3eZZe2rwwiMPhGuP7zVa21NM4gxXH/vH8NLjDyfOn2PGEZK9vvgo8VPiS8TfEc8pbgoxJcLQP/PxMdp8jIScKe5FOLKt1itTj/s8rx5ZKnUbo4jYChgDMRTD2fX7MQS5DEcgDwTcAMgD1YllnjvxpXRXLjlsv/DYbTemK5Qh96O3Xh8uO/yADCVzL8IHkCHpw1TT42J8K36htN83HGIopohof4JyAlpJZ0zNKMlMdTMAaCg7IR7CQSQm7PAnI8lyMX2FQPmNcQOgmGdwurWasW+/HU7+3pbhlacZULBKa1/+tWefDqfu+vUw9p2322eo1tXFpQ7z4oyutIwBruly31DMaH/Mx9O7TRqXwjr8j1f9VTV9ErtL71vFMYjlridKECM5Spwcgeog4AZAMc/iv6rmPrGJXn/+2XDitzYLrz4Tf1k1hsVxO2wSMAJMSpZTeHFVizGAIQAT631ZXasz4UCGI1msNtATTbOm1GoAXC/FWWKnpHaEBczSQOIkxFB+IQlhJEeJkyMwDoEq/O8GQDFPgTnFKJP4z9x7Zzh8kzXDwzeafQs/bPljt94QjthsnfDsfcRs+fByXQ8wBn4m5XFAw5GBFy9z2Xhm63ItCF35+M8USVuWuWEUJRU3Shk/IbZQHZb/dWsffwy7dsuQ8h6jLxgVKYt5dkcgPwTcAMgP26GSCTn6ytCLWc7feOmFcPz2m4TL/nRAYL1+FhmUwdv/iqMODH/9xoaB0QWu9RmznzFrstkC9lG1DWOAwDb4E+i0skS0vw0iaUcvdgvJSrOMZHXlxwFTSWaqavjfNA1ig5+/pynQI+/huj+f2KnxCFQDADcAinsOL6mqQ8VRiHn6Sw77TTho/eXD9af8JZUhgNFw4+nHhUP+75PhooP2qcucvxU3dmzDGLhMgphDOUIpXtrM0eqwMlR0tL92DbcO/2N0XNdOcA2vbS+dHxPHoGkl5CQxQZ2UODkC5SLgBkCx+P9B1T0vjkb03M/Z5wfhgDUWDaf9YNtww2nHhsdvvymMefG5QA8f5phrN5z613DabtsM5D3rF7uGl0rcaCgaANkEsUZ7BxUlGh6xBghJvKHOyw5JjDGCw5jV+15NGSA82rNMPVkNAJz/mEcfUKLm/2G4E5TqvUjtIKbDzyPJcjE1RaAqarsBUOyT4GXy0zyqbEUMPPuX3w9Hbr5u2H/1RcMvl51tgDnm2tl77xZG//vMQN48dKipzOmlNwFg/qWUoDWtkMTT6LxowpFxxUiVYmhuK1n4nyhJTERftDpQ1nH5XzeAcJ7cr1uGlPcIO8yS1pTFPLsjEBcBNwDi4plEGkFt6CElyVunPLSJCH4ErcHQqZPuLV2JQtgKSfy0LhKSmN3y+CjqNFeiZ/jjiDUwdE0b0orkw2T1keg3AwAMcaKM5XnLe5cogeyHgWznRiFQncbyQ6yONs3QhPXYxGEvfoef/PBlbXmrF03Krn+tCH7Enc+v5vwkYwy0DBqmCc5XVXxU8whJzBpxDCfrh+ol6ikAABAASURBVFcqDtAx+j9JtD9lm4isw/8vS+LN4n6jsWoQzpS0T4dmmlsScDJU4uQIlIOAGwDl4P6AqiW+vZK+ID6MDw5qCR7nzK8zz856drzKia5GBL9B2WpzOEKaYtDwwqZXzWjHzroWKyQxqxPKiPanJkxE60x0Jd0FnCxjzZenqzn/3Cwr5bceq6ZNJCimPIlzqjoCVdLPDYDynsYpqvp34roTS5tO7dIIRjxaH8x5lG9lMe0ebDDoUm2Iv5lVpe1BYrzDGRb+gY7nF2chRhlYI56l7NAyfHiZsmBEZui9JOezK9PHxBbqh+V/3dp/hm6ypFdJFOJ3tFgUSS7EEUiJAC+zlEU8e0QEfiRZLEdTUlsiZjw95CQNwCGN5WE/VGZ6vEsq/aX4JnEdaZiUxqD5rVIMGqIQsj8BwYh0qSexGiGLl34nwTiqYZB0ut/rOsP/tKlXvm736x4AqFvbWvd20gEhqJWYiRUfp0kKU05KnPobgWq1zg2Acp8HH8RvSwWWfimpJS0vrYm8pyQ1tT6YeL5jEOwiCVeLwUVJ7YgPP578tItpHob2O0Uh5EP7F7UQfwklZmLefR+jFAwAi4hnVfhOcb8T/jtE9WO/gxhtxRD+dQxBLsMRSIOAGwBp0MonL0PkDAF3G0bPp+Z4Un8iUXixK8lM9KBbH8yFJIVRAkYL6moMLKA2EHiIKIT36/gAMaMlfPh1GL6l/2JG++ODhO+FxGYmqwFA77+uzystaBhce6Qt1CU/v5XPdbnvt/oAgao1wQ2AajwRPIw3lyoECMEg0GGtCO/1E6Qx3uxKzIQxgJ8Aw+t4S/NyrLNzGcYABs21QoaQxPhNMG2g0yiEbOuQNDpaw9T24/K/bg+IwF4XdMuQ4h6GIb4FOM2mKOZZHYHsCLgBkB272CXpOTGES6+QgDSx5ectjw8IDk2x62H/Y0Iosz6d4XKWGZ6jSmINv0pUoURIYnr/zP3GqJjVFn+KIMjq/Y8KjACQNoX5m8XpkpUhMdqMTwjLQf29HAPNysmonkL+Q6veM/m3VGInNubCdVgr2kbafkGcF70gwbwgP6+UnhLGABH83tR5E4lof8SU4ENkbT8GlkUGS+QesgioaVn8HrJEXOzU3HV14/tiJ0cgdwTcAMgd4kwV4EC2hkrSU+Qlr8PaEGvl+TjnrTDRBjEGWEZHz2kzVYg39etKm0KsIY/R+2T42WoANG34f/BvjD0XiHMx+Jrl+FcqvILYqY8QqGJT3ACo4lMZpxO+ACwRwyHu6HGXavH/TNIS73Y+KjoshPjo8/HHCCBSH0YBxgFGQiEKlFAJGGeN9jdUXVYvWI22JhsA4Lm7/rtVHINYVvs3CZpK7OQI5IaAGwC5QRtN8CuSNFpcJ/qslGX0Qknh9JZqZFqA6QF8BloR/Biq1a2+IJah0UuM1Rir9z9TEE03ANj9kJUYbIUc47ksIiExRxUkzqk8BKpZsxsA1XwuQ7XCJ2DotVjnd0kQHumfVPpdcSxC5qKxhGWUw7I4nOR2VPk5xAxz41BY15DEasIAjdL/94r56PLMrCGJrQYAv6GnpE/TCRyIZRELB5YHfyWWMJfjCAxFwA2AoYhU85yPs0UzeiUsP7teQhgqJ/rel3TMsC/Dv0Qk5B7L09j0RrfMhJc7AY4mM0uKI4AwuSwlZElhKyQxRgpLDuPUUKwUll62DBqeLREAd5MKaUMSI2ctlbMQhoilfD+VZbfPv0dsENOA1uWZEdVxUVkQqGoZNwCq+mQ+0mtGHbLETklmYtOReVUaQ4J5csLV8pJilztd/pAYysWrfOj1DzOkPCDCH7ENUhbLPTvtJMgQhg8RCInEhlFU15DE/B0TM4HYCRg0RCLkGWPc9QKTSI7T9crU474bABMCxEZfj0x4KfPZtCpJkLCqGNJSx6lfEODF0S9t6dd28NG2ONTxsbshBTjMlTNknqJI16xES1uza47yb7Y+mBgsGAQM47IME+zK1y69Bnz4k4Yktg7/M7JyeXoV+7oEWwYTHwBsYjSUKcCs4bZj1O8yTAhUt7AbANV9Ni3N+ONvHWdJWVLI+vk0ZXGiIypZmjKd8vIbQ9Y0nTJU7Do96FZIYobTW8YAqzIqpmoidRg9YtqDkMSD29YyKq0GwC3Soo6Bq6R2rgTebM4Uq5I9JYgpHyVOjkAcBHg5x5HkUvJC4ONGwWl6/4Or2lknfDCUmIkP6YFmKcULYBi3ZQzgN8AucPgRxOrZFd0i5pJbxgBtI3IjmxVZ9Oj37X8t2OytwowkKTET7+rjJGUGsVONEKiyqvyoqqxf03Wjl2YdAfhvRhBfU7mYw5hECfyyZNaVCEl8mJSnF0bgIZYZ1jkkMXssYOThrKlmZaamhf9NA1Rrj49YIyQ8M5wM0+jgeR2Bjgi4AdARmkrcYPiWwDoWZbIaANSJZ/lvOIjErDKYPZKsMsXwQifQECGJiTWwqZRhMyQCEumwMcR+DFc1prXZGvqYisX0qfmi5BEBUolT9RGotoZuAFT7+ViH/1kHf5uxiTG94zFmjpE+jGwo6QvC4et0tWQr8cJiAjcpaQRhXBKUqBGNNTTyDJXFD0ZJFGLqZrEoklxIoxFwA6Daj58VABYN+fhbN8rBiCAYSazebZlRAi1YJilLdD6WbSXJ2w95fPlf8qeI/4h1y+ZWbUzbEM9jitYFT6uJQNW1cgOg2k/IOgKQ1QFwKCr368KPxbGIADxlRwmM1ZaWHPYfwM+hdd6ElIiE7L3QhLZa28hIyRYSwrSJEjMRu+LXZikuoNEIuAFQ3cdP4A+CtFg0ZIjWUn5wWebvzx18wXBMD4bNTtj0xCCmMkVxCiRiW2UUKkiRH6gediPEDwCHwrl07tQZAQJNsZyvc450d1jRgR9KulKeuyAEql+NGwDVfUZLSzXrEB/hfSUmChEUhx5urCiBGDf9ENwEfwZ25sMZMArQNRPCO2RV6cy8NA5vraBKbGajy05DEPi9zmMZ0vz28KnpB8daweJUNAL88RZdp9eXDAHr8P+rqibWnKNEDRBRAmPu8vcTSV1FXGf6ppTfQByD2LPhAAm6U1xXakUh5Ld3sxpBj9cd1gTEeMKQJlQwf0vjL5kSpmCOlQR/lwuEKlEddPEfTXWfknX9/41qWh7R6/4pubE8mtmIhuVzU0tmHQk/BuLvx9KdIfXdJWwJMR/NnyrlI6qklrSctN5XjEGDQyrL15ja0qVGE9Mm7PSHMRADiPUk5PtiJ0cgFQJuAKSCq9DMVgMg5vD/0IYz3xsrSiCxDhg+HlpH1c/5kGG84M8QQ9fzJGSwH8HdOmdVwQpKweiHSq8V52HUSWzuxJTWkaqFyHhEJNRho4nnTZTJWCC0fiux5LkcEwL1KOwGQDWfEz1ieoAW7WI6AA7VgyiBrHuPFRIX34IvDK2k4ufscmidpmk18TkdbCvu1CN8SPcYaWC6pBWSmBC8sfCX+MIIzNB9zsJqrG5FrKy5NZJ6ONTiWDtVJHkupgEIuAFQzYfMS9L6bPIcAQA1enIxowTSO6yLMxMfYvwXwCEGf1tCGBZW0pNaIYnZxIfVB3UMScwIAM5rPRvb5xneVvuIIhkrxgaOl4dIplPJCNSleutHpi7trJueGAAWnR9X4SfFeVMTowQyOkMYYPwXYuDLh5BIcVlkDQ1JzKgMOzlagz9l0SVtmc+owKfFTaf7BEDM+Xt8CwjcJbFOjkB3BNwA6I5PWXerPP8/GBOiBG6pC3ivKzFTHaIEsqvhguaWjhPAVs1sNzzuzPY/IYnxSSAgESMDm0ncqeJYvUuJik6MXkQXWkOBbPDz94h640vCKEtEkS4qOQL1yekGQDWflTUEcJ7z/0MRw1ntR0MvGs5ZJ40XvEFEbkU3kmTm6pWYiZ3i2G0xjw80MgkVS0+QZWIbSlumWGItPZO4KLRSFCn9IYSlgY9EagrhqDH+cFSNJNLF9CMCbgBU76nOIZWsDlKxQgBLlURElMDzE+XsnWlyZWFdc9VeXrNJr6PFsYgwrnj1x5LXSc5bunG2mB3pVldaJeK3nkUfNpX6PxXcTcyKFOIwzKDjOhMjOBiEsRw7GUXsh0BbtXumdVLYDYDqPS3+cC1asUyMGAAWGWnL4r1Oz/j5tAU75F9R1/GyV1IJIuIa0f748MRQCANtnxiCUspYI2X+vLOnjYuPYcw0Bz4uGDWsjGAJ6TlSlNGNi5V+R5zVsFDRUulK1c5yPiVRaA9Jqdozl0pOVUHADYCqPImP9LAO/98lUSzTU1IoPaXadhDHIrzs8baPJc8ih+iH+CdYZLTK4i9BTw//ida1olJWDhRVV5J6RifJND7PukoJKITPyUgdDyWcMmnfYbpBSGJWqTBCML/O60QYhugeQ2cwOVGC6j46oibUheqlpxsA1Xte1hGAvJf/dUOsH6MEEu2P3Qu7tTvNPaL9ESY3TZkYeRnF4AMZQ1YsGf9OKAhfAXr80yTMz3sN45ERAgJWsQkPveGPJSxfZjZ8QzBymBKIocfcEoL/hxInR2BCBPhDmfCKn5WJAM+D4W+LDmUaAOjNnCwvXY6tTAQ8hnitcrKWxw+BHlRe0f6y6pWlHI6VVdqwCEfFJB8mevs8A9Is7aYMG08xtM7oGKMOe+visuKq0sNSjD0mlEShTSQl5uicxDm1Q6Bu1/jg1E3nftaXHkrSXk4nHIpcAdBOB6YfWI8ey5mpzCiB+CFYDbIWRr2i/bXy5ZVae//4ebDrXyskMecWXRmeB5NeMgiUE2vZJXVhCOEcd4tO7hfvL2bajRESHVaG8OKPtecGjWL5arvooiwZ/aIyMPVwslL8UzBAiDGBjwbMMUY9IylEG+TvAqOCsiriVFcE3ACo1pOzDv8TAIYeTtmtYg4zdpRAvPCLbBdDyPghxKqTHljSaH+x6hwsx2oA0Hu+RgIZVgcbhpZ30jlhfdMae/TGk/T+JT4Qz4A0D8awYAnrdRLOEjxi86+pY+bOlZRO35MG94pjEKNYfOAZScGo5TmyhJftvYlBwMZTLBvl3ryqcHoxI2Awx/hSMJKyua4TAIzgVfyeb9c5S3cpp8MmU/3a7gZAtZ6Z1QBg57gynMvaochLgh5Du3tpr+F9jxd+Ub00ov3hbR7rQ0C0vzPTNjpiftrBh80i8pIhhQeHJCaEMwYOc/r0GIdk/fCU6JRf1hkfGyWJyBoVM1ElyoRBwwf3Mh2j5xFK2WWPD6AOSyGmSfjgdsM0jWLLKDPOuvTyGYHBv0WXMhN/j0upNJEMkfk/HSOXvx8dOlUdATcAqvWErAZA2fP/g9HEEMGZCa/3wdezHuOFjzd+1vJpyuF3gP9BmjKd8saM9tepjl7X6blN1ytTj/tDDYDB2RnKJ5odzwg/gy1084/iC8X/EeOZz5AxvUh6jrqUmMr4mDC0jUGD7vSQiUtBMCViVCRWPFJGjHocGCOJC/TmY8kaKmdxXWBkgSmEX+g4z7okvlpUR23Tbk7wAAAQAElEQVTcAKjOU+PlsrRRnSoZADSFIUaGWDmOwXjjW3stvfRgV0L8DnrlS3KfoXH8IejJJcmfVx7r8D/toGecRD+815kn/q4y04NeXylTBf9QmqUnWzZ2fMQIWcweC8QaOEXtYBSjyF33/qA6MUaU1IJYdriXNGW1C3sTMFKgU6eqIeAGQHWeyHJSxTrcWDUDQE0KMaMEMo+JR7gVJ/Rqx/gZJJ2bbld+6DWi/TFvPvR60edWA4Ata18qWunx9VH3+MPSE0Yj8EkgzDLGAMteielgHV3p1TAcLr+uTNSppDZEGGqm7q6QxvhbKOlXqme73ACoznNjrbNFG4Zh8dS1yMijbOvlxVBqDPk4G+GFHEPWYBn0Ugj1i7/B4OtZjxm6ZblZ1vKxyo2QILz3lWQmIuxlLmwsyMfWKCKX4lNIKhsvsTMkETCv0jlLYDEidRidcLhjJIK/p+jCcxa4muTz94DxpEOnqiDgBkBVnkQIVmcnnHCq05oJNaHnEnP+Hu98PNEnrMV2hn7ElLdJGVcav4ev6hA/CCWlEoblKKMGePobRWQuznTCQ5lLF1MQJ0uMLHxHCFOMvwRTIIQujqkBTpasVIgpsyhZLG9m+oRpPIztouotpJ66VuIGQHWeXD85ALZDleFShgPb3Ut7jRcuXvoMyaYt2y4/8Rd4MbW7l+Uaa+WZ/8xSNnaZdYwCmbcnRr1RTObiGFP4ZKBHZiEFFuS3+SnVd6iYkMRMARH9EQdIXTLTjyWhStMiUicVgQWjJnlN46VSpumZ3QCoxi9gRqlh9Tqv4vy/mjUB7aKzWNMU4EWPSyJNxIsIYwL/ApOg8YXPU/oncVXIOv9PYKkxJTcGB0TWqJetR1oY6OmurEIYl/zuGQbfU+ftAvLociJ6W7lYGohhpMNaEquDcArlb6+WDZhQ6fqeuQFQjWdH75+XRVZtmBesgwFQxSiBeCvjV5AV+8HlmAtmV0Sex+DrZR0z9M9vy1I/w9mW8rHKMoKEoyzxFNjxMpbcIuWg/76qkE2NWDNP9D2u6VIqYnUNxnSqQhXL/H/Sh/gYlveeRDhZEHADwIJevLLWlzRrzV+Ip06ukqoUJZB5W4ZUYzV4ewnCWUtJJWh1aYEToJLMVBUDgAbcp/9YpolHOctLieBXFWNLqqUi1swTEIlRAf5+D1Bp/DWSfhCJu0A4YxWrLbGCImbE0FKAqHOlbgBU4+kRi9yiCcO0lvJFlyVISKwRC7z2j1MDkr44lXWA6B0Ta50524ELxv/ozdA7NYqJWtw6/M8wcxV/WwSaYVid4XUCD+Edf46Qq4LTpdRITUxn4TdyrUqyWoY58s/ruNsQ+ed0v8obGkm9RIQhx14EiTJ7prgIuAEQF88s0vhw9fMKgHaYsOUp0eJiBXkh4Axe/O3q6nQNJ62FO91MeZ353V1Tlikiu9UBEOc/5pyL0DVrHSx/bX0wCUncMgbq4jQ4tN2snadnfJZuELa31bbBIzmsLshi9EpkJQnjGSOoksp1V6red90AKP/54R1ML9aiSazetEWHtGXZiS3m8Ds9wqRRAhlGJkJZWp3b5SdKHi9s/Bva3S/rGtHYrD3EMpf/ZcGNabDWB5P1+BgDRPB7K4uwCpTBOZjfFsYAU0t89DeSXieJre8MiagMEUiJ0Tg6Q5VRqgmKuAFQ/lO2Dv8z7FnXZUFECTw30iPAi58144N7Su1EE+f9z+1uZLy2n8qx1EtJpWgtaWP9+y4zAJDUNxGRCzEGCNaDMUQsf1Z7vGqSWl5hQhITVpppJuvGTuW1onPNa+gWqwOU1Ifqrqn1BVH39ldBf+vw/+1qxJviOhIOXDjO4T0fQ382vflZF0H0MNjYBSOgS7bEt25UTjy5lVSOrPP/xPSvu5NZ66Hw93G2TviA4jOAUYBxgJGgy07DR04R5ljqk2GpjbYOq+740/Dp3Q8Kn93ryAHmmGvcm2OpT4ThI9m2JBfMGMWbNhfJLrQtAm4AtIWl0IvWFQB1HP4fDDDznOy8Nvia5bhblMBvSzA71ikxEw5y9FgYgTELy0HA2kaZl6s80xtK+oqYDmBagOkBjAE2K2L/B6JV9lVDkzRm1IyzhqU3/kZY50d/CMt+eYcw9wprhGnnnD+MGDV1GDbppAPMMde4t+yXd1TeA8NSG389jFLZEPcfz4MtmeNKzU1a/QW7AVDuM8TLl16rRYu6GwC0nTXeeUcJJNofS62oLwbjtV2VaH9D24MzHO0dej3NeZ2H/5O2E+ONXfZ2VIE5xGuJcQ4lnK8O+5cmnWxEWOwzm4Y1dto3zLX8aoHzpK0l79zLrx7W+O4+4WPrfTlMMpzXWNLSPfOxn0KROy32VKifM7gBUO7TXUrVs6mIkszUDwYAjSewCd70HFt5AQkYHCWQNxS7COInoFtmOl8S/iSuKtH7Z7rDot8llsI1LMtoB6Me9EDnkf4rixmSjvWblLhqED33VTTMP/+qnwnDJsn+CRimEYIFVls/rPSNH4WRU0UbucfxMeaIYG6g94Pg7E+/H1pffhusw/84NBEVrPyW2DXAi34rieFFrMRMxI/H2x9BRPtbgYMIjL8CsvFfiCAuFxEYABbBeJwTrc4io85lebYEGWKNOkGHiNbXiuBX53aFaWafJ6y83U/C1LOwkjBOU6abe4Gw6jd/Fqaeda44AkOItUInlj59K2eSvm1ZPRpmNQBwQqtrWNR2TyiPKIGbqKKYyw3pnfCBlNjKktUAYPkfH8HKNrBgxVhlg3PpEqqXOP6tCH46rQ+N0pz9J7b6fmBOP7bWk08zffj4ljvHGglYUvphdCmpKvWHXm4AlPscrQZAFaO0WRH9pQRg2CgxE2ulz5CUScUxCD8F/BViyMpLBtMf8xmFN234Pw1cjLj9SgUYUQLrH+qYCH6VNsSZt19+8+/k8vFX+wdo8mlnCNQxyfDhA+fG/9jwyCjCi/dCwA2AXgjld39qiaY3oSQz9cv8/2AAcMwi+Ale9oOvl33MXDB+CmXr0at+a+8f+W4AgEJvfkhZfideRYzfwE5KGT2JNY0lcXFokbU3DjGH/TtpNf3cC4YF19ig0+0019dNk7novP1SnxsA5T3JFVW1Ff9+NAAES6CXxfwrx1VgXugYJfgpVEGfbjqs3e1mgnvE2cfYSZDVswxC4AkdHyYGf1ZhbK/jf4tLD0nM0P98Kxf3PV1glc/EmApYWtgxgqfEKS8ErB+gvPRqglzr8D9LlZ7sY6AOV9vwtldSOrFjWRWj/Q0FBs9/PkBDr6c5995/GrTa52V/gqN167Ni1rbj3EoEPwIS6VKxtODqnzN5+6fVdtIRI8PCa7GXUdqSE+Tn20R0wAkuVuOkf7QA5P5pTb1aYg0B3I/z/4OfIE5oX9cFdkdTUhrdrJr3FteBcFLjg2PRtQnr/y34pC1LREVCELMihSVuhYYkHj5yijD7Uta+RtomhzDnsqvEiBjI7zl95V4iMQJuACSGKnpGawjgG6JrVD2BRGdLu8tfzFbgh8CuhaUP4yZslLX3j9HFHHbC6jxbSgQYARgckhhjgA1+XkwpJ3H2WRZZOlWQn8SCe2RkFGDmhRnF75Gx++2km3t1lxL5bj+JcwOgnKdJ1DHrotl+nf8f+kTwusf7fuj1Is7x8MYfoYi6YtRhNQDukhKEZlbilDMChCTGGGCUi50LP6P6jhBHHfGacQFrQEhplJEi1L1Ixqq9WEIE3ABICFTkbCsZ5bHk6CajjDoVJzrbfQUrfIHqq3K0P6k3AU2qM+ucqc//C8QSiJUv/N6+qbrpHKyudH8xW2YryU7TzDZ39sLGktPMaq67gk6ARlAqVtwNgHIeiHX4n54aUQDL0b74WseoSqKD4Y2vw9yJaH9sFsOQeO6VRapgecmZXmwhNwAs6MUpi3F/lUQRvIoeMNNQOs1GU0w/c7aCEUpNOYP5+z11BDVcRBcE3ADoAk6Ot6wOgIQpzVG9SoqOHSWwWyPZNbDq0f6G6r/O0AspzzGuiIWfsphnzxEBDNCRFvnD89u6t6daw0eat96onAHQs9E1y+AGQPEPDMyJImapuQkOgO3w+YUu5u37cIzqOF1cN7LO/9+iBufmjCbZTtkQYEQgW8n6l+JdWf9WVLgFDnDxDwevnGmM1eb9ETSql1vxsZLM0LxpWFQyOhEBcHbtdLPC1+klrmrUz73/jQDmVJzpr8yix76Nr2Hm4qaCY982/5myasKkQ9zC/SfNDYDin6l1US5/FKOLV7syNeKVj3d+bIUYAidgSx2i/Q1tO06l1vFWn/8fimo1zk0GwBsvEpOonIa88SKuNKa66/i3aGpw0YXdACga8RCsBgCBafAaLl7z6tSId37sKIFE+8PPoDqtTK6JdfifOAdXJq/OcxaIACGGM1f32jOPZS5rLfjq0+a6TW236j+0fD+euwFQ/FO1GgBNHf4v/knVp0arAcBvytTTrA9UtdOUvRkyK/3CgywYylzcVPCFB+80lVdhswUhGU5dEHADoAs4OdyaQjKt4bF4WUtMo4nogMRZjwkCy66s8+gx9UkqaypltBqVHv5XIFaQWAY4p0WvZ++9Pbz3LgM8Finpy773ztvh2fvuSF9wwhL/m/C0zLP+rNsNgGKf67KqbjKxhZpuAOBE+VsLgB3KEkjneN2r29Kj1aTzCLGFfP7fgl78sgR0+pfE0n03GaU4AT55R/Hbhjxx+3UBI0BtsNBtlsJetjcCbgD0xihmDmtPDY8ePNVj6lQnWRhPbKxidXjr1OYFdONgcZ3IOvyPq3bxX4g6IVyMrsNVzWZilvgSj4F9AqK8nx+88vzwwXv4uEp6AfT+e2MDdRqrIgZCZXbgNLalssWj/MAq27rqKWYNAMTLoXqtKk6jvVTViuI8iYiD7NyWZx0xZVsNAKLOvR1TIZeVCgGWBLP0lLC/p6hk9N/3mBeeCQ9de6FEF0MPXf2f8MZL9FVM9d2j0nULxiWV60VuABT7vKwGQJN7aqvoUTFPryR3OlI1zC6uOs0gBZcTW8iH/y3oZS/LBkAEtsLJ7w8SM684N7r3kjPDy4/lP3j40qP3h/suOytGO6IIiaFICP0rxQ2A4p7tjKpqfrGFmjr/z7w8Q//M01vwS1qWIOZEBByWtEBJ+dZSvda/4Uskw6k4BNiz4URV96iYES3r/g0S05veH/tuuOnkw8Jbr77UO3PGHG++8mK4+ZQ/hvfHEq8ro5CPiv3jo0M/ygsB68sjL736US7z/5YPCnNiTZ0COEg/CObnlRRGrDJgT4DCKsxQkXX4/2XVSVwJJU45IsDf/QaSz2oLdvHcQsf4sygpjt5+/ZVwwwkH5WIEvKWP/42S/fbrUfYow/mxMp2d4p5Q8TW5AVAc5hgAltoeUOEXxE0j5uO3KanRB6heVh0oqSRZDQCczYrzDqskhLkqNbmkby9mOds5Sq3PSyJs9Nozj4er/7xPeOkxXic2Wa3SDPtffcQ+4bVnSWI+kgAAEABJREFUo8XtYQqODk+rCk9zQsANgJyAbSPWagA00SJmnpSXQRs4C7nEagOGawvvrSVoHT4KVuPEh/8TAJ0hC1NIP1e5R8T8fhdTWhliJOC/fz1gYK7+vXey+3/i7f/AFeeG/x772xCp5w9GeA8ew0E1uL+1cAOguOfrBkA6rBk2/YuK8DJVUhqxcyNztaUp0KFiepNg1OF2ostuACSCKXEmAvf8WbmZ3/+l0lnElSTm6e+75F/hsoN+Eh69/tJUa/YxGh698fJwxSF7hnsu+kesOf8WTr/Wge8BIBCKIDcAikA5BOavrR+ypo0A5BHtL+vTZvWBKSBL1oq7lMMA6HK7561nlIOhaSVORgQGB+7ZUbKI+Kmk+sRowOhzTgwXHbBruOW0I8KjN1weXn78wfDOmFcDPXyYY649esNlyvPngbyjzzo+vPHS87EbSOhf9vmILTezvH4v6AZAMU/Y2vtn859bilG1ErUwtJ1HtL+sjWP1QdWiBFoNAHr/Ps+a9RcRAoF7vqLiN4gvF0cL3CNZhRO9+qdGXx9Gn318uObIX4WL9t81/PuXOw4wx1wbffYJ4anRN6QaLUjZEEZN3kpZxrMbEJjEUNaLJkfAagDcrqqa8ofBfPsJai/z70oqQ4ziVCVKILrMZ0QGA8AoopHFBwfuOVkIRA/cI5lNpAvUaKb8lFSF+l8PNwCKecbWAEDXFaNmJWohOEqslypjlF9Sq2J5uhMl8MuSVzatE0EBNwDSgYhDKr/NQgL3pFOt9rlx/Pu6WuEjUgKhSHIDIH+06dFao7UxzJi/puXXQLS/3SOqgR/B3yXvN+JYdLgE4YGvpDSyDv/jnZ5/WLjS4IlaMRt4Mf2DYx/OoNNHle7C+OhvJxieEleKmqCMGwD5P+WlVIXVKagJBkDsaH8MJ54h7CHmFgnAwrGVceZkmZLVAz+rHtT7qayFx5cjIM34Q0/aIADGBO5hlATfm68pD4a8ktLpfWlwtpgokDENW4kshWiDh/0tBfoQ3ADIH3jr8P8rUvFucb8T8+vMbcdo50MSsou4RThR4rD1euuCMS0zSuAS0n1WsYX4sFnK92vZkWrYVuI7xATusRpaEhONWLCPbwwdChwOL5fkPcR/FdeV0H3PairfDK3cAMj/OX/cWMWNKo/Vr6RviWh/zK/HaCDz/VtK0NC1xOy2xnI+3YpCZUUJtA7/M+TqBsCEP4GZdUrgHob5j9MxRpaSStCz0gLfg7mVYpzcqbRFPEuWHTIi0LpWl/RvUpShf9qgQ6cyEHADIH/UrSsA+n39P85VREuL9SQIJHJNB2HM35/f4V7ay6xSKCNKoNUAYDTJ51vHPe1FlRC4B58Ipolm0XlViOe0g5Rhl0B0w1FOpxMRo1ub6CqGi5JaEB9/nP4q27GpBYoRlHQDIAKIXUQwr20NA9rPBsAwYcdcPfPqOjQToyV7d5FCb2Nb3Wd1gBIzFR0lkHgEaxq19t5/CGD4L+FIb5oetNVHR6Ki0aWS9Hnx4uKjxEmW/2IEMIK2v/JXmfjgMwrHCB06V1nXRujmBkC+j5nhfyvG/WwAsNse8+kxnsIbEpLkxULvl6FHZY9CP5EUPihKcicMjumMtTTVAZC/Qz6sjA5dJgyZR+eaDksnPoz4HKwsTRjh4RhjVaeJifx8XJlOezFxqeIyMiX3RVWHkYKuOqwqNUevqvwB9CviGACWtj2uwk+K+5GI9sc8eqy2/VCC7hEnIXp/jDwkydsrD39DyGK0p1de632rUxofGpzHrHrUqTyBe74vhVn2iLc5H1mdVoJw8P2dNCGoE8ZJjHgfZ0oey46vVFoV+rcUYTklf3c6dKoKAry8qqJLP+phXQHw334ERW0ijCpzlsyj69RMRBFLG0P8e6r1PnEMYvUCqxhiyOomwxoAiCVtVewddmtz1nv4luA8R+Ce30vIvOKqEKNQzOvPL4UwXImBr8NohDMjo1KbSiLHSkoh2rm1amaUDwNMh9WnJmnoBkC+T9s6AtCv6/95MVudI1tPjvl8XjJphxXHSADzpqwa0KGZkMXwq1lQBwEsUVu1w72kl5sw/7+8wDhJzIevaoF78FHZXLrNI+Zv4CWleRF/D6dLOCsa9lGaZ10SPxFhaDLKRxCliW76hWog4AZAfs9hDomeS2yhfhwBINofc5UWXAaXJdrf04MvpDi+WnkJRKIkCrGaIa8ogStJQ+uISb8aADiTflr4sByOj+xXdVylwD0XSR98DugQnKLjseKiiNgXLHHkfYShXNQOkDOogVOJa0bNUtcNgPyeNy9si3Tma2+2CKhg2VHS6Vgx3uxKzEREvla0v6zC6InFcrRkNQPt44OUVZ9O5XAO63QvyfV3lOkqcT8RoyKsjSdwz4Vq2P+J88BeYlPT4MA966o0xomS0ojVBPTGl5QGMFMQsaJjSmRbso5YtRXqF+Mh4AZAPCyHSsLaH3otzfldyvyquJ/oEDVmYXEMYk5x1wiC6I3RM2IVQQRxYT0JYXWDkqhkNQAwcugNRlWqJGF1DdxTElwTVcsoAIYvm24xYvU55SAiH8Y0o2I40zKEr8smqp0BYGptDQu7AZDfQ7M6AMbwCM6vdeklb6wi24hjEKMjzLmztCiGPIKu4IwVQxYy8Oyml8VxDGbkxOoz0Q/L/xYUmDhb4thHD7ZKgXuINEn4aRz70K1T4B41oVLE9BnBsfaTVux0uZpS5u5nVEroYSWZCVmZC3vB/BFwAyAfjMGVNdsW6f3kAMiL+ggLGEPK/krnV4hjEqsIzo0kcHLJYZXDCKUxaA0Jscqq8/w/H5LThAE9U1ZvWH0hJCoa0WPG256PJsZJrJGkaAoaBNE2Q/GwjAoXsTxW1cSg5sngQ9W8VuffYqL/sf7YUlO/OAAyJ8s6eYwACx6tsvhF4NXcOo+V4jXNCMUzkQTijY7zVQxx1uF/Pkp1+z3xbmJt/LUCkDXt9E5j+Y5IpIkYgSJYD34+GCd428daTWJSLHJhq88Iy32tI6GRm+TiBiPAH9ngcz+Og4B1uJYX9ug4qpQuhflwtlaNoQi44OGdVxhRNl4hNGwMXZERK0qg1QDgRY5TGjpVnekx7iwl8fEgcA8fWZ1Wgphywo+FYX6Mk7oZVWlBJFSy1RcAAyltvaXkb2KlbgDk89StBgC9XJzT8tGuOKkMi8aM9vcDqc4wsJLciGhljFjEqIC/r79KkGU0iOVURFGTmMxUh+H/VuAeNuY5SC2tYuAedMI4IcaAVOx7YlSM0MmWhrojoAW9nMvygsq5ikaKtxoAeGzXHTiG/5gHjzVfS7Q/dm4rAhfmmWNFCaS3yActq95rqaD177TKBgDGDcvT+KhWLXAPkRNZIcKHH6/5ooPp6NGXTlY/AEZweBeU3pDuCjTzrvXF0kzUurcaB7ClumfpebcfDAA8oa2GUAsoov19XSf0SJTkTkQJpL5Y87qsWGAOO4vi1uH/l1UpI0pKKkP4hbQC96Db16RZFQP34MeBcZLXlJOaXXli+siiJMGAcAa0yPCyOSHgBkB8YHlpWF9mdTcAiPa3e0RoifZHXPGIInuKYugzZpTAw1Uja66VpCKrAcDOd7EMmVSKt8nsgXvagFLxS6xGIoiQRc3K+wFYGlfnsm4AxH961gBArB9+KL5ahUnEiYv1w7E8tpmPJ0BJYQ0YVBGjGISWHXQp8yFRAolcSO93sBDmvtlDgKWNhInF+GM4HOcrep6sKBmcP+3xpWkL5JCfwD0M79MupoWIT59DNZlE4viJbnOrNFEFcXzTodN4BHAetUYMpEMwXpwnVULADYD4T8O67IUPQHytipPIfDe748WoEU9wgqvEkJVFBh9ghqdZfZCl/NAy7IrGqgimRnCOvFcZGNn4h9I9xJuJMSD5GE2v4xhzp2XO/y+qNuC3gWMfc+ixloJKrJmItLmDpDC/v7dSDG8lTm0QsE4DVHwEoE2LG3LJDYD4D7rJBkCVo/1lfdKxowQeJkVYPkbkwVhhkSWyLdG7Jexr25s5XuSFT+Ae6mZZ5RQ51pVWNE5tBO7BT+coFbYOb0tE3xOYWRrJRkSxOgUWPbzsEATcABgCiPGU8Jl4fVvE8HGwlC+rLL27qkf7y4pNzCiBWXXIUo7wv0U5TvIuYW28B+7J8qSqXYYRAIIfWbTEKLSUz61skwXzR9vk9sduO73/oXO8aergZR1rzjlNvda8tJm5eowAqyzK4xmeR7Q/ZGdhnkvMKIFZdMhSZn0VYt16nn/n+HxQB9M1HrhHgPchsfyRkTBL0zwegAW9nMrm+WLISeVKi2X+1qLgAyr8grhuxLx2XaL9ZcWW4XRWI2QtX0Y5/AjwycAPYKHICuCn8FvJfExMHcyl67AShM/BbtJkLjHGCc6HOnQyIMAogKF4qKgBYGlS/cu6ARD3GeLcZZFYRwfA2NH+mBvPO9pf1mf0TxVkpENJrWhNaYsn9yZKrcQy15MkBGOVyIzT6rgqxOjZ5lIGY+cPSl8VO8VBwOoHsLjUqJIviNRxcgMg7m+gaQYA8Q5Y8hcr2h/bkjLfHvepxJXGqgSGu+NKzV8a4YjZtIZee9q/e6Z4/k8qMpKAIcF+DDx7XSqdmJtm6oGIiYzAsZSyH8Jolw7sEAWsIwD8huYZIrP006YrkPZF0HS8urV/Qd1krbeSzFQ3B0CWdq2YubUTFiTa37a6xHy7ksoSG8KwNLAqwXXSAMVLmF47RluSD/jgwD1nq6JPiatCrE+nHXjzbySlLhc75YcARu+TRvF1/JsxNrnaxd0AiPd86H1YpL2jwreK60LM6cWM9seabNbE16H9RAn8dR0U7aAjPfi/694IcTvywD3tUPFrlmkARmWerhaEro0bAPF+A9bh/zukSl3WJOP5TYz0mNH+mF8XBLUhgscw51wbhYcoypI9/BkYFWjd8sA9LSQ8bYcAUy3trie5xvLQ15Nk9DzFIeAGQDysWQJokVan4X+8vmMF9mBokXl1C3ZllCVKYB2dNgdjtYVOGMnASZCXO2Fwqxa4h1DG+B8QPtgD9+iBlUhslZ01YiJ7YZSo+sRV+5UQ3ACI8ytgPnU5o6i6fEyIW8+aeGNzB4ozJ8h8OvPqAxdq9B9he1n+WCOV26rKNA4bBjEiUJX3AcYVKw1WkMZshnSu0qr7hkjFvif+Tvm9pG3olSqAA6oSpyohUJU/+CphkkUXHJGsS1zqYACwcc2RWQDqUIbeJ/PpHW5X9vIi0oyNfZQ4RUTgFcn6nRiH2i2VEhBKiVOFEPirdGEEUEkiuk+5MJYx9nVYFXI9QMANAFCws3X+nxdfVde+t9AZpgPmjK0rHSRmgJg/Zx594KRG//E3w1D0qBrpXHVVCdzzfSnJMjHiQBBcSKdOFUVgV+n1PXGvTbLOUR6chevi3Ct1m0W8zJrV4nxaazUA+Biynjkf7eJIZbib3exiSOPFQQ+Pod4Y8oqUwRz5GkVW2Md18btvBe45UBVXaX4AABAASURBVO30wD0CoSZ0qPTED4gts/FfYvtqVjLdr+vHilkyyrRSVp8BiciPXPI4BNwAGIeD9X+rAVD14f8mRfvr9lsgmE4uoxZTDR8eNpprrnDAcsuFc9ZcM9z62c+GhzbccIA55tr+yy4bNlQe8nZTsuL3MHRxOMTxkKWzHrin4g+si3rP6B6xQFZSykZoxI1gh8tv6By/EiVOVUbADQD702FJ3GJGMVU2AHBwJOBKk6L9dXqcDE/HmgIZqGOBqaYKv9NH/2Z98A9bccWw+bzzhmWmnz7MOHJkGD7JJAPMMde+Ot984Y/KQ97fqsz8Khvq8+9NqcpukfytELjnCp07OQIlIOBVthBwA6CFRPaUSHhWHKtsAOwlaGijEjMR7Y8VBHX06CbmPRvLmEFAwOSTThp+tuSS4eJ11gmb6aM/hc65noTJ+xWVuWTttcOeSywRRqYom0R+5DxsorSXZDK//02l94qdHAFHoAIIWD9cFWhC6SpYh/8fVwusITYlIhfCgefHESUT7a+u0cC+LhwY7VFiI3ruDOnvsNBCYfgwfCuzyWOE4JsLLxxOW3XVMPPkk2cTkl+puySa580ugUybYPzpkpMjUC4CXvtHCLgB8BEWWY+sBkBVe/987Joe7a/1m+Ar/Z3WiSVdctppwz9XXz0sOg3uBBZJH5VdfoYZwrlrrhk+FlHmR9JTH7FhkAfuSQ2bF3AEikfADQA75v1qALDWFy9fO0Ih1DXaX6vtOKvh3NQ6z5TS8z9xlVUCc/qZBHQpNPsUU4TjVl65rJEAVnO0AvesIzU9cI9AcKoiAq7TYATcABiMRvrjOVRkLrGFWEJjKZ9H2Y0llLl6JWbC6xuvYKKImYWVJOBL1nqZp//zxz+ey8e/pdscMgKO+sQnwohJCvuz5pkeovoXErOs0wP3CAgnR6AuCBT2pqgLICn1tMb/JzrWTSnrzDv7bKqAQDdKotB+klJ3j2+81tWM7PSjxRYLi2v4P7uEZCVX0HTATosskixz9lytwD0YvztLzKNiJ0eg8gi4ghMi4AbAhHikPbMO/+MoRS8qbb155Weu26P9TYjurDo1fVFZ6rfNggtKTDG0/UIL5TUVQOCer6gV9Pg9cI+AcGqLwKd19TgxQYEIDvSyjhnpJGgQf086daoCAm4A2J6C1QComgPgtwWHR/sTCINolUHHmQ6/vfDCJm//tJWOGj487LroommLdcrPFM7gwD2nKuNYsZMjMBSBWXThPPGF4q3EWL2TKWUJLe/Kn+sYfyDCCOuwaPL6hiLgBsBQRJKfg511fXyVDICPqekHiGMRQXOqvr9BkraukCRTpzxE7SN6X6f7eV3fZJ55AoaAUf7VKu+BewSCU08EmA66Vrl6dSAIKHaw8uFkrMSpTAT4iJVZf53r5oNpXctVFQMAK92j/bX/NTLc3f5OgqvrzDZbIHBPgqxRs0w56aRh7VnNo63EqPDAPVGfTF8Km1StIqTzAkqTEr4jOAcnzW/O5wImRsANgIkxSXqFIa2kedvlY0OcO9rdKOEakdqsoxkttQn4wgqCOkb7a7VhcMow5uDzVMerzjxzqvwxM0eoe76Y+risvkUAvxCChqVt4G9UYCqxU0kIuAGQHXirAXCLqq7CXCp/uB7tTw+jA7EqosOt3pcXLzE4T4RVByxz7d1Iz9F0BPAdyoIBPgPmFTbJKvZc7RBwA6AdKsmuWQ2AKgz/e7S/3s96VO8snXPMPcpUvLPgBHfmnpLp1gQZO2fx3llnbPzOOAR4h1iWQ7sBMA7HUv53AyAb7FOo2NJiC7EsxlI+RlmccdLM23Wr8yHd3EXcb2T6CE49fHhpeEwzGa4dpurLs15ManvhAhGYU3XhA6AkE62eqVTKQp69PQJuALTHpdfVZZXB+nYtewTgC2pDLCccAhoRCa5KMQ3UPCcjAv3ix2GEwYt3QYDYIV1u97zFFFusTkjPyjzDhAi4ATAhHknPLENe1PGc/qPHrKQU4o/uyIg1/1qyrhH3I71padRrY8tz83j1XUL0W7QPbtCZ4GtEYaJCWg3F1fJFyqV3QsANgE7IdL9e5/l/LHaP9tf9+Q6++/rgk7THj44Zk7ZItPwR6n41mjIuqF8RYDXTncbG4YhsFOHFsyDgBkAW1EKoswGAx26vYB1JUeGPn6F/c1czaYUl5GMtfOZq73zllcxlrQXvfNX8/X7BqoOXbwQCBIyyNDTXEQCLYv1e1g2A9E94RhWxzlmVNf9P8CKP9qcHmIIeS5F3oqxXP09YhIkuF3Lh6ueYaTJV5UGATPA1prDVACDa5AyNQatCDXUDIP3DYP6fYfT0JceVYL7shnGHhf6POzobdJjXho3X+gKlfxL3O7FhU+Y2Xvz002FMCX4Ab7z3Xrj0mWcy6z2+4N3jU08cgW4IXNXtZoJ7vE9zmgZIUHuDs7gBkP7hfzx9kQlKPKCzMoZWf6F6rVMXEjFAdGu31hHGjJK+JgI2ZW4gH/+zn3gic/msBf/52GMxDA+T8ZNVdy9XOwTY4OdJo9ZuABgBzFLcDYD0qFk/omUM//PH5dH+0j9rSpjjNRx+331h7Ptsqoe4/Pld1UWdxpow7q40yvDizUHAOg2Qix9Ac+DP1lI3ANLjVjcDgEhdx6uZlmAdKv4hsYLgnx+e9f8B3XeTl/NDr78ejn6AgZ9iwDri/vtDhBUAt0vbZ8VOjkASBKwGAHuRjExSkeeJh4AbAOmwxPlvpnRFJspd9AgA226i90SKZLjAUF8/RvvrBgVRH80fwt/dfXe4+cUXu9UT5d6NquNA1RVB2EURZLiI5iBg9QPg42+dXh2Ctp/2QsANgF4ITXh/pQlPU5+xXO7W1KWyF9hYRdmZT4mZGMMmcmCTgsOsLdTwAVhLqYnefu+9sN3114cn3zTFFeqqwzNvvRW+qTre0RRA14zJbp6cLJvncgQGEOC9Zn03+DTAAJTF/ecGQDqsrRbqbaouvy+AhA8iov0dNejcerifBFwhbgKxC95paujF4kXFUeg5faC3vvba8FQORgCGxRbXXBMwAiIoO1oybhI7OQJJESAcuNVfZpWklSXJ53l6I+AGQG+MBueoy/w/y2qYq7dOV7TafqMO9hb3O+En8T01Eu/3LyuNTne/+mrY4PLLw00aqo8lnGH/DS67LNwj2ZFknhVJjotpFgJWPwCclXl3NQu1ElvrBkBy8Nn8Z7nk2dvmLGr+36P9tYW/68UVdJceDDskTqPj3IiRgE2vuiocpLl61utnrQhv/8PuvTdsJlnPv/12VjHtyv1AF/kNKXFyBBIjYPUDIBjQ4olr65rRbyZBwA2AJCiNy7OUEhzClGSmIgwAj/aX7vHwsT9ERfj4YwToMH9inv73MgBWu/DCcMJDD4U0hgB5T3r44bDmRReF/e+8MyArssYjJO+PYlaPxAocJXFOfY7AdWqfdfcrRgEkxqkIBNwASI6ydfj/FVV1jzhPYpTiBFUQ66V9vmT1c7Q/hvnvUht3EjP8r6RYYjRgj9tuC8uff3749g03hBP1Yb/lpZcCPXp6+DDHXMNQIA95f3zrreGxN9iKIVd9vybp14oXEjs5Ar0QYOMs/Jx65et2P4oB0K0Cv/cRAm4AfIRFryNCAPfK0+0+4X/xpO+Wx3qPaH+sp7XKoTzR/rbVwQfifiOWRZ6nRuHoh8OfDsulVsTAn+jDvuHll4flZBAscNZZAeaYaxgKRBUkb4HaLq26bhZvInZyBHohYJ0G8JUAvRCOeN8NgORgWkcA8h7+x4N29+TN6ZnzW8rxlLifiBGSndUgeimxdkSUuL4ngkmdrlbiH8GeEjp0cgTaImB1BMQ4n6ut5MQXPWNSBNwASIYUL0Dm1pPlbp8rTwNglKo8VhxrGPsYyTpD3E+0uhpzi5jASFMpdUqHAN7ZrJAgQBBLTNOV9txNQSBG+OiVmwJW2e10AyDZE2D9vxUrpgCS1ZY+16EqsrA4Bj0kIbuK+4WmV0PouV6mdAmxkw2BNVWcZaH+khYQThMh8LSuEDFUSWYy+QFkrrWBBa0ftaZAZp3/f0xAWXfLkoi2RLQ/IvS1vZnyIj4KX1cZa0QviSid6LFuJS3uEdNz9d+6gIhEc0oOQaFiTjlJpFOfIOB+ADV5kP5STPagGAFIlrN9LpaYtb9juzqLih8hjkW/kiBe7EpqTYtI+wvFx4lnFjvFRwBfgN9I7IlipqCUODkCAwhY/QCWlRSmXZWkJc+fBgE3AJKhZXUAzGP4nx4u0f4wApK1onsuPL336Z6l8neJ08BKCHayW6fy2vaHgluoGfy+F1Pq5AiAgHUEAF8m66grejj3QMANgB4A6TbDnbAOM1MeDoBEatsgs0YTFmRB+Vd1ic2KlNSS8OofLc33ErOzmJJCiKkdsPtbIbVVsxI+/tdItQ3FTo4AsTWsW19mWg7o0KdDwA2A3nhZLVHm1WNvrMKKhAN6q544B6FfmStPXKBCGWeXLkSsY10/S4h0WgjxXI9UTXz8Tla6pfiX4qbSdGr4mWIcLpke0KFTQxEgdoh1GsAdAQv48bgB0Btk6/z/naoiplMda9lPkMyY0f7+LHl1I4YJce67W4oTsU5JYYRBh2G4o2p8VQzx0mP6YTOdvCyuGqEnOzrmqRvTUjyTf6vx7nshEBpMVgOArddTGpINRjtj090A6A2cdf4/9vA/Q9wxo/1tIwj4eCmpDdF+HCvpbRLLvyjF+YgSSIiPP0vh2tVLdEGcmGKsh24nP8s15mTRaU8VxqDFR0KHuRH+Fy0jKbdKXHClEeA3Z1GQWB3LWAR42d4IuAHQHSPw4WPTPVf3u3youudIfpdofz9Onr1nTqL9sW63Z8aKZMDbHM/z66RPYRv3qC7oHP23pJiNg95T2o0e0U3Wy2+ttEx8mYfdRTqgC/EddBju138YMAR70mFuNLck8xHwpYICooGEgfyWsd2p/ACMdTWyOB+4RjY8YaOZa7f2MPGQTlhd12wsi2Hon6HvrhkT3mQFQZ2i/bFxz71qGx+UWBhIXE/iw4mz5eeVk3gOShIRoyr4Jiyq3HuL+RgrKYSoi5EifCIYJcFfYXDFvJi304XviN8R50UM4WKwgUOsKau8dHW5cRF4W+IwApRkJvcDyAxdsoJuAHTHyTr8j3f9Hd2rSHyXELa80BMX6JKRSF30DLtkqcwt2oyDH0PrRW7cw4qIXwsFev3Ur8NMxLQBH+N5Vfr7YjykleRC/5NUpijmU4rRwQ6UOuxIh+vOGuI0ho2ypyZ8NHxXwdSw1b4AI0CWRqQYAbBU09yybgB0f/ZWA4DY82O7V5Ho7heUi7l6JWZi+JoXckzHRLNSbQSM0LU9xCztY4mfDgsj5u+XU23UjxGnQzO9LgkHihcXLy/+nRjjkJECHWYm8KGXTWhejBWmKNI8W6aomE4hxn9mJRIUZFdBRsN8qWACsPoki9URkBU+dAD6BI7qNcMNgO7PxGoAxHBhitZGAAAQAElEQVQAZOMVlpt11zT5XXq1rNlOXqL4nPRKMZ6ITEhwn6I0eEEVsQUyc+b0pnWaC9G2H0oyH0UCOX1Rx4wSEEuAjyQjNC/pGsPzGJAcP65zPtanKN1XzIeU38ZSOv6JGL8IJZnoOZVaX8xvw2qQSExHai0VZDVCkdM4HRXyG7kiwHvG+ntKNAqQayv6WLgbAJ0fLh8eXtCdc/S+wwu7d67OOVhWdbRuzySOQUT7Y2g4hqw8ZLQ27rlUwukpKymEeEnhX8GafnwjOC+kYlXyvPifYp4LUfUwOhfU+QxiAhqx7JNjnOpYGrW5rv9MfLb4GXEsYmSIEQ98HTA4YskdKoffNAbLxbqBAaPEqU8RwBeFZdCW5rkfgAW9HmXdAOgMEMO0vHw75+h9x2oANCXaHx+FsjbuuU+PcT0x9dMT1mGj6Vy1HiMk76WCjLLgJMbUhap06lMECvAD6FPkCmiWGwCdQeYl2Plu7zt8TB7una1jDlYgNCHaX1kb97wp5IncxxB63vPfqqpWVNRSQUJss/kUKztqBZArmxgBqx8Ao3IzJq7NM6ZCwA2AznARMKXz3d53LL1/lk+xk12spVMXSN2qRftjioXIefQ0CRwjFQsjphhw8qN+lisVVnGNKmotFSTaIb4IeanObx0nRt9VMC+Ey5VrNQAYHST+ScdW+I3sCLgB0Bk7gqV0vtv7jsUBkJ6pdQSipSFzzF/XSZHz2qquK62tuzjC4fjGPLdOC6GnVAvBeai/rnsfqAmFEg6ovIAto1lJFMb/AQdIenxJ8nueeiCAQysOrBZt3Q/Agl6Xsm4AtAeHIaf5299KfDWrAcDLNuaQKNH++PAlVjzHjCzrISgMDmAEyMmxqglEEwiHDxnTKtQ/wU0/6YkAYX0ZEWMkqWdmQwY+/qxm2MQgw4tWDwFWA1i06rISwCLWy7oB0P43QO+foaf2d3tfpbeNg1PvnBPmINTtsboUa4kU4V6rEO2P39kOalcZG/fcqnoxqhjKJiiPTp0yIMBI0udUjtEpDCod5kJE3jxdkolgyPSADp1qjoB1GoBw7JPXHINKqs+LuZKKlayUdfgdJyrWlKdtxqEqsLA4BhHCdtcYgowymGsnCtwRksPLXUkhNEa1sG8CLw+LP4bEOI1HgKWC+E0QgyDvpYLsKohzpi8VHA9+jROrAcA0IX/HE0HgF2wIuAHQHj+rAZDlg7OxVPmGOAbRQ2PeP01EuBj1DpbBaAbOXczrWvEcLDfJMRv3MJy8vzLz0VLiFBEBlgpi2GUZ5Uqjhi8VTINWdfMyCmd9F7kfQA7P1w2AiUFl6J/5zonvJL/CRy957hCIBkcPOU2ZbnmJoMfyqm558rxHMBli3uPLEGs6I4m+jHpk2bgniWzPMyEC7Hi4ui4xzaQkN/KlgrlBW5hgjHB8OywVtjEALOK8LAi4AQAKEzKxp62R99I4AGJwEH0OI2BCTbKdEe1vn2xFzaXAjo1zzpIkItcpKYTYuIcY+ERupP5CKvVKQmupICsriKuQFyT4AjCa5EsF80I4f7nWaQAcAf17Ffk5OaATA4oD4MRXk1/hY3Rb8uyhH6L9ETGRXehod9Eb9xBpjOFo6mfDnRTQe9ZICLCygtEAXyoYCdA+FGM1AAgTzrTeh9D4gR0BNwAmxtA6/M98V9LeEMvS6h7tjxc/a/oPEpRTiYsinNB2UWXME+e5cY+qcEqAAEsFcdTypYIJwGpgFhyB2djK0nSfBrCg16asGwATg2IdAUg6/M+wZp2j/WGRs1TrMkG4hLgoYoklG/cQR4D6cXgsqm6vpzsCrHxhV0FWX+T5XFhN4ksFuz+Lqt1lVQ4jhBa9BhkAFjFetoWAGwAtJMalDGUvO+4w8/9JDQDWU8fyjmeNNl7/fBwzK56wID4LbJxDJD2WahX5G/KNexI+pBKz8Rtk9YUvFSzxIVS0aqbrLKrhB2Ap72WHIFDky3tI1ZU8xYmMGPUW5ZIYAASmwUPeUs/gskVF+/ONewaj7sfdEPClgt3QaeY9qx8ATsZzAZ1zHATcAJgQR2uP/BWJu1fcjUbpZt2i/WEUEQDGN+7Rw3NKjIAvFUwMVSMyXhmhlStHkOEixiPgBsB4IMYnVgOA9f+95j7rFu2PjXNwbPSNe8b/SDxJhYAvFUwFV19nflqtY3MgJZlp1RAyl/WCQxBwA2BCQKwGQK8IgHWK9jd44x6G/idEKr8zDCjfuCc/fMuSzFJB5nB9qWBZT6Aa9bofQDWew4AWbgAMwDDw39T6n2V5SjITIwCdChPopw7R/vhN+MY9nZ6iX7cgQJAqXypoQbD+Za1+AMsKAt7VSpysCPCyt8rol/Ks/7fi0ckAwHO+DtH+CKjDel0MFZZaFfVsWSLE0jE+Dr1GUYrSyevJBwFfKpgPrnWRah0BILS4dal2XbDKXU/rBy93BQuswPqjelS6PiluR1WP9odjIqFWMWCs0yDt2t/tmm/c0w2d/rznSwX787kmaRV7hLBsOUneNnkGLjGVNHDg/9kQcAPgI/wYAfjoLP1Rp+V/TCtUOdqfb9yT/ll7iTgI+FLBODjWSQrGH6OMFp09IJAFvUFl3QD4CAxrz7edAVDlaH+sqWXjHN+456PfgB8Vj4AvFSwe87JrzOwHMF5xlgLybh1/6klWBNwAGIccwSXmHHeY+f92BkAVo/0R7ZCNcwjL6Rv3ZH7cXjAiAr5UMCKYNRBl9QNgynKZGrSz8iq6ATDuEVl7/yxdw8N5nLRx/1cx2p9v3DPu2fj/1UTAlwpW87nE1upGCcToU5KGJsjrfgATwJHtxA2AcbhZ5//Zje61caIG/sdCrVK0P9+4Z+Cx+H81QABDmtUgvqtgDR5WRhXfVjmMACWZyf0AMkP3UUE3AMZhYV0BMHT4vyrR/lh+6Bv3jHvG/n99EPClgvV5Vlk1TT0NMKQiRjOHXPLTtAi4ARACGKyQFrgh+QcbAFWJ9kf0vgul53HimcVF0ZuqCN+HpZReJHZyBLIggLe47yqYBbl6lLE6As6mZuLIrMQpKwJ8/LKW7Zdyi6kh1qA3LQOgCtH+fOMePVCnvkGgtVSQGBV5NmpNCWdYGg9zHTrljAAGAL5TCatpm839ANrCkvyiGwAhWB0A3xDco8XDxGVH+ytr4x42+dha7af+e5Q6OQIxEWCp4BoSeIw4T5pTwq8Q7y52yheBlySeoEBKMpP7AWSGblxBNwCC2QC4SVCOFZcZ7a/sjXsWVfvx4Fbi5AjkggBe49tJMoYm00w6zIVYX05UzBMlHWdeJU45IZDYD6BD/T4C0AGYpJf73QBg7ns9gbGT+I9i5sRvV/qA+EUx3qjfVGohhiZjR/v7oRRK0pMmLvb3lPdu8dfERRKGD86TO6rSV8VOjkARCGBofkoVPSbOk7aQ8GvEC4md8kGAaQCLZKZvZ7AIaHrZfjMAptQD3Uh8kJgP/TNK/yM+REwP/dNKcU7DeYSlcSN0bqVbJOAEMXUrMdP5kvAncS9iqRQb5xysjFYfBolITHzsCSTEx58508QFPaMjEAkBfvc47ubtZLq09MXA31CpU3wEEhoAHStm2tWnATrC0/tGPxgAtIGhIHawe0pNPlPMB4oPPT8QneZKRNPjYxyjEjbJ2FaC8IBW0pYYlmSI8jrd5SWopDBi454lVRsG1XtKnRyBshB4ThUzuscuklZnMonqSNPpDu8UDG2mB3TqFAmBByXncbGF3AAwoMfH01C81KKTq/Zvie8TXyneQVxkT1jVDdBmA//H+Y82YMR0krapbtwrxkmJ4X8dFkIPqZYNxGwclPfQq6pxcgQSIYChzFLBLyj3y+K8iI4EU22MzjGtmFc9TZTLNEvXdve46QZAD4C63a6jAcBQ+25qFNbj4UoZzldSGsX6ELOC4J8dWkEbefmcqvtziIuid1XRr8X0+tk4SIdOjkDlEGBDK6J5sr9FnsoxhdjyfcmznibJtk4D8NxHNgmwmG2tmwFAD5Swu78TCHi+K+kLooe9S5uWtDbuwZ9h/Tb387yEh+5yqmAPMUsdlTg5ApVF4H5ptpI476WCc6sO/jYYhdOhkxGBHgZAT+l8/DECemb0DBMjUBcDYF6pjpUPz6fjfiLm0rdUgwbvJaDTwLrnW3WAQyPz/joshAjDih8C9WNsFVKpV+IIRECgtVQQh19W+EQQ2VYEvgD44bAigRHJtpn8YiIEGLUZ+u5LVHBQJp8GGARGmsM6GAB49eNpT+8/Tdvqknc/KTp4HozVCTgcXarri4uLIuZTWc3A0hqmIzgvqm6vxxGIiQCraNiN8+GYQtvIYuktK2H4m2lz2y8lQIAYKjg0t82a8KIbAAmBGpqtygYAQzt8CJkX56M4VPd+OGfns33GNwRHI9+4ZzwYnjgCRgT422J1ju8qaASygOLWaQBWgVX5W1YAhNmqqCpoBHegB4znLR/GbK2rdinm1b8qFXG0W0Lp5eIyNu7ZU/Xi5Jf3mmpV4+QIFIoA01mfU42MsuU5osXqo9NVz6/EsZyCJaox1MEASNx+Oog+CpMYro8yVtEAwLmPj3+/b8rxAz2GR8W/EONZXPT2lmCMkx8vx3ekg5Mj0I8I4GODkcsUIvHn82ojHRUcZi9WBbOKnZIjcK2yMhWgJDP5NEAG6KpmABBTnvkgInBlaE5tirCkj48/TnZ7SWumO5QUQk+qFmIX+MY9AsKpMQiwqyAbf+F0lmej2VWQ6IFEysyznn6SPUaNweFZyUeU8sgNgJSAkb1KBsBcUoj5unmU9jtNqwYSVW9+pUURPaHDVBlDZacpdXIEmoYASwVxDsR7P8+2s1SQKT0CleVZTz/Jtk4D4AfQT3gU0paqGACE28RCb8LHnwfLS4i0KMa6xkJmUyRi+RdVr9fjCFQNAXxv2FEQznNXQUb1CFTmuwom+wUMMQCSFRqUi2BpdCIHXfLDXghUwQDgD4WPf78P+/d6Fnnc52PPvgh4Q7OBSh51uExHoI4IMAqwlhTPO7S17yookBMQwZUSZOuapd/9xro2PsvNKhgARPUrukecBau6lWGKAe9+37inbk/O9S0KgetVEY6wTD3qMDeic4Oj7ya51VB/weyBwjbtAy3J+B+jnBmLNrNY2QYAfxDfzRv6qWaaJiy54SfD+nt9NWx5/G5hp0t/HXa//bDws/uPGmCOuca99X+++UBeyuStV07yCSvsG/fkBK6L7TsEfKlgdR6pdRrA/QBSPssyDQDC+x6dUt/E2aeYblT4xNbrhO3P+nn4wU0Hhy8d+s2w0jbrhoXWXDLMuMBsYYppR4VJJxs+wBxzjXsrbbveQN7dbjwobHfmzwZkICtxxeVlJJ6Ab9xTHv5ec30RwEGWpYIbqwl57yrIUsF/qx7fVVAgDKHxBsCQq8lPl1HWqcROCREo0wA4VDpOJ45K08w2faAXv+u1vw+f23vLMOcy2Rzthw0bFuZaboEBGcj6zM82D1PPGl3duF4NhgAAEABJREFUWG2/UoIYyuTlgpOTTp0cAUcgJQLsNYK/TN5LBT8tvZgS8KWCAmIQWf0A2KOBDaEGifTDbgiUZQBsJKUIzKEkDk0yfJLwyW+sG75zyX6BXvyIKUfGESwpyFp5u/XC9y7fP6y1y0YDowa6XAUisMkuUgRnJmIK6NDJEXAEDAgwD72SyvuuggKhYLpL9T0ntpBPA6RArwwDYErpxw53SuIQw/cM9X/2F18NI0dNHkdoGymTTTEirLXrxpoa+GmYYb5Z2uQo7BJhTY9VbYuI2S/hfaVOjoAjEAeB1q6CrOP3XQXjYJpECu81AsElydspjzsCdkKmzfUyDAD+qKJt6bvYZ1YIO5yzV5h9CVwKQiH/Zl9y3rDjub8IH1uPUfdCqhxcCVbyp3ThG+LnxU6OgCOQDwJ/lli2xc57qSC7ChIOdyHV13AKVj+AlQQgUwFKnHohULQBwLj893splfT+sl9eLXz58G/n2uvvpMvIqaYIm/75u2HFLRh975Qr6nWClvxSErE6iDKmQydHwBHIGYHWUsH/5FyPLxUcB7DVDwAnQJwBx0nz/7siULQBsI20mUNsphW+ulbY+HfbBub+zcIyCphk0knCBr/aKqywOeG/MwpJVqy1cQ8bB+U5JJlMG8/lCDQLAZYKflZN/rE4z+m21q6CTOs1shcrfG8UMwWjJDO5H0BC6Io0AKjrBwn16pqNYf8N9mXUrGu2Qm4OGzZswAjIaTrAN+4p5Cl6JY5ATwSYn95fuYpYKvg91cOGYU1cKkgHByNAEGQm9wNICB0f5YRZzdnoJi9glYLz3cZ/UM9fvW+rrFjlGQn44kE7hpkWmC2WSHoZR0qYb9wjEJwcgQohcLZ0YYiZHf90mBuxVPBmSW9QeFu1dhxZpwFWHyfG/++FQJEGgLnLPunwScfN+Wv+vVfDir4/YtTIsMmh3wzoGKHuMyVjRzGx/JU4OQKOQIUQeFS64PxzvNI8aS4JZ/rvW0qbRFZHQHpi5s5mEwAvygCYQmB+UWyilbf/TKHe/mmVZXUAsQjSlmuTf11dy289o4Q7OQKOgAkBAm5tLQkwDro6zIVwnG7EroKD0MMAYBR00KXUh+4HkACyogyA9aTLtOLMRIS/Nb63YebyRRVcc9eNwlQzm5qKqlPrP4YAlTg5Ao5AhRFgFIDRgLyXCm4hDK4RLyTudyLAGcudLe10P4AE6BVlALBuPYE6nbOsssP6gYh8nXNU4w6BiFbZcf0YynwuhhCX4Qg4ArkjwFLB5VXLReI8aWkJx/eg+j0hKZqOJspt9QNwA2AiSCe+UJQBsPbEVSe/MuX0U4Xl819ql1yhHjlX/OqnwhTTjeqRq+dtApD0zOQZHAFHoBIIEJQLy38/acOKASW5EBuS4CP0K0mfVNyvxDSApW2Lq/AMYqcuCBRhAMys+pcUZya28q1D77/VQBwC0bl1njHlBzxjxrJezBFwBIpHoLWrIHud+K6CKfBvk9U6AjBMMn0UQCB0oyIMAIbGeBjd9Oh6b5lN6vccl/niKl3blOAmmH08QT7P4gg4AtVCgKWCvqug7Zk8pOLEQVGSmer34cjc1GwFizAAFs2m2rhSo2acJsyxdLStA8YJLeD/OZddIEw1E4G9TJV9zFTaCzsCjkBZCPiugomR75jROgrgBkBHaMfdqLwBsMBqi4Vhw+gMj1O4Lv8PGzYszLuS+fttMp7qgpXr6Qj0KQKEtN1Obct7qSBhg3+jek4Um52PJKMqZPUDYATVl1N3eZpFGABsWdtFhe635lx2we4ZKnx3ruXMui9c4ea5ao6AI5AMgSKXCvLRXCiZWtXI1UUL6wgAMRSYiulSRbNvFWEAEJUpM8ozLTh75rJlF5xpQVPTUX8m/nN2BByB2iPAUkF28sx7V0HCFN8ktDYR151uUwNeE1vIpwG6oFeEATBVl/p73pphvll65qlqhhnmm9WqmhsAVgS9vCNQHQTYVXADqcMSvjyXCk6jOk4XU8+kSitMXVVjVcV1XXP0vukGQBeMijAAiGrXRYXutyafZsruGSp8d4ppzdNxLKHcUk1kJQXhlHXo5Ag4AjVGgI/aT6W/LxUUCAmIKY0E2TpmwQConxNZx+bEvVF5A2DkVPX14Rhh132EHvcJYob0iD3OspgLdX6weAcx8a7NVobkODkCjkCxCLBUkOF6IvvlWTMhxSu7q2CChlv9AAgGREyVBFU1L0sRBkDzUM2vxbNLNH/Q31N6hPhK8etiNwwEgpMjUDME2FWQiJ9H56w3uwpeoTp2F9eNmAIYa1SaUQCjiP4sXoQBwAcqM3rvjHk7c9myC77zOquACtHCDYNCYPZKHIHoCPCS2F5SG7hUUK3uTWOU5VaxhdwA6IBeEQbAqx3qTnT5zZd5/omyVi7Tm6+Urns7w+AVAXWfmHjixC1nl7EldO7kCDgC5SHgSwU7Y2+dBmCqtLP0Bt8pwgAwjQC8+PAztX08FdUdr2DWCeOE9BOBS/CQ0UqfEOOcZHLalAwnR8ARyIYASwVx+MXPJ5uEZKVavgel7iqYTNWBXNcM/J/9vwVUdA6x0xAEijAAnh5SZ6rT5x80FU9VV+zMzz9QK935A9lHGOAwtJRSJ0fAESgeAXYV/KyqZQlfnksF67SroHUEQHAGnwYAhSFchAFw75A6U50+fgshtVMVqUzmx2++vzK6pFCE0YFLlN+jEAoEJ0egBARaSwU/r7pfEudFLI/bQ8IvFpuDlkhGCkqV9Snltn4I3AAQiEOpCAPgnqGVpjl/6Oq7wgcf5GkIp9EmeV50fvi6u5MXqFZOAhAxJ8kLIotmlMOv4HMqDHPMNZ06OQKOQEIEzlW+ZcV5LxVcU3XcKF5ZXFWyxgNwP4A2T7YIA8D0FRzzwqvhydvYGbKN9hW+xMjFmBesUSxLbeBKqj3tHCH+A79UucfF+BXwAoM5fkzX9hKbIkOqvJMj0CQEWCrIBxqDPM92s1TwUlXwLXHulKECqwGA34O/e4YAX4QBcIvqNHXhb/u71QdEGhRMt/+jfjq3gYgVAm0ut72E3wCxu3+uu/gTKJmA5tTZL8R3iomJrsTJEXAEEiDwpvKwTJCPc57rotk853DVhbFRtRCsVj8AdkykU6PmObUQKMIAeE6V3SHOTHecdV145408f/eZVWtbkNgFo8/Gobft7TpdTLqT1vxqFH4DpDrsSnPr7kVifA2UODkCjkBCBP6sfAQOYjRNh7nR1ySZHkxOf6OSnp7uUhH2UlCSmXwaYAh0RRgAVMnHgTQTEwvgpr9dnqlsGYVuPOnSgM5l1B25TuII9BLJb4iNR/Ab6JW3dZ/wnCfpJKtfAHUS3hMnqc9IDvOk9Y0ZrQY4OQIJEaBn0cSlgowiY5QkhKltNncEHAILL9Ihl3I5ZW7JJPiaI88P9KxNQgoo/PaYt8I1R/67gJoKqSKJE8MXpMkK4rT0CRXYWJyG2PcAHwPmRf+ngmeJAZtpJuJNDA1wxFSDb6IkkJz6CoFaLxU0PAmrHwBTAEwFGFTor6JFGQAEtjBFBHztmZfD5Qf/q/LoX3bgmeH15wi2V3lVkyiI816vfJv3ytDl/le63Bt6i5UE6IOPAf4EQ++3C3BETAOMGDcMhqLl53VHoLVUkIBeL+fYGEbpWCqIoc3upDlW1VP0VT1zdM+AEyDOgN1zNehuUQYATixnWHG97pgLwlOjH7GKya38k3c8HP77V2yd3KooWvA5CSqkJ58gW9ssn2x7deKLC+oSGx/NpzQtuWGQFjHPXycE2FUQXx0ccPPUm03I2JU06d9sB11Ml1mqyN4JFiHuBzAIvaIMAKrEs5Q0M7839r1w+ncOD2+/jj2RWUwuBd967c1wxnf+FN4f+34M+UTk+40EMcRNAIwoQiUvDeFwc1SCArMkyNMpy2ydbgy6Tg/kFJ1PL45JbhjERNNllYkA7wjW8JvfsT0agQMvzlisRuiRNZfbeIJjBFiEux/AIPSKNADYjvLBQXVnOnzx4WfDP3c9Krz/XhnfxPYq89H/5y5HhhcfebZ9hnRXCZzEenni9DO8hycuQ1fMs+OdW4RhgMPNDlKb4XMlXckytZNk6BI/AXo4XZWIeNMNg4hguqjCEKBXVPmlghHQsE4DuAEw6CEUaQDwUfntoLozH959wS3h3D2Pr0SEQCL+nbPHceGei6w7Vn4Ix6E6AislHxJ/3Mxns3FP3oYBc4vfVc3/ECchS6CnJGU3S6JEAXncMCgAZK/CjEBrqeCjZkndBdAZwSufDkr3nHHvWh0BiVHC5kBxtaqptCINACD6q/57Umymm06+PJz942NLHQmg53/27seGm09lcMPcJAQ8o/+OFSel2IYB84jrqHKCgShJRExTJMrYJlOSsqu0KVelS24YVOlpuC4gcL3+Y8Qwb4ckHOoIU5wwYqi0shNGh3X41/0Axj+Hog0A5nB+P75uc3LzKVeE0755WCk+Acz5n7rjoTE//uCxn/4bI7ZSEsOAuo5SRceJ8aznQ8uyOeb4dCkxHaGcWeY+CBB1tMr2ojTxBXrJKvK+GwZFou11DUWgX5cKvqiGEhRISWbyaYDx0BVtAFDtn/TfQ+IoxHTAERv8otDVAXj7H6k6Iw77gwXLG/iYcpwXDzYM9lQlzPN/XSlOh9cqHTr1oEs96TXlYMogTVnyflPlkvgPxDCIVFVlyA2DyjyKvleE6byfqpX4EiXxt1HWTISjbs+lgpkkty/kfgDtcUl9tQwDgI/Q91Jr2qXAiw8/G47eaJ9wwb6n5hosiCA//9n3lHD0xvvEcvgb3KpddMIIiZLaEZEA0Z8XTi/lybOTMhXhY6BqakNuGNTmUdVO0X5bKmj1AyCKKNFIa/cgYytchgFAG1hfHjWqD0sErznq3+GQNXcPpDGjBiKL6H6HrrF7uPao/wTm/mlERGYu/MyI8soQdYgqZa0wfgQ6bEt4Sq6tO38UJ6V/Js3Yp/ncMOjTB1twsx5QfSUuFVTt8cg6AsCIhU8D6HmUZQCo6sAowEscxGSi8DEScOAqu4XzfnZiePyWBzKtFsC7/7Gb7w/n/uyEcODKu4ULfnVqeP35JCPWqVsDBgyhpy5YwQKXSSfilONPwFLGv+gcxseAlw+OSWk9JimPv4BEOQ1CwA2DQWD4YSIEGH3th6WCTCE/majFnTO5ASBsyjQAWKayjXRgPlhJXHrz5THh+uMv1nD9vuF3K+wcTv/On8K1R18Q7rvs9vD8g0+HN156Pbz37tgB5phr3KOHf/q3Dx8oc8wXfhVuOP6S8OYruU5Db6+W5727l6oojPDQxZ9gb9W47XjGx+A6HXNPSSpi7hIDKZffSSpN6pHZDYN6PKcytfyzKmdXQd7BOsyNPlwqmEMN1lEANwD0UMo0AFR9YNiboeOQ578xL7wW/nfO9eE/+5wcTtr6wHDYp34SDlh2p7DPQtsPMMdc4x5z/P8794ZAmTx1Gi+bP8S/jz/2pHEsc9UAABAASURBVDMCp+lWUh8DZXVqg0Anw+B15fW9EgRCw6juSwWvNj6v1VSeTgV+V6wsYIrkdl1j6SRTlPgprafzsvc/kAr5UdkGAC37kf6zWnMSUTtiuHzn2mldnsIYiuuq+m4+BrrtlBIB3gELqQye4gSZOlHHBJ1yw0BA9DkVtFQwTBdCoLP3qxAChqgSM8X6ZoyQJoQZJzjQUjrGj+nbSnnf/EcpsVl45xyk48+LpxD3DfHHX3Zj3pECBJIYrbQpdK8auomYtitxSojApcpHrAKsd6YYztI5lnuWqQUVdeqCAO8GNwy6ANQnt1iVU8elgvTWXyvgGQxTHUuL6azxvnlax8eI1xRzT0l9iT/yKmiPI9z6UoS18Er6mmgjQ0sMO/V1Q3NqHMN2DP/hZEivlY9U0Xsl5NS0WojlnQHmYO8jBrV4ZImUzG2p4JDa6WHfpGufEFuInjvvUouMLGWnUSF81xjBvV/HxDMZqbSWxB9zVRR/QorwYSzjoarqQghnP5bB9XMbCwFySCV4NzNszfA1HyU+Tnyk3DAYAlSOp7xLwBzseQY8C56JTyXkCHpk0YymsVqH6KCRRU8gjl0Fr9CVLLsKTqly3xc/KF5SXCYxbUBgO3RBp9pND/BHWyaAQ+tmaBzvzH6cDrhLjcXzlh+LDp0KQMANgwJA7lEF75hehsGvJWMLMUtIa/cSld79RPzNEB2UjzMOcsa2dSxOr/lw3T1ezEddSU9i2pT36O+Vc1ZxVYgNhtDpf1IIPwEl9SD+OKumKSMBfChjOXlUoX1Yu8xbP1wFZVyHwEuO3im9VHqr9Fr5SPmIQXE/Dt49YA72P1a1PAuGhhkxYGgVpzE3DARMScQKJd7DVVgqyIjBv4XDGeJ5xFWl+aUYfgL8dqusp9QcR/wRjjuq1v/4BLArHZ6XzPlWS7t02hyq7Hiv+5y/gKg4uWFQ/gPinbSg1HDDQCCUTOalggn1X0b5bhDjDK5kAmJkCIe/z0xwtdon/HZvlYobiytN/LFVVUE85HeVcl8UYxAoqRW9Im03FRPxkLbo0KmmCLhhUP6D413lhkHxz6GspYI4+TG/zsgQywiLb7mtRpYWst8JnVjaYpOWU2n+qHISHU0swylYiKTRhOYsCF3ZcIJNcnKuysWXiIAbBiWCP75q3mFuGIwHI6ck41LB1NqwrG4PlWK4/yKleNgrqS3RHpYPXqwWYBAoqRbxx1Mtjdprg/f8F3Tr/8RVdqLDixZHFXS1xqpWU51qioAbBuU/ON5tbhjEfQ5FLhVcPa7qpUrD/ws/sDlL1aJN5fyRtLlc2UvnSjOWfhAWFmdBnVaCnpUWDPXT62fYR6dOjsBECLhhMBEkhV/gneeGQXbY6eQkWiqYvYq+LMl3i/gli1SpdfwxVEmfJLrwEj1YGfkj3lEpHsNKSqF7VCs6zKcUZz+f6xcQTqkR4DftqxJSwxa1AO9C3ik4cPmqhO7Q8nstYqlgdy3qd3deqXyBuDIjAfzopU8tiTWqR0pzLCqWqxytYxzvlORKhJ88VjWwSoEePzrwB6FLTo5AVAT4XblhEBXS1MJ4R7ph0B62LksF2xfwqwEjAB+HSvgE8OOu+zNhmeCVasT24tnE+An8QSnLMGLFiL9b8tgcYgOl1PENpZeIY8mXKCdHIDECbhgkhiq3jLw73TAIoailgrk9yBIEMx1AvIDSVwfwIy6h/blV+ZYk4yewm1I2jSFaFOGFv6vzw8Rs9cjOTjgSsi6fIXs8XFlmiNMekZzOU74jxOxSSC8fS20xnePNyb03dOzkCFQRATcMyn8qvFObZhhMtFSw/MdQeQ1wDNy/bC35sZatQ57188Pko/9HVbKTGGNgWaX8gc6olHCUw5XOIGZeBsuMXj7LT36ra/TyX1bq5AjUGQE3DMp/erxree/0q48BHSl2FSSYT6XembPMMDJsuu4c4fe7LB7OOejjYfSpa4anL1g3vHbF+gPMMde497tdFhvIS5kCfjJ0KksNFjRJAY30KhwBR6CaCLhhUP5z4R3czTD4l1QkJPKWSuuwV8I5IYQVpStTsErKoRmmmSx860vzhqv/smp47Nx1wgl7Lxu+u9l8Yd1PzhwWnmdUmH7qycKIySYZYI65xr2dNpt/IO+j56wTrjx6lQEZyMqpFcMk9y9iQh0rKZ4mKb5Kr9ERcAQqjoAbBuU/IN7NGAb0qFmVcIJUGrxXQpUNA5YKriJ9895VUFVMSHPMPHmgF3//mWuHg3ZbIqy42LQTZkh4Nkyf5k8sMd2ADGT9dufFwuwzTZ6wdKpsTDHjX5aqUKzM/MhiyXI5joAj0N8IdDIM2MFvSTWd0Ne/VEoEzDuVvid2iosA7+x2hgG+SfgxMeXJMukdVO1q4lHiQml8ZfxWWCq4tc45VpIfDZ90WPjOpvOF209ZI9CLHzXFpNEqQ9b3vjJ/uPP0NcNPt114YNQgmvBxgpgGwHl93FmB//NjKrA6r8oRcAT6EAGcaXGg5cP/C7VvU/ES4qnFK4i/Jv6NGM9neoe+ekZg5ECzS+anxQQlw5GZ1VGv6pxYKWWNGLDd71rSIbddBRm+Z6j/D7suHqaeEpcu1ZYDTTn5pOFn2y0crjhq5bDgXFPGrgGjDUM6ttyu8twA6AqP33QEHAEDAvT8PI6BAcAIRXnHtxsxaG27HNkwaKtxbksFN1pztnDtX1cNyy4yTduK87i43KLThuuOXS18fg0WmUWrYQFJYtRGSXHEj6O42rwmR8ARcARCcMOg/F8B7/4FpcaG4iJ8DFiRxc6uPHtVaaftNp4nnLzfcrn2+jtpOc2o4eHUXy8fttkwqv/eD1XfSHFhxI+gsMq8IkfAEXAEuiDAx6HdiAFDo0uqHFML7mMgIHIkvgntDINEPgY99NpC93mWSmzEx/+Puy8ZJp1kmE2QoTR1H/7jpcK2G0UzAliKjs+EQat0RXnY6Up4bkfAEXAEikXAfQyKxbtTbRYfA77U+CZ0kp34OsP+h/wQF5PERXLLyGqBQ3+0ZMzpAEYBwCo3nQcLdgNgMBp+7Ag4AnVCoNOIwVRqhDsfCoQCiG/I+BGD0G0qAedQ9k4xqYTD3zE/X7rUnv/QBjAS8JefLxPLMXAhyWf1hpL8iYeXfy1egyPgCDgCxSHghkFxWHeqiW/LYMPg550yJr0+2fBh4cR9ypnz76UjPgEn7btcQMdeeRPc3ypBnihZeEhRBLkQR8ARcAQqjkAnw4B5afcxMD68vIvvvPkChXr7p20PqwOIRZC2XJv8X9Y1fpNK8iU3APLF16U7Ao5A9RFwH4OKPyMi/O3xDUbHq60ogYJmndHsyE/4wrWLaKkbAEWg7HU4Ao5AHRHwEYPETy3fjN/fYv5ARL58a7FLJxDRrpvPbxcUwqdiCOklww2AXgj5fUfAEXAEJkTARwwmxCPXsxmnHRG22XCeXOuIKXz7L84bImwgtE5MnTrJcgOgEzJ+3RFwBByBdAh0GjHo+1UJ6WBKl3vTdWevRe+/1aqpppg0bLruHK3TrOnSKjiTOFdyAyBXeF24I+AIOAIe+dDyG9jyc3NZipdS9qvrE9PHVDXf5uVMEhIUppIE2TyLI+AIOAKOQGQEOo0Y4AFeo1UJkVEZJG7m6UeEFT6GT9ygizU4/MQS04VZZjA7Ay6Sd1PdAMgbYZfvCDgCjkA6BDr5GEwpMY0yDNZecaZAtD21u1aEzmssN4NV50WtAnqVdwOgF0J+3xFwBByBaiDQyTAoddvlPKGhJ52n/Dxlf3LJ6azi3QCwIujlHQFHwBHocwT6diph0flG1fbRLTIPvp8m9WczlU5Q2EcAEoDkWRwBR8ARqCECBYwY5IvKgnPV1wBYaG5mbEz4MLJjEtCrsBsAvRDy+46AI+AI9BcCtRkxmG7qyWqLfATd3QCo7dN3xR0BR8ARqBcCnUYM6MouqaZsKv6l+HTxneL3xLkSa+pzrSBH4VOPGm6V7gaAFUEv7wg4Ao6AI2BCoHKGgak1XvhDBHwK4EMo/MARcAQcAUcgOQKhk2FAz3UFyfmamDxKstFrb4zNVrACpV4bY9b9tbyb4QZA3gi7fEfAEXAEmoXAYB+DZyxNf/k180fUUr2p7MuvvWsqr8JuAAgEJ0fAEXAEHIGKIZBQnecS5mub7cEnxrS9XoeL9z/2hlVNNwCsCHp5R8ARcAQcgdIQeNZS8z0P19cAuPfR1y1Np+zT/Jcn+xRAnui6bEfAEXAE+hKBxI16MnHONhn/+7+X21ytx6Xr7jDrfk/eLXUDIG+EXb4j4Ag4As1F4A5L0y+98fnwwQcWCeWURecrbn7BWrkbAFYEvbwj4Ag4Ao5AXARSSLstRd6Jsj730jvhxrvMPemJ5OZ94b//eyk897JpAQQqugEACs6OgCPgCDgCtUTAZADQ4hPPe4KkVvy38806v68G3yLOlXwKIFd4Xbgj4Ag4Av2GQKr2vKjc94kz02kXPhnGvPle5vJFF3xdup5+0VPWajGczHMIvZRwA6AXQn7fEXAEHAFHwILA+ZbCL776bjjmX49aRBRa9sh/PBLQ2VjpxcbyiYq7AZAIJs/kCDgCjoAjAAIZ+LwMZSYo8oeTHgr0rCe4WMETIhcedPJDMTS7NIaQXjLcAOiFkN93BBwBR8ARsCBwuQqbFvQ/9fxb4VfHmGYSpEL+tM/R94VnXnjbWhFej5dYhSQp7wZAEpQ8jyPgCDgCjkAIIRMIb6nUP8UmOvTUh8It97xikpFn4ZvvfiX88bSHY1RxuoSAmZJ8yQ2AfPF16Y6AI+AIOAIhHG0F4d2xH4QtfnpLeNW+yY5VlYnKM/S/1V63hrHvRQlacPxEFeR0wQ2AnIB1sY6AI+AI9BsChvZcobJ3i030wONvhG32vi28936UD61Jl1ZhPvpb6+N/36OmWY6WuPt1cLW4EHIDoBCYvRJHwBFwBBqNAF/sP8dA4Owrngk7HTC6EhECifj33f1Hh3OvMm15MBiW3+oErJTkT24A5I+x1+AIOAKOQB8gYG7CEZJgjpAjGeGYfz0Wtt/39lhD7ohMzYxCfFeGyF/Pfix12Q4FHtf148SFkRsAhUHtFTkCjoAj0GgEcGzbPxYCJ5z3ePjKHjeX4hPwyutjw5d3vykcfWbU+AT0/s1LCNLg6wZAGrQ8ryPgCDgCDUUgUrOPlJxoXWamA1b6+lWFrg7A2586Iw77C5LwgP4DGyXFkRsAxWHtNTkCjoAj0HQE6OHuGhMEHANX2/aa8P0D78x1NIBwxKzzX3OHa8ODT7wRswnI2ln/MUKipDhyA6A4rL0mR8ARcARqikBUtf8uaf8URyM88VmDv+Rml4eD/hY3aiARCA886cHwsS9dFvY95r7wzrvs0xNNdQT9Q/+dKy6c3AAoHHKv0BFwBByBxiPwXSEQPaoPUfh2P/SusPDGl4Sdf/e/8N/RL2daLYB3/3WjXxqQsdBGl4QfH3Z3ePZFBi+kdVxisySkD9OcAAAE/klEQVR6/3GlJpTmBkBCoDybI+AIOAJNRSCHdj8pmTuKcyE24/nz3x8Ja2x/TZj7cxcNBBA65JSHwn+ufS7c++iY8MIr7wz05OnNc8w17h188kPhq3veMlBmze2vDch46bV3c9FRQj8Qf12M97+S4skNgOIx9xodAUfAEXAEQjhVIBwozpWee/mdcMbFT4UfHnxX2PD7N4SlNE0wx/oXhanX+PcAc8w17v3okLvC3y95KlAmV6XGCf+DkrPFpZEbAKVB7xU7Ao6AI1AHBHLVcXdJv1LcNCIy4k/KbrQbAGU/Aa/fEXAEHIHmIsD4+hfV/DvFTaHRaujGYtqupDxyA6A87L1mR8ARcAQqj0ABCj6vOtYTPyTud2K+/3Nq5Evi0skNgNIfgSvgCDgCjkDjESBE8LpCgVRJX9IjatXa4miBkCTLRG4AmODzwo6AI+AI9DMChbbtAdX2CfFt4n6j/6lBq4nvE1eG3ACozKNwRRwBR8ARaDwCLA9cSyhcJu4XwuGPjz/D/5VqkxsAlXocrowj4Ag4AtVBoCRNXla964v/KK4zsc6fpX6fViNok5JqkRsA1Xoero0j4Ag4Ao5ACITdI1og3vIv1BAQohxuKr13E5fu7S8d2pIbAG1h8YuOgCPgCDQdgUq0/1/SYllxKbHyVW8WIrb/kip4hrjS5AZApR+PK+cIOAKOQOMRYO78/4QCqwTuUlpVelCKbSDeRIzOSqpNbgBU+/m4do6AI+AIlIJABSu9SDotJ/6BGGdBJZUgPvZs6LOEtDlPXBtyA6A2j8oVdQQcAUeg8QjgG/B7obCAeAfx/eKyiLrZ0GhBKXCI+C1xrcgNgFo9LlfWEXAEHIEiEKh8HRgCR0nLRcWri/kAE1FQh7kSzn0nqAamIxZReqT4HXEtyQ2AWj42V9oRcAQcAUdACLwvvkrMEPxcSj8vPkh8q5h7SkyEjFskgVEH5vdn0/FWYqYjWOanw/qSGwD1fXauuSPgCDgCuSBQU6GMCpwj3XcV4ysws9LPiHcSHya+QHy7GGc9YvHTc4dfHH+NCITkIS9LEOnlz6J7y4vxO2B+v3bD/NK9I7kB0BEav+EIOAKOgCNQYwT4sLc+6BgBGAPLqD3M2c+gdOR4nlEp11huSB7yEoSIXn4dYxCoOcnIDYBkOHkuR8ARcAQagoA3sykIuAHQlCft7XQEHAFHwBFwBAYh4AbAIDD80BFwBByBpiPg7W8OAm4ANOdZe0sdAUfAEXAEHIEPEXAD4EMo/MARcAQcgaYj4O1vEgJuADTpaXtbHQFHwBFwBByB8Qi4ATAeCE8cAUfAEWg6At7+ZiHgBkCznre31hFwBBwBR8ARGEDADYABGPw/R8ARcASajoC3v2kIuAHQtCfu7XUEHAFHwBFwBISAGwACwckRcAQcgaYj4O1vHgJuADTvmXuLHQFHwBFwBByB4AaA/wgcAUfAEWg8Ag5AExFwA6CJT93b7Ag4Ao6AI9B4BNwAaPxPwAFwBByBpiPg7W8mAm4ANPO5e6sdAUfAEXAEGo6AGwAN/wF48x0BR6DpCHj7m4qAGwBNffLebkfAEXAEHIFGI+AGQKMfvzfeEXAEmo6At7+5CLgB0Nxn7y13BBwBR8ARaDACbgA0+OF70x0BR6DpCHj7m4yAGwBNfvredkfAEXAEHIHGIuAGQGMfvTfcEXAEmo6At7/ZCPw/AAAA//9x3UJ/AAAABklEQVQDALgkK4dUTAjNAAAAAElFTkSuQmCC;" parent="1" vertex="1">
          <mxGeometry x="1394" y="750" width="90" height="90" as="geometry" />
        </mxCell>
        <mxCell id="lRhgDuw3gsUNNQDoHB9H-48" value="" style="shape=image;verticalLabelPosition=bottom;labelBackgroundColor=default;verticalAlign=top;aspect=fixed;imageAspect=0;image=data:image/png,iVBORw0KGgoAAAANSUhEUgAAADAAAAAwCAYAAABXAvmHAAAACXBIWXMAAAsTAAALEwEAmpwYAAABG0lEQVR4nO2XvQ2DMBBGbwHvkSY70GUIKOhpqIAmE6SAOqFIJglVZskWF50UJAr+DhuM8T3pkyWL4nuyLWwAoZ+8fARFVSON4CK5CFiAyrbJyntKAjR252HPFFWNU7FaEJ+AlDVWIL7ekAI2BXTOQCwCM/BKgEssAj1FuQFGUW7AKwHnt5AJgW92xjZzvo9FYAYisIVAPvIHtSEQJu8gShqkUVuAA1dgCD8E8oX3+G7JpYGB0p2kf4G0O2/kJbWWQJQ0OJVjrYDzZ8Abgc/phJQ1BNTlhRRtgTFsCBhFBEZQImBYgIsyKdAW5YZTlBvwSsD5LTSEVwIh8w+qRGAGhxcINe7xaguBKdgvqb2h9ZLaG0bv8TYQAQHc4Ae5P0HpVg3nAgAAAABJRU5ErkJggg==;" parent="1" vertex="1">
          <mxGeometry x="1440" y="363" width="68" height="68" as="geometry" />
        </mxCell>
        <mxCell id="lRhgDuw3gsUNNQDoHB9H-49" value="" style="shape=image;verticalLabelPosition=bottom;labelBackgroundColor=default;verticalAlign=top;aspect=fixed;imageAspect=0;image=data:image/png,iVBORw0KGgoAAAANSUhEUgAAADAAAAAwCAYAAABXAvmHAAAACXBIWXMAAAsTAAALEwEAmpwYAAAEpUlEQVR4nO3ZaUwcZRzH8X1va90Trbc9KbTQQsvVAuUo902BQi3SRo0xxjQxxhhjjDEmxhhjjDHVmPRuLUdpi9UKlJYC5WjBoqbsSWG3HMtNOYX2Z+aZndmZ3eWJbsbNxvBPPu+/v808r1YmW77lW77//KyV8hTrebllqFKBf8JaKTdbK+RJMm+5gQq5ebBCgX+lXNEr85YbKFPAHTJvuf5zCrhD5i3Xd1YJd8i85e6fVsIdMm85y0kl3CHzlus9roQ7ZN5yPUeVcIfMW+7eD0q4Q+apW+gsSlnsLLQ87CzCwzuFDvZhkfEbo4CYa81Ef+kGdH+vpPLcgI4CszCQ15EvkIcFTnseZpvTYDqipPLYACZwwSFwoX2vQC7rdi7+InIIw7cqKo8N4OIcA4lb2Q6yMM9oy4L+GxWVxwYsFTjflukgA/OtdrqvVVQeG+AqcK41XawlzUEqtF+pqDw2YK7FMTCV1ZyKWSJF7GYy0fWlispjA5YKZCVhhtPESOTd/UJF5bEB9jhx4ExTAmYaWdONe+wa4ok/P1dReWzAtDCwwR7IisP0jThM3YgViMFUfQz++ExFJVkgtK+loOuQBdqDgLYE0L4CaA8A2pcBbRGgKwR0+wBdPqDLw6O7OZhtTiCRU/W7iQfXGdECUfj9UzWVdAO6Dpqdw/cLwgtIOHR7AV0OoMvGo64MPLgWZROJSU7dLl7nJ2oq6QaQ8GJBeJGL8FwSDn0WoM8E9OmYrNuJyauMCEzwwjFRy7rzsZpKwgHMr77f9rlw4fmCcOZXt4dDnwboUzFRG8aqCcN4TahACMarQ9DxkZpKwgHcd86F57kIz+DDoU8B9Ekkcrx6BzHG+HW7QDDaP1RTSTdA8EDt4dmC8HRROPSJgCEBY1eCMXYliBgltmH0F85W3P5ATSXhAPEDZb9zx/BkPhyGPYAhjkSO/swIxAgvACOXWbfeV1NJOCDXRXiaIDxJFA5DLGCIwcjlLbzhnzYL+GO4yh9t76mpJBzg/ECdw+P5cBh2A4YoDFf58YaqNmHoEseXaHlXTSXdANEDtYWTz4ULjxOFwxAJGHdh6KIvhi5uJKzEBlgvcNaj+R0NlYQDnB+oc3g0Hw7jTsAYTiKtF9bBWrkOg8Ra1nnGGtw8rKGScECyi/BYQXiUKBzGMMAYSiJZL2GggvMir+ltDZV0A1w8UOfwCD4cxhDAuB0D5S/w+sufR38Z5zmi8S0NlYQD4l2ERwrCw0XhMAUDpiD0lz2L/lJWX+kzrHOMp4mGNzVUEg5wfqDO4Tv4cJi2AaZAW+hq9P24GveJp+zOPon6NzRUEg6IdhEeZg8nv7o9HKYAwLSFRLJ8YDnD0fCuv04n3QAXD9Q5fCsfDtNmwOQHy2m1jQpmximGknftVQ2VhAMiXIQHC8IDReHo3gR0+8J8SgHzSQV6CTnrxBO8ukM+VBIOCDU7PlDncH8+HN0bsahdi94Tq9BznPO4zUr0HFsJ43ercLXEZ0m1JRrp/uSDITgJpiCzODxAEO7Hh6N7PRa71mDwkgr3jq1gHWU8xjMcWYGmwyrUFPu4dkDTW12sTpRswPIt3//4/gZZWW7KPYf93gAAAABJRU5ErkJggg==;" parent="1" vertex="1">
          <mxGeometry x="1360" y="360" width="70" height="70" as="geometry" />
        </mxCell>
        <mxCell id="lRhgDuw3gsUNNQDoHB9H-50" value="" style="shape=image;verticalLabelPosition=bottom;labelBackgroundColor=default;verticalAlign=top;aspect=fixed;imageAspect=0;image=data:image/png,iVBORw0KGgoAAAANSUhEUgAAADAAAAAwCAYAAABXAvmHAAAACXBIWXMAAAsTAAALEwEAmpwYAAAI8UlEQVR4nM1aD5BVVRn/gSa6aoX5Z5wRREVSkN137l2VUXCt/BdaqbgSEO6+d857iDOw4eiIjrVmmSv3nLcsm6OUo45ipk4qRDmBFJbNNFRamdDmSKKygKUmKyIibPO791v27tv35z6x3G/mzLy375x7vv/f7/vuApXpIAATAFwMoBHAJQAaABwPYHiJMzUAJgPQAG4AsADATADnAKgHYADcC+APADYB2AFgF4DXAPwewDIAOQBHYz/oPABPAOgB0AtgJ4C3AOyV71zvAXgGwK0AzgBQC+AhAO/K768CeAHAiwC2xM69DuAxADcDyAC4TBYFvhHAwwDeAPCh7KurhnFKvVoOk5lpAI4t2HMAgHHy2/cB/BHAHmHuaQBXAhhZ5Nn826n80Nj46AFKu7FKu4tSxs5QmWA2P9dngtPQ2jpc7pgKYK3w4gAcXIn5sQA2imnH+bmln/IzwcWeds7Tbrmn7Wpl7C89Yx/0tP2uZ9xlp8/u/JycPU5cBL4OzlXGdihjn1XabVDGvaCM/ZVnbKfSdnrtN4JDuZRxNytj3/GM640vpd2/lLEPpbJ5egFpOoB/A3gWwJGlmB8B4E+i/ZpUNviyMvblwocPuszYD5W2j1NrdXPax3jGPVPpjKdtD5WSSnccpTLB8RS0zN7V3APgJABdwuPhxQS4BUA3XcgzdhYZq8hItHb5ubyXSgfjlbFbE57p13TWTWtobT3QM+6B0nvtG55xkwCMkvh5opj2twG4xs8tOskz7t0qmLht/DU/OMzTrqsa5mPM7VXG3QD0DqsgxNt1Jj9B3JSxdm5cgCsl23za025JcubtDrqBZ+xNH41517+ytmV8Y+tBnna/KyPEU8LvegAdcQGWAPgFtaCMfbMK7XVS+3SF/RZAuz3MQrUmOEEZt72owoxjKietiPjtp98wHYr7JL7U1/b8lHFX7TfzZt/aPHHu7SM9464vteeszB2HSxH8bVyArQCawpSZ1H2M2zlpgTuE6e5jFKBXGWsbmloPpjBFLL537LyOEVKfVsUFeJu51teuMfFF2q3hQU+7bR+rANruOFMvPoY1ooibEQmQePcDcQFY+qf52s2swmdd7dXB0bHvG5VxqyhYNVnMi9ausFAa972IcevXZ9o/P/hO+7zwuwGAjQvwDoAZfsZemtz/3XyWfWVcUGssYcU+ivzYrkioiC7GHs/5ufyxfs5NZGZjpS4iwD0ADhNo0Ry/k2BrYZ1pTyUVgMHLg8xCFMbTdq0y7jlCDV/nmxhsyrgtlZ+Vn8JCSOZ8bRd6xq5X2raz+g6Oj/zVsTowPi7ASgA/ivBJsgpMAEZtFVRfVkvQKsRITLMVAvbNKHW7lZ62bX4mf4Gn3WvMQqFQBfulkF0nNYtgbx/1IUpQA4mCLWMzvnZTCxja6mn3GAOROV1pl64QsJuiO93TBe450zP2koJnvyy8rpU6MICmSUMxQmm3LJEAxs5LZV1DyT0Ze52fC84s7//2fSJepd19Bcr5Et1loLBuscDx3QDmFApwgvgVzfbNpAIQNpfeYzvrm+2oSs/xc3YyweOgv2VtywCXzdqzAMyShorQfRCxY5pfzPeKm9/NYSUuo92HGcgVn6XdkjDgtX0v5kJTmQhie7oYK1K86EJF6REAPyWuJ/KrLEBwebm6wQpd19T+2cqWdFsiEGfv6XehYHYBKrgewBjp+tKlBJgrXc9wKSoVrJCfUmjmQs0SmCW0ZjosXNrtiSxgF/Z5AhOCn7NHSt/dU6qZgeRVxkFtWcb2+amb6Gv7rVK/p4zT7OoSCrAh7JEFVyltF0l31xe8NdKvDIDQhTRMxho3RUXE7i17aSY4p5SgSrvdYZ9QRW/h63xTfTp/ImGFMvY7AiV2MREAaJHqy2RTljoBrOMHVtWyl2ZtS+nKbVdIgXo1qQBK201EmkrbOwkqozpi75RukW3kT5CAvihpapSn3bfLXqrdOmFyVRELsIhdlJR5rz/7zJ9o2o7zc22fIagT32+R3H9KEgEOlECep3T7qZXciPmbF8anF0rbbmYyTiqqFUBp282U6ueW1njGEqwdJVD/h6iCiPieL1biB1vB9qhMvn6SdkeE/h72BrZTgNzOagXwIuvdR8uyQgvjTCx3CV9rZNrHlH9MKQHOlkNTlM5/pcKFm/3c4tEyEDskOt47LJr32ExSXOXFBTD2fnZ6MoX7mWD/5+RzAIA14SUAy8tZ4W8AHpWi9lLxi9z2VNrVyajwLVlEtSPZ6DDAxRLVBPIjYVyxkOlgwNiExMIoHxkXfd1ZUWqWwBmjsu7rRS76wDP2QjHjxtjwtzlqROyfo4HX4tFFW8OSAgSXc1wZSxTbomxo14cTOr2oVu7skkFE2ZE6Nz0exkJBZWaRAnCoYJO7BM0eEWnc/rwvPiiAr+3c5C6Un+Lr/NmE5BHDbpky7tawz4gGvmxm/i4d5GmoQBeKZtNnzOrgwGs5B7FkSLLVjwGMZsZQWftVDnNlBBg2KoTEfEjYrSW1QCacgUoshTRckGezxABT/F8ApJCQ2gC8X9B/1khDsZ1aT82542SZMt/vGbdU6WCB5O8TQxfUwYKE2Wc3Z6QAHhQNd4sb971TeFFeegzoxCoRNbBUHrBO0le3TDE4S/oHAPap48Tt2HAwsG8TAScrY69NaIFX5E4OrJ4S5d0oPcCAocFHoQvEZdbIOGOM4BK+PfkgpqW+1SNvbxqSupAy7tdy1+vyKuv/RnzBwRcRWXn3db7kcM7xz0saxCosYCHu2SPP+MSJrkA8lE0owC3iKrTg6RgCxOnx11iUEgqQFlftFRf9xInwt7lwPFJq+Rn3BZk27Kw20/yv6G4A13KakESAWhMwKdwO4K8YIrSQGSvJaEUZu1WmDkyfbGKGBDEzJRzB23slc+0QBDAkaIQUO85IW8sE73+k750hhZF9wJAhwoI2NieFzRERrTJuJRt5+U+AzQCuwBCjCQI7pnNsEk6fjc3xPQS7OEREl3lFBsxDkmYL3HgSwFUSG9MFkvxTel5WcAbxkCXCX7oTmx9iJPa1RLSEHyUnbUnov0+6La9jgDQ3AAAAAElFTkSuQmCC;" parent="1" vertex="1">
          <mxGeometry x="420" y="180" width="100" height="100" as="geometry" />
        </mxCell>
        <mxCell id="lRhgDuw3gsUNNQDoHB9H-51" value="" style="shape=image;verticalLabelPosition=bottom;labelBackgroundColor=default;verticalAlign=top;aspect=fixed;imageAspect=0;image=data:image/png,iVBORw0KGgoAAAANSUhEUgAAAIAAAACACAYAAADDPmHLAAAACXBIWXMAAAOwAAADsAEnxA+tAAAAGXRFWHRTb2Z0d2FyZQB3d3cuaW5rc2NhcGUub3Jnm+48GgAAIABJREFUeJztXXd4VMX6fuds303ZNNKTbdkAgdCRIl2kXBFFL9gLKiqWn16vKHYv13L1WhC7F0VFVKwoVZHekSAloWRLSIWQZDebZEt298zvj0025+xuGoSQaN7nyfPkzJmZM3vmPTPzffN93wA96EEPetCDvygEF7sBfwZkZWWFKRQKxmq1ei52W9oLcrEb0NWRmZkZ7nW5BlOBIJMAekppbwJoAYQDUABQcrJ7AdgA2AhQTQk5QYCTlGWPs4SciIqK+uPAgQPui/E7mkMPAQKQkpIik4lEl1JCJoCQCaB0KABhB1VfB0J2EGCTl9LNJpPpAAC2g+o+J/QQoAFarXYIWPYWAtwIQmI66bEllNLvBMDHJ83mQ530TB7+0gRQqVRKISHzKSF3EUB1rvUIJXJQ1guv23U+zdlHCXknNTV1xZYtWzptLfGXJIBOp4sDpQ+B0vsARLaUlxACZbIOMel9oEzSIDJRDWWiGtLIGAjFMkgUEf68LOuF21GLekctHJZyWEtNsJaZYS0z46zhEOqqTreleWZCyH8oIcsMBsN5Maot+EsRICUlRSYRiRYSQv4B3wIuJGRR8VANmoDEfiOQ3HcEZJGxHfJ8a5kZZXl7UHJ0NwoPboHHZW8pewkofdxgNn8BgHZIA0LgL0MAjUYziQDvECAz1H1GJEHqoEnoPXYm0gaNB2EurITsdbtw6sBvOLn9RxT9sRWU9TaXdRsl5D6j0Xj0QrTjT08AnU4XR1j2AwpcHeq+OCIWWdNux4ApN0IsC+vs5gEAaipKcPjn/+H45pXNrSPcAP4bGRX1bEeLkX9qAmSo1WMpISsAJAfeEyvj0ftvd2PI5NkQSaQXoXXBsFvP4siaj5H7y+fw1DuDM1C6myXkOpPJVNhRz/yzEoDRqtULCSHPIUCGJ4wAaZNuw+g5DyJM0ewyIAgelx1VhSdgLTXCWlaA2vJiuOw2uJ12eBs6SyRVQChTQKKIQGSCyr9gjE7LbNeUUlNehJ2fLkJhzqZQt6tA6W0Gs/nnNlfYAv50BNDpdBKw7HIA1wbei9AMwaBbFkGfqW/1h1OWxenj+1FydBdKju5CufFwS/N0ixBK5EjqMwyJWSOQNnA8olIy2lSu4MBG7Fr2L9RWlAY1jxDyWL7R+Oo5NYiDPxUBdDpdBFj2BwATuemEMEidOh8j//4AImUtf4nWEiNObv8Rhh0/oray7IK0M1aVhYyxV0E3+krIIlrWObnqqrH1vcdQcGBj8E1CXjMYjY/iPKSEPw0BtFptL0LpOgCDueniiFj0ue11DBw+CpIW+r48/yAOrnofhTmbQOkFk7p4EIgkyJzwdwyYcRfCY4OWKX5QSnF0/TLsXfEKWE/AGpCQz1NSU+eeq/LoT0EAjUYTyQBbAAzkpiuS9BjwwDJkpPZqtvMrC49jz/KXUHJkZ6vPSVepodVpkZ6uQmp6OpRRUZBLpZDK5ACA2tpa2OvsOFN+GqdMZhQUmGE0GmCpqmqxXkYgROb4azFs9j8gjYhuNl/ZsX345bV74Kqz8W9Q+pnBbL4N5zASdHsCqFQqqVAgWA9Kx3HTIzRDkH3/R9DFR0DMBJdzO+tw4Nu3cGTdsmbndplMhvETJ2HkqFEYMmwYYmLarxBy17txPC8P+/ftw/59e3Do0CGwzTxPEqbE8OseQe8Jc0CYEI2Gj7DrXp4Lu6Wcl04pfdVoNi9ob/u6OwEEGRrNN4EyfnTWePSd9zZ0sdKQnX/mZA5+W/JQqMUVAKB//2zM+vvfMWHiJEhlsg5pKMuyqKutQ1FBIbZs2YR169bgbPmZkHkTeg/DpAfegCI6IeT9mvIirHnxVtjO8KVBSuk/jWbza+1pV7cmgE6jeRHAQm5ahG4Ysh9YBlW0BPKATVxKKQ6v/gj7vnot5Fc/bPhw3HbHXRgydOgFazPLsqix1cBmtWHr1s34/rtvUFpSHJRPGh6F8fP/i7SB40LU4iPBqufmBI4ELCXkCqPRuK6t7em2BNCpVFPAMGsB+L9xRXJvZD/8JVS9whEu4uf3uuux6Z1HYN4b/G4SkpLwz0cX4NKxoV/2hYDb7YGlsgoupwurf/4RX3+1Ak4nX/lDCMElNyxA9hV3hayj6tQx/PSvG1Bvr+EmV4BhBhkMhmBWhUC3NAnLTE1NokLhLwD8ultJVCKyH/oSCXHRiJbw87udddjw6jwUHtzMSyeE4Iabb8FLr7wKjVbXGU33QyBgIFfIQQiBWq3FhImTUFJchLIyvuhZfGQn3C47kvuPBiH871WmjEMv/SDkb18FNEkuckrpsAEDBnxeUFDQqrFJdyQAiYqN/RFAP38CI0Df+f9DTGoGksMob1irt9dgzb9vxumTB3iVRCqVePGVV3Ht7DkQCjvK4Kd9IIRAIpVAJBKBgMGlY8ZBLJbg6NHDPFH0zMkc1FWeRvqQSUEkCI9LgVAs4UkxBEi3VVezVRbL1tba0O0IoFOrbwIhj3DTVDMfRcKwGUgPpxBwFn1etwsbXrkLZ/JzeHVoNFp8sPQT9OnTt1Pa3BpEIhGkchmcDid69+6DrH79sG/vHrjdTTJ/ZUEevC4nUrIvDSofrx+MCuMRVJ8u4CaPVEZFfW2xWFqUQbsVAVQqlZJhmFXgDP3KPmOgve5fSJADCnFTXpb1YtNb/4eiQ9t4dfTvn40l772PmJjOsvoKxpkzZ/D24jfw0gsvYMmbr+O7b7/BqYIC9BvQHyKhGLGxcRg0eCj27dsLp9PRVO5kDkRSOeL1PF0XCCFIGTAG+Tt+gttZ15gsJEBmlcWyvKW2dCsCxMbEvAqOmpcRSdFv/sdQRCiRFLCTm/PdEuRt/JKXNnDgILz13vtQhF2cbV8AyD1yBHffOReH/vgDDrvPIMTpcCD/5Ams/flnDLtkBKKUSkRGKnHJJSOxa9cOHglKcnchQT8YEfFpvHqFEhkU0Qkw713PTdZGK5V5VVZrXnPtCa1t6ILQarU6UHovNy116nxIYlORKOcrwEpyd+PgD+/yy+sy8Mobb0IqvXhbv3V1dVjwyD9gq64Oed9ut+OpJx4DETIAIUhISMDTTz8Pubxp15KyLDa98wjs1rNB5bUj/4bk/kFTxMvjx49vdpHTbQhAgMfAGbFkvdRIvuwuRIgBOUfkc9ZYsPntf/C0bTGxcVj89tuIiIjAxcTqn1ahsrKixTy26mqs/mkVoqJ97gYqtRoLHn8SDGc72VFdgc3vPBJyz2L07c9CIOLMhYRoioqKbmjued2CAFqtNhWU3sJNS5vxMBihGDFS/kvY9+WrvK9DIBDgXy+8iNi4Xp3T2BaQ8/vvvOsRQ0bg2QXPY9yo8QH59kOukEOu8O0x9O+fjTnX8fuw5Ogu5O/4MegZykQ1MifM5qURSheimb7uFgRgWPZRAH5ay3qpETtwKhQiQMYZ3M6czMGJLd/wyt5+54XV7LUHdnsd71qr1kEoEEKn5usg6up8+SKjlBAKfV/+rGv+juwBvL0u7F3+Mlx1wdPJgBl3gRHwRv3eOrX6mlBt6vIESEpKklNCbuWmpU65F4QRIJbz9VNKsfOT53nDolarw21z7+i8xraC5JQU3vW6jWuxZedm/LzhJ156amoqAIBhCCKjlA3/M5g//wFIJE1aLoetEge+fSvoOeGxydBdehU/kZB7gzKiGxBAIZVeBcA/eYsj4xE3bCYkAkDBmfsLczahoiDXf00IwYKFC1tV8hw9chiPP/oIpk6agLEjR+Dm62Zj+afL4HKFsMk7D1iqqnAsj78Yr7JW4bdtG1Fewd/Zu3zqNP//UpnUv3CN6xWPWdfwh/djv30VckE4cMZdgUqjcRqNJi0wX5cnACWEN/fHDZ8JIhAiQsyf+w+uep93fdnkyzFgEF9eDsS3K7/GvLm3Y8umTbBaraivdyE/Px9vv7UY8+bejupmVuvtRWlJCebdcTtOHD/eat6x48ZjzLjxvLSIqKbF68yrZiGuV7z/2ut24ciaj4PqUSZr0UvHmzIYhtKbAvN1aQJkpqYmgdLLuGnxl8wCAaDkLHTL8vaiPP+g/5oQgtvuvLPFuv/IOYDXX30FLBtaXX7i+HEseu7Zc298A/JPnsRdc29HUWHLhryEEPxtxpVY9NJLQfdEIpF/W1okEmHWLL65Y+6vXwRuCAEA9GMDLOEJuTkwT5cmgFconA6O6BeW1g/yxAxIhYCIo8I6sfU7XrkxY8dB28rmzrJPPm628xuxY9tWnDxxov0Nb8AfOQcwf96dqKzgD9EjR47C8q9X4qFH/okbb7kVD/zfQ/hi5Td4+rnnIWnGRD08skl5NWHiZYiKbtJkelx2mPasDSqjGTGdLxICvTPVap5jzMXZBWkjKCETubNYzMCpAIAwUdPw73HaYeJrvzD7+mbFXl+9lOJAgEh2wzU3IT01Hcu/+QxFJUX+9N/374M+M6QzUYvYumUznl64EPX1fEePKdOm4+nnnodQKIRO1zbrYAAQi8UQiUVw17shEokwZcpUfPXlF/77+TtWoffEObwykjAlkvqO4KnDWUImAPCzuiuPAIQAE7gJSv0IAEAYZ/FX8PuvPB+7hIQEDB4ypMWK6+tdcNfX+68ZhoFeq4dcJoc6TcPLu3XLFuSfPNmuhq/6/ns8seDRoM6//sab8Nyif5/z7qNc3mSdNHbcBN4i7/Tx/aipKAkqk9xvJO+aEsKzmO6yI4BOp+sDlvXbRAmkYQhLzwZDACln+C86vJ1Xbsq06WCasadrhEQiRUxsnH9oZlkWX/3wJVKSUrAvZy8v76GDObj5+jkYPGQIZl93PcaMGw+BwNeA0pISrFu7BgUmE0QiEbL694elqgpLP/qQJ44SQjD//gdx8223ndO7aIRMIUe11WcQGh+fgN59+uJYnk/yoZSi+PB29Jl4Ha9MYhafAKB0AnyGQBTowgQAy47gXkbohoEwAsiEvqGhEaVHd/OKjR47tk3VXz5lCr78ommj7Hj+MRzPP9Zs/pwDB5Bz4AASExNxzd99otgH773L27Jdu2Z1UDmBQICFTz2NK66c2aZ2tQSBQAChSARPwzOHDh3uJwDgexeBBIhJ7wOJIpKrMIrVaDQZJpPpJNCFCUAp7c0d4sLT+gMAz7y7utSEOkuTYaVMJkPfvlltqv/WuXdgy6bfgixwWkNZWRnefmtxm/JKJFK88PLLflOzyoqz+PD991FaGjxUN6JXXC/cec+9SExMDHlfKpWgtoEA/fpn8+6V5u4BpZQ3NTCMALGqvijJbfpQGEozAXRtAhCGyeSYOUEW75ubJUxTWrnxMK/MoEGD2zy/KpVKvPPBR3jisUdx/Bj/y5dKpbj3/geQmJSElV+uwO/797e7/WKxBIvffRcDBw7yp72waBF27djeQikfiouK8MHHn4SuVyIGGiQ+jUYDhULhVx07bJWoqyhBWBxf4xiZpOERgPpc5H8GujABKKWZXAmgkQBizghgLTPzymS0c7WelJyMjz9bjr179+CPAwfgsNuRplJhwsSJiImNA+BTzBiNBnzz1ZdYv3ZtkOGmWCTG5ROmwFZjw7bdTRZYXq8HGRl6Xt62KIIA4HgL+cTiJrGOYQRIS1fxpgFLqSmIAMokNe+aMIz/RXVVAjAEaFqOEwJZL9+P4BKgOoAAaSpV+x/EMBg5chRGjhzVbB6tVofHn3wa8+9/EIvfeB1rfm7S3ffJ7ItLhviWK4fzDsNabQEAeL1eVJwth0LBefltdDljafP6CUYg8C2CGupKTk7hEaC6zITUAfx1UGQiX7IB4Jc/uyQBdDpdGFjWL+wJJAoIJL6tUSFnWLDxbeCQnp5+QdsVERmJsePH8whgLjChqKQI1TYrbDa+6jgyUhlYBQ8DX50PkVKB3Loq2B9a2qY2EAIIBUJ4GnwEk5L4PoW208EaR4Uyjl8HpVGN/3dJAjAME87V0gkkPosYAr4E4ApQf0ZHX3g7v0GDh0AslvhlfFutDR9+9n5Qvt59+kAZFRWUzkXU0ExIYiMhsoX2UGoOjIABGlxBlUo+yVx2W1B+UUDkE+oLcumrq11P7iQQt5vXYoHURwAmwI2FYwAJAJDL5Re2YQAiIiJw481BKnUeCCG4+777L1gbGM6LkMn5QS7c9tqg/IEEQFcngJuQcO61UNIMARydTwAAuPPuezB1+t9C3hMIBHj40QUtrinOF1wxTxbguxj4UQC+yCUB8L/fLjkFCFhWQLnavABniCbwF1WBThMXCgKBAM8t+jcumzwZP69aBbPZBAEjQFb//phz/Q3I0Otbr+S80PQ7A39yKDvBEO/Fn9AlCeBlGDt3aGrU9bMBv00okcPrbtLp2x0ORIrFaAuOHDmMr75YDpsteM4EfJ2cPWAgbrnt9mZ1C5eOHdep/oSN4Hayw+7g3Qsx3AePCpT6F09dkgCEEAdXZGKdvnktUDgSycLgqrX6r+11dYiMbDHwpy+f3Y6H778PtbXB8yUXe3btgkQsxo233Npivs4GpU0Wzw5HIAGCA1+5HfzfSQnxE6BLrgFYluUt770uH4Mp5YvSkgC2WyyWNtVfXFTUauc3Io8jY3cVsN6ml1BdbeXdE8vDA7OjPmAEIH5dYhclgNlsPgvAP7Z7nXVg3T4NHNerP9A7pqjwVJvqb80Q5FzzdhY8nqZwQIH7ChEBWkAAcFj5vggU8LOmS04B8E33pY0RvCll4SgvgCK5N+o9gLBBRRSZxNdwnSooOKeHqRLleP5u38Jtf54Vb69svR6XywmXqz7kPZlMBpFIFPLe+cLr9fLWAKUlfAIok7VBZaxlpsAkY+M/XZUAIIScAqWqxmvHGRMUyb3h8jZ5AikT+Tru/Pz8c3pWmFyAUdm+4Ew1dS0H26qtrcVjjzyMgzk5zY4OIpEIM6+ehX8+9vg5tacluOubtp8ppTh1qoB3X5kUpPZFdSlfZU66hUUQpbzgyI5y34+oZ5tEmlhNP16RQwdz4PWeWzDHtmLV99/hwO+/tzg1uN1ufLvyaxw5crjZPOcK7qhz6lQBamqapBiJIjJoIwgI3jSjhHR9AlBKeSdo1Bb6+ODk9G9Uip4XVs1ms52XEWdbUFlZ2ea8FeXB9vrni3pXk5nZ0QCCJfYZzvMhBHyjRGUB3x+BdAsCEHKQe11t2AdKWdg5cRIJIUgOMHnatXNHp7SvEVKBAJEiESKFIogusCKK9Xp5tow5OXzD1qQA+z8AsBSfhMPGI63VYDB0fQKkpaX9Ad8JXAAAT50VdcXHQAE4ONN0cv/RvHLr167ptEifAPB/6kzsHzMV+0dOwgRFy7t/5wu7vUk9UlVViSOH+SNASvaYoDKluXyTORCyDRxhqssSoCH0KS/GTfUJ34/hrtPUw6dCIGrylysqLMTRo0c6pY2dDUddk9Jn+7atPBf4XtrsoEUxAJQc3cO7JpTyQpB3WQIAAAF+415XHvoFAFDnbhpqJYoIqIbynIfw7ddfd0LrOhdutxv1DcM/y7L4ZQPfEUQ35qrgMs46lBzlh8D1At2HAF7gB3B2fGzmHDgrClHnAdycRXhGgAvUxl82oKS4TWHyug1qqps0l9u3bcHp000HUAlEYuhGXhFUxrx3PTyuplGDAgUmk4knXXVpAphMpkJQ2jSGUYryvT8AFLBxdDCpA8YhOrXJHtDr9eKzZaGNKrsjPB4vnA06f5b14vvv+TEQ9OOuDRlkOn97QAAJSpcjYAu1SxMAAAghvPG8fO8PoJRFtYu7JUow6Kp7eOVW/7TqgouEnYWa6mr/wnb9urUoLmpyXWMEQgy6cl5wmYoSlB7jO7lQQj4PzNflCeDyeD4D4Pf9clYWofLgeji9fGlAPWI6TzXs9XrxyksvdkldfnvgctXD3rD4s1gs+HIFP+pbxpirQyp/jqxeCsr97YTsaXQG4aLLqoIbUVhYaNFptStAqd/fu2jDe4gdNA0VToLUMN+XwTACjL7lKax9ea6/7NEjh/Htyq8x+7rrW3zGMXMtht7is9ev97SPMIvNJ/D+qXyAAnZv+85s2D7jcRCGgae544MpRXVV027f0v+9zwszI5aHY9icfwQVc1RX4Pjmlbw0AnwQ6hFdfgQAAC/LLgFn7qorzoMldwtq3ICLoxlMGTAW6kum8couefPNIMeP4PopqmvdqK51w+FsnyrZ6fWi2u1GtccNdzv1D55aB9y2OlCbI+T9aqvN73q2ft0a7N7FX9EPnf0w5AEWvwBwaPXSwFPHTkUolV8EZUQ3IYDZbD5MAN6KpuDn10G9XlQ4+Nq3Ubc8yTvO1e2ux5OPL+BZ/kTHxLTZfCw2lv+Co6ObP9EjEDFx/AMmomPbZrUcGxsLp8OJ2hrfyt9oNODTZXyz8V7abPSdfGNQ2drKMuRtDOrr/zR33mC3iRQaq1Qep4TcjQZ7NrftLETh0ZCkDkCYCBA1UFksC4MyQQUTJyx8jc2GI4cOYfLUKRAKhVAoFCCE4MihQy2uEXS6DPzz8YUI40QW1eh0OHToEM6cbt6nUCAQYOasWbjmWn48n9TUNOzZvcu/og+FiMhIPPrYQijkClAKnDlzGs8/+6Tf/QvwDf3Tn/gU0vBgs/OtHyxE1SnOiEdIqYdlb7darSHnp251XoBOo/kCgD/6g1AWjsHP/IrI6DioIvhRwnd9ughH13/KKz9m3Hi8/Op//e7dbrc7yKSqEQKBAIoWzhV0Ohyod4c+xFMqkUAskYS8RylFTU1wOJdGyGQyVJZXwuv1wmq14qknHg1yYJ380JKgqQ4Aig5twzrOGqjhgXcazOZmvU66zQgAAHFhYXuoQDAPgAQAWE89XJZSKAdOh4QBpJwlbXK/UTh9/Hde0ITCUwU4cfw4xo2fAKFQCIFAAIlEEvJP3IpxqVAkarasoAUHVUJIs+WEQiEqz1bC6/HibPkZPPfMkygr4zuNDJx5D/pNDbZR9Ljs2PDqPH7cQEp3G8zmB9HCYVLdigCVNltNTHS0B8DkxjR7WT7EyngIEvsjUtLkO0AYAVTDLkfR4e1wcMKoFRWewsEDBzBu/ARILmLc4EB4PF5UlFfA6/GgoMCMZ595MuhMIf3YWRh12zMh1y9bPngcZcf2cZO8hNKZVVZri/7v3WIR2IisrKwwCgR5ZJi+WYTq4uMorSM8qovl4Zj22FJExPN9Bg8d+gO33HQD8o5ekAO52416lwtnz5yF1+PB5s2/4YmFj8JSxbc7SB8yCePufilk5x/f9DUMO1YFJi/JLyj4o7Vnd5sRQKPRRLIez3oAQXuelPWg+uQeKIdeBZGYf1iUSKqAZsR0lObu5gVUrK2pwZo1qyERi5HVr3+rYWUuFOpq62CptKCutgYfvP8uVn61Al4Pf72WMeYqTLz/jcDwrwCAioI8bHzzAbB8HcQhD8te39zCj4tuQYC0tLQoEcP8AmBEc3k8dRbYTDlQDJwBhVjIcyMXSRXQjp6B8vw/UHO2aZOIZVns27sHO7ZtRYZej17x8SFqvjDwer2wVFahxlaLbVs34+WXFuHYseCw/tl/uwOXzv1XkKUP0HB83L9vDjxIsoYFJpvN5tBn0gWgyxNAr9fHMr5tYV7or9joOCT2SoKluulEFFdVKeylJyHpNx3hEgIh56MWiMTQXXolPC4Hyg38kbGyshKrf/oJhYWFSFepEBXVdlm/3aAUtTW1sFRWYf++vXj7rTewZvVPQYEnhFI5xs57EQOCQ74C8EUD+flfN6K2kr9IJMDtRpOp1bOCGtGlCaBSqRIIpb8B4AXDiY+Nx+Qxl6OPvg+qrJWwcpwjHGdMcFQUQ9L7MiilhOdQShgGKdljEKvqi+LDO/zHvgM+8cxoyMcP332L/PyTiIxUIjEpqcP8DSmlcNgdKC0uxaaNG/HOksX48YfvUFERfH5AdKoef3tiGZL7jQ5Rk+9MhHUv3Q5LSZAV9H8MJtOb7WlXl9UD6PX6ZK/H8xvxxbPxIyEuAZNGX4aIyEgkJibC6XTgw88/REUl3wAzOvsyDLhrMTTREt5BUo2wW89izxcvw7jzp2ZNyHr16oXLp03HqNGXol+/fs3K9i3B6/XiTNlp7Nu7D3v37MKe3Tub1T0IxVIMnHk3BsyYx7Ny4qL2bDHWvDwX1aV8W39C6af5ZvPtaOf5wV2SAGq1Ol1AyG8AeF4OSQnJmDByIiLCI5CYlOj/Om01Nixd/hGqrPwDsiK1QzHgvg+hi4/gTQdclObtwe5P/43Kwpbj90gkUvTr3w9aXQZUajVS09IRGRmJsLAwyBUKeL0eOOwO1NbW4szp0zAZDSgwF8CQfxJms7nZ84IbkT7kMoy8+YkgbycufOcG3wG7hT+9U2BNalraVedygniXI4Ber9ewHs8mADzZLSUxFeNHTkB4WDiv8xthtVnx8RdLYQkggSwuHf3mLUG/vn396uJAUEpx6sBGHPzhXZw1dZ49IWEYpA+djMFXz0esquXwdsZdP2PbR0+F8vRdb3e5riktLbWHLtkyutQaIFOtzmQp3QyA9xmkJ6swfsQEhIeH7nwAEBAGJ4wneOsBAPDYq3F693eoEUSilzabJx00ghACZZIWfSZdh8SsSwAQ2M4UgvWEVvWeLxTRCeg7+UaMvfMFZF1+E+TK5o+z8dQ7sfPj57Dv69dCtWd5ZHT0dSdPnnSFKtsWdPoIoNfrk6nHc21DrDonKM0ViMUrvV5vGlh2IwDekdnqVA3GDB8LRZgCiYmhO9/lcuHzlZ/iVHHLzqEx2Zdh+C3PIiU5sdUf7nE5cCpnE4oP70Bp3h7UlBe1UqJ5EIZBdFpvJGeNROrAcUjqO6LZ4+G5OJN/ENs/egpVRSEtm143mEz/RDvn/KC2nU/h9j5Lp1YvBCHPoEGXz4EVlHpBCG+/VJeuw8ihoxEWFtZs5zudTnz69TIUlwZ10FkAQZvlAokc+hkP4pIrb4NY1HZ7mJryIlQW5MFaZoK11AxbeRE8zjq47DVwO2rBCIQQSuTaxI4+AAAKIElEQVSQyMMhDotERHw6lElqKJO06KXNhiSs7T4Drlor9n75Kk5s+YZv1eODA5Q+0NIGT3vQWQRgdFrtB1yrntagV+sxYvAohIWHITEhMWRLHQ4Hln35MUrPBEXZ+l1SXz+lXiyeSoH3wDlyphHyBB0GzHoQWaOnXjQtYCA8TjvyNq7AwVXv8wJfcHCcBWabTB23UOkMAgh0Wu0noLTl0Foc9NH2wbBBlyA8LBwJCQkhW1lnr8MnK5bizNkghdcuFphuMpmqASAzPV3tZZgvQEiw3xQARaIOg2bejT5jrgQJoW3rDNTba3B0w2c4um4ZnDUhg1xQCnwqlckeyM3NbVtkizbighJgyJAhouqqqs9BCO8kA6VCjBsm9IYXAnz+61HYXfzFzbABwzF80CXNdn5NjQ2ffPUJzgYctgRCtkqk0itCvCQmQ6OZR4EXAYQM3idRxiNj9JXoPe4qnon5hQJlWZTm7UH+th9g2reBd+ZBAHLBsvcZCgrarN1rDy4YAbKyssT1DsdXFOB5bcRFSLF4/nhkqpIAAEdM5Zi/eAOPBIQQXDFlBoYPuiSo3mpbNT5ZsRSVFv5uGQU2OpzOmS2JQzqdLg4s+zKAW9GCBBSV3heaoZOQlDUS8RmDwAg7JthDvb0GZcf2ouTobpj3bUBd1emWstcQQhZFKJVvNmfO1RG4IARQqVRSAcN8SwK2buOj5HjnvolQp8TxHn3QcBr3L/kVzgASXDXtagwe0LQFYLFW4eMVH/vj8XJ+xFo3y15TUFDQprPeNBqNniHkKVB6A1oRhYUSGeL1QxCT3gfKRBWUSRpEJmkgi2jevo+yLGqrymArM8Na6ls0lpsOo9J0tFWFEAALgLck9fVv5RYXt3j0e0egwwmQlJQkl0ulP4JjtAEAyTEKLJk/EenJwVasALD/RBkeeudXOOublFmEEFwz41oMyBqISkslPlmxFNW2oKPcfpTIZHNyc3NDx2tpARqNJkNA6QPUd5pWu117xbIwCKUKiCQysKwXHqcdbped547VDhQBeBcM867BYAgdu+4CoEMJkJWVFeZyOleDUl7wvLS4MCyZPxEpibHNFQUA7MotwSPvbUS9p+krYQiDyRMux859O1FbG2BLR8jKSKXypvMdIlNSUmQyiWQOZdlbQcil6Dx/iRoKfAdCPjMajVsRHAnvgqPDCKDRaCIZYC0AXoxUdXw4ltw3CYm92rbFuvVQIRZ8uAkeb6vvYrnBZLoN/MBh542slJRol0g0HQxzJSgdgwDF1HmCEuAIBTaB0k12l+u3c1XhdhQ6hABpaWlREqFwAwWGcdMzEiOx5L5JiItt3+j6W04BFv5vM7yBoUGbsNRgMs1DJ3wxarU6nWGYEaB0cMMZBuqGv5YYzcKniDIAOEEIOUFZ9jgEgt0Gg6Hj48acB86bAHq9Ppb1eH4FwDuntHdKFBbfOxGxMa1H7gyFdfuMeHbZdniDNWGfGEymO3CeKtDzxZAhQ0Rnz54NEwqF4QCkQqHQ4/V6ax0OR+3F/qrbg/Oa61QqVUJD5/PCdfVPj8Yb8ychKjI4amVbMW24Fm4Pi0Wf7wDL3a+nVICL3PkA0LDusDT8dVucs+pLr9cng9LNBOjLTR+ojsHi+y6DMuLcO78RmakxUMjE2J3HCYZIiKbKYnkFXYAEfwackxJcrVansx7P1kBrnWEZvbD4vsmICA+OWH2uuGFiX0TIeXtH4SqVKrQs2YN2o90E0Ov1GgEhWxFgrTOydzxeu2cSwsI69tCGqhpnkKoYQJsUPj1oHe1aA2Sq1Zlej2cjAF5EgjFZiXjxzgmQyzrW06bO6caCD/giIQVOFBQUhNwq60H70WYC6HS6LG8Ig42J2cl44Y4JvgMNOxA2uwv3v/ULcgv4UhNDyLsd+qC/ONo0BejV6gFg2c0I6Pwpg1Lwwp3jO7zzrbUu3PPGuqDOB6VbklNTewjQgWhVD6DT6QbD6/0l0FrniuHpeOqmMRC18YiWtqKqxon5b65DfkmQdLUTDDO9M/XkfwW0SACNRjOUATYgQOt15SUqPHHTmA6PiV9R7cD8N9fBWBY0xW8TiERXnDhxonnH+h6cE5pdA+jV6jEssAacI8YAYM4YHR6ZPRKCDu7801W1uOeN9Sg6G/CBU7pFIpfP6GhLmB74EHIE0KlU48AwqwHwBPobxmXgodkjIQjhpXo+KKusxd1vrENJRdAHvs7DsrPaus/fg/YjqCe1Wu1UUPo9AN6JhNePy8DDs0f5Di/uQJw6U4173liHcmuQ+nw1GObaApPpnG3ee9A6eFKAVqudSihdhYDOv2d6P/zjAnS+qcyKea+vDep8AnyVkpZ2tcFg6On8Cwz/FKDValMJpbngzPmEAA9ckY1bpg1ukyNDe5BfXIV731wPS23A6E7pZwazeS46eJ+/B6HhnwIIsADcQ4UJwUMzs3H95IEd3vl5pypw31sbYKsL+MAJ+chgMt2Di2AZ81dFU89SyjPgvGdaX8y6VN/hw/5hUznufXN9qM5/22A03o2ezu9UcD/tZO6NGcPS/PH0Ogo5+adx3+INqHUE2G8S8prBaGwxnFkPLgy4BOBpX3ILLR0aaXvf8VI88PavQTt7hJAXDEbjeTs59uDcwCXANu6Nf6/MQX5RBf+w3nPEztxin8l3cOc/k280PnXeD+jBOcM/xkfHxBSD0rlokAycbi+25ZZihC4aMVFBvpVtxpZDhXjsg008U28AIIQsyDcaXzrninvQIfAToKqqqjg6KooAGN+Y5qj3YuuREozIiEGMsv0mXhsPmLHwf1vg5pt4U0LIQ/lG4xvn0e4edBB4q7wqi2VLTHR0GDi2/XaXB9uOlGCUPg5Ryrabem343YSnPt4aaNpNKaUPGkymJefb8B50DIKW+VUWy8boqKhe4Nj417k82H60GKMze0EZ2ToJ1u0z4plPtgd2vpcAdxrM5g87ouE96BiElPOqLJa10dHRSeAEZ6x1erArrxRj+8YjIrz5MOrf7ziBRZ8FmHIDXkrIXIPJ9Glz5XpwcdCsoF9lsayNjorSghOk0eZwY0deKcZmxSM8hPHnN1uP4eUvdwfG3XMT4DqDyfRVRza8Bx2DljQ9tMpiWRWtVGaCEL/jh81ej33HyzC+XyIU8qY9o09/OYLXvtkbWEc9JWSOwWT6oWOb3YOOQmuqPpqYnPyT1+MZBEDfmGipdWH/idMYqouFXC7FO6ty8OHqg4FlHZSQq41G4+qObnQPOg5t8g3U6XQSULoKlE4JvCdkCDzBTpx1lJArjUbjpsAbPehaaLNzaEpKikwqFq8GMLGVrHWUkBlGo3Hz+TWtB52BNu/22Gw2T4pY/J1HLB4IICNUHgqUCSidZjCZdoa634Ouh3Zt952pq3NXWSxfxURFnQKQCCAevv2EQgBLCcPclG8yBcUw78GfF4xKpeo6Jy/1oAc96EEPetCDtuL/AQKIrewanYT1AAAAAElFTkSuQmCC;" parent="1" vertex="1">
          <mxGeometry x="1384" y="558" width="110" height="110" as="geometry" />
        </mxCell>
        <mxCell id="lRhgDuw3gsUNNQDoHB9H-52" value="BI &amp;amp; Reporting" style="text;html=1;align=center;verticalAlign=middle;whiteSpace=wrap;rounded=0;" parent="1" vertex="1">
          <mxGeometry x="1384" y="446" width="125" height="30" as="geometry" />
        </mxCell>
        <mxCell id="lRhgDuw3gsUNNQDoHB9H-53" value="Ad hoc Sql Queries" style="text;html=1;align=center;verticalAlign=middle;whiteSpace=wrap;rounded=0;" parent="1" vertex="1">
          <mxGeometry x="1384" y="665" width="125" height="30" as="geometry" />
        </mxCell>
        <mxCell id="lRhgDuw3gsUNNQDoHB9H-54" value="Machine Learning" style="text;html=1;align=center;verticalAlign=middle;whiteSpace=wrap;rounded=0;" parent="1" vertex="1">
          <mxGeometry x="1372.5" y="840" width="125" height="30" as="geometry" />
        </mxCell>
      </root>
    </mxGraphModel>
  </diagram>
  <diagram id="2lmSetEMHgqdEDpCTaJR" name="Data Flow">
    <mxGraphModel dx="1464" dy="922" grid="1" gridSize="10" guides="1" tooltips="1" connect="1" arrows="1" fold="1" page="1" pageScale="1" pageWidth="1654" pageHeight="1169" math="0" shadow="0">
      <root>
        <mxCell id="0" />
        <mxCell id="1" parent="0" />
        <mxCell id="X5Hz0N5Z4ckf9yrOUXwL-1" value="" style="rounded=0;whiteSpace=wrap;html=1;fillColor=none;dashed=1;" vertex="1" parent="1">
          <mxGeometry x="80" y="210" width="200" height="560" as="geometry" />
        </mxCell>
        <mxCell id="X5Hz0N5Z4ckf9yrOUXwL-38" style="edgeStyle=orthogonalEdgeStyle;rounded=0;orthogonalLoop=1;jettySize=auto;html=1;entryX=0;entryY=0.5;entryDx=0;entryDy=0;" edge="1" parent="1" source="X5Hz0N5Z4ckf9yrOUXwL-2" target="X5Hz0N5Z4ckf9yrOUXwL-10">
          <mxGeometry relative="1" as="geometry" />
        </mxCell>
        <mxCell id="X5Hz0N5Z4ckf9yrOUXwL-40" style="edgeStyle=orthogonalEdgeStyle;rounded=0;orthogonalLoop=1;jettySize=auto;html=1;entryX=0;entryY=0.5;entryDx=0;entryDy=0;" edge="1" parent="1" source="X5Hz0N5Z4ckf9yrOUXwL-2" target="X5Hz0N5Z4ckf9yrOUXwL-11">
          <mxGeometry relative="1" as="geometry" />
        </mxCell>
        <mxCell id="X5Hz0N5Z4ckf9yrOUXwL-41" style="edgeStyle=orthogonalEdgeStyle;rounded=0;orthogonalLoop=1;jettySize=auto;html=1;entryX=0;entryY=0.5;entryDx=0;entryDy=0;" edge="1" parent="1" source="X5Hz0N5Z4ckf9yrOUXwL-2" target="X5Hz0N5Z4ckf9yrOUXwL-12">
          <mxGeometry relative="1" as="geometry" />
        </mxCell>
        <mxCell id="X5Hz0N5Z4ckf9yrOUXwL-2" value="" style="image;aspect=fixed;html=1;points=[];align=center;fontSize=12;image=img/lib/azure2/general/Folder_Blank.svg;" vertex="1" parent="1">
          <mxGeometry x="145.5" y="318" width="69" height="56.00000000000001" as="geometry" />
        </mxCell>
        <mxCell id="X5Hz0N5Z4ckf9yrOUXwL-4" value="CRM" style="text;html=1;align=center;verticalAlign=middle;whiteSpace=wrap;rounded=0;" vertex="1" parent="1">
          <mxGeometry x="149.5" y="375" width="60" height="30" as="geometry" />
        </mxCell>
        <mxCell id="X5Hz0N5Z4ckf9yrOUXwL-5" value="ERP" style="text;html=1;align=center;verticalAlign=middle;whiteSpace=wrap;rounded=0;" vertex="1" parent="1">
          <mxGeometry x="154.5" y="672" width="60" height="30" as="geometry" />
        </mxCell>
        <mxCell id="X5Hz0N5Z4ckf9yrOUXwL-42" style="edgeStyle=orthogonalEdgeStyle;rounded=0;orthogonalLoop=1;jettySize=auto;html=1;entryX=0;entryY=0.5;entryDx=0;entryDy=0;" edge="1" parent="1" source="X5Hz0N5Z4ckf9yrOUXwL-7" target="X5Hz0N5Z4ckf9yrOUXwL-14">
          <mxGeometry relative="1" as="geometry" />
        </mxCell>
        <mxCell id="X5Hz0N5Z4ckf9yrOUXwL-43" style="edgeStyle=orthogonalEdgeStyle;rounded=0;orthogonalLoop=1;jettySize=auto;html=1;entryX=0;entryY=0.5;entryDx=0;entryDy=0;" edge="1" parent="1" source="X5Hz0N5Z4ckf9yrOUXwL-7" target="X5Hz0N5Z4ckf9yrOUXwL-13">
          <mxGeometry relative="1" as="geometry" />
        </mxCell>
        <mxCell id="X5Hz0N5Z4ckf9yrOUXwL-44" style="edgeStyle=orthogonalEdgeStyle;rounded=0;orthogonalLoop=1;jettySize=auto;html=1;entryX=0;entryY=0.5;entryDx=0;entryDy=0;" edge="1" parent="1" source="X5Hz0N5Z4ckf9yrOUXwL-7" target="X5Hz0N5Z4ckf9yrOUXwL-15">
          <mxGeometry relative="1" as="geometry" />
        </mxCell>
        <mxCell id="X5Hz0N5Z4ckf9yrOUXwL-7" value="" style="image;aspect=fixed;html=1;points=[];align=center;fontSize=12;image=img/lib/azure2/general/Folder_Blank.svg;" vertex="1" parent="1">
          <mxGeometry x="149.5" y="609" width="69" height="56.00000000000001" as="geometry" />
        </mxCell>
        <mxCell id="X5Hz0N5Z4ckf9yrOUXwL-8" value="" style="rounded=1;whiteSpace=wrap;html=1;arcSize=5;fillColor=#ffe6cc;strokeColor=#d79b00;fillStyle=hatch;" vertex="1" parent="1">
          <mxGeometry x="433" y="220" width="240" height="550" as="geometry" />
        </mxCell>
        <mxCell id="X5Hz0N5Z4ckf9yrOUXwL-9" value="Bronze Layer" style="rounded=1;whiteSpace=wrap;html=1;arcSize=20;fillColor=#ffe6cc;strokeColor=#d79b00;" vertex="1" parent="1">
          <mxGeometry x="440" y="130" width="230" height="70" as="geometry" />
        </mxCell>
        <mxCell id="X5Hz0N5Z4ckf9yrOUXwL-45" style="edgeStyle=orthogonalEdgeStyle;rounded=0;orthogonalLoop=1;jettySize=auto;html=1;entryX=0;entryY=0.5;entryDx=0;entryDy=0;" edge="1" parent="1" source="X5Hz0N5Z4ckf9yrOUXwL-10" target="X5Hz0N5Z4ckf9yrOUXwL-21">
          <mxGeometry relative="1" as="geometry" />
        </mxCell>
        <mxCell id="X5Hz0N5Z4ckf9yrOUXwL-10" value="crm_sales_details" style="rounded=1;whiteSpace=wrap;html=1;fillColor=#ffe6cc;strokeColor=#d79b00;" vertex="1" parent="1">
          <mxGeometry x="460" y="240" width="190" height="60" as="geometry" />
        </mxCell>
        <mxCell id="X5Hz0N5Z4ckf9yrOUXwL-46" style="edgeStyle=orthogonalEdgeStyle;rounded=0;orthogonalLoop=1;jettySize=auto;html=1;entryX=0;entryY=0.5;entryDx=0;entryDy=0;" edge="1" parent="1" source="X5Hz0N5Z4ckf9yrOUXwL-11" target="X5Hz0N5Z4ckf9yrOUXwL-22">
          <mxGeometry relative="1" as="geometry" />
        </mxCell>
        <mxCell id="X5Hz0N5Z4ckf9yrOUXwL-11" value="crm_cust_info" style="rounded=1;whiteSpace=wrap;html=1;fillColor=#ffe6cc;strokeColor=#d79b00;" vertex="1" parent="1">
          <mxGeometry x="460" y="315" width="190" height="60" as="geometry" />
        </mxCell>
        <mxCell id="X5Hz0N5Z4ckf9yrOUXwL-47" style="edgeStyle=orthogonalEdgeStyle;rounded=0;orthogonalLoop=1;jettySize=auto;html=1;entryX=0;entryY=0.5;entryDx=0;entryDy=0;" edge="1" parent="1" source="X5Hz0N5Z4ckf9yrOUXwL-12" target="X5Hz0N5Z4ckf9yrOUXwL-23">
          <mxGeometry relative="1" as="geometry" />
        </mxCell>
        <mxCell id="X5Hz0N5Z4ckf9yrOUXwL-12" value="crm_prd_info" style="rounded=1;whiteSpace=wrap;html=1;fillColor=#ffe6cc;strokeColor=#d79b00;" vertex="1" parent="1">
          <mxGeometry x="460" y="395" width="190" height="60" as="geometry" />
        </mxCell>
        <mxCell id="X5Hz0N5Z4ckf9yrOUXwL-48" style="edgeStyle=orthogonalEdgeStyle;rounded=0;orthogonalLoop=1;jettySize=auto;html=1;" edge="1" parent="1" source="X5Hz0N5Z4ckf9yrOUXwL-13" target="X5Hz0N5Z4ckf9yrOUXwL-24">
          <mxGeometry relative="1" as="geometry" />
        </mxCell>
        <mxCell id="X5Hz0N5Z4ckf9yrOUXwL-13" value="erp_cust_az12" style="rounded=1;whiteSpace=wrap;html=1;fillColor=#ffe6cc;strokeColor=#d79b00;" vertex="1" parent="1">
          <mxGeometry x="460" y="525" width="190" height="60" as="geometry" />
        </mxCell>
        <mxCell id="X5Hz0N5Z4ckf9yrOUXwL-49" style="edgeStyle=orthogonalEdgeStyle;rounded=0;orthogonalLoop=1;jettySize=auto;html=1;entryX=0;entryY=0.5;entryDx=0;entryDy=0;" edge="1" parent="1" source="X5Hz0N5Z4ckf9yrOUXwL-14" target="X5Hz0N5Z4ckf9yrOUXwL-25">
          <mxGeometry relative="1" as="geometry" />
        </mxCell>
        <mxCell id="X5Hz0N5Z4ckf9yrOUXwL-14" value="erp_loc_a101" style="rounded=1;whiteSpace=wrap;html=1;fillColor=#ffe6cc;strokeColor=#d79b00;" vertex="1" parent="1">
          <mxGeometry x="460" y="606" width="190" height="60" as="geometry" />
        </mxCell>
        <mxCell id="X5Hz0N5Z4ckf9yrOUXwL-50" style="edgeStyle=orthogonalEdgeStyle;rounded=0;orthogonalLoop=1;jettySize=auto;html=1;entryX=0;entryY=0.5;entryDx=0;entryDy=0;" edge="1" parent="1" source="X5Hz0N5Z4ckf9yrOUXwL-15" target="X5Hz0N5Z4ckf9yrOUXwL-26">
          <mxGeometry relative="1" as="geometry" />
        </mxCell>
        <mxCell id="X5Hz0N5Z4ckf9yrOUXwL-15" value="erp_px_cat_g1v2" style="rounded=1;whiteSpace=wrap;html=1;fillColor=#ffe6cc;strokeColor=#d79b00;" vertex="1" parent="1">
          <mxGeometry x="460" y="680" width="190" height="60" as="geometry" />
        </mxCell>
        <mxCell id="X5Hz0N5Z4ckf9yrOUXwL-19" value="" style="rounded=1;whiteSpace=wrap;html=1;arcSize=5;fillColor=#f5f5f5;strokeColor=#666666;fillStyle=hatch;fontColor=#333333;" vertex="1" parent="1">
          <mxGeometry x="750" y="220" width="240" height="550" as="geometry" />
        </mxCell>
        <mxCell id="X5Hz0N5Z4ckf9yrOUXwL-20" value="Silver Layer" style="rounded=1;whiteSpace=wrap;html=1;arcSize=20;fillColor=#f5f5f5;strokeColor=#666666;fontColor=#333333;" vertex="1" parent="1">
          <mxGeometry x="758" y="130" width="230" height="70" as="geometry" />
        </mxCell>
        <mxCell id="X5Hz0N5Z4ckf9yrOUXwL-21" value="crm_sales_details" style="rounded=1;whiteSpace=wrap;html=1;fillColor=#f5f5f5;strokeColor=#666666;fontColor=#333333;" vertex="1" parent="1">
          <mxGeometry x="780" y="240" width="190" height="60" as="geometry" />
        </mxCell>
        <mxCell id="X5Hz0N5Z4ckf9yrOUXwL-22" value="crm_cust_info" style="rounded=1;whiteSpace=wrap;html=1;fillColor=#f5f5f5;strokeColor=#666666;fontColor=#333333;" vertex="1" parent="1">
          <mxGeometry x="779" y="316" width="190" height="60" as="geometry" />
        </mxCell>
        <mxCell id="X5Hz0N5Z4ckf9yrOUXwL-23" value="crm_prd_info" style="rounded=1;whiteSpace=wrap;html=1;fillColor=#f5f5f5;strokeColor=#666666;fontColor=#333333;" vertex="1" parent="1">
          <mxGeometry x="779" y="395" width="190" height="60" as="geometry" />
        </mxCell>
        <mxCell id="X5Hz0N5Z4ckf9yrOUXwL-24" value="erp_cust_az12" style="rounded=1;whiteSpace=wrap;html=1;fillColor=#f5f5f5;strokeColor=#666666;fontColor=#333333;" vertex="1" parent="1">
          <mxGeometry x="778" y="526" width="190" height="60" as="geometry" />
        </mxCell>
        <mxCell id="X5Hz0N5Z4ckf9yrOUXwL-25" value="erp_loc_a101" style="rounded=1;whiteSpace=wrap;html=1;fillColor=#f5f5f5;strokeColor=#666666;fontColor=#333333;" vertex="1" parent="1">
          <mxGeometry x="777" y="607" width="190" height="60" as="geometry" />
        </mxCell>
        <mxCell id="X5Hz0N5Z4ckf9yrOUXwL-26" value="erp_px_cat_g1v2" style="rounded=1;whiteSpace=wrap;html=1;fillColor=#f5f5f5;strokeColor=#666666;fontColor=#333333;" vertex="1" parent="1">
          <mxGeometry x="778" y="680" width="190" height="60" as="geometry" />
        </mxCell>
        <mxCell id="X5Hz0N5Z4ckf9yrOUXwL-27" value="" style="rounded=1;whiteSpace=wrap;html=1;arcSize=5;fillColor=#fff2cc;strokeColor=#d6b656;fillStyle=hatch;" vertex="1" parent="1">
          <mxGeometry x="1070" y="220" width="240" height="550" as="geometry" />
        </mxCell>
        <mxCell id="X5Hz0N5Z4ckf9yrOUXwL-28" value="Gold Layer" style="rounded=1;whiteSpace=wrap;html=1;arcSize=20;fillColor=#fff2cc;strokeColor=#d6b656;" vertex="1" parent="1">
          <mxGeometry x="1075" y="130" width="230" height="70" as="geometry" />
        </mxCell>
        <mxCell id="X5Hz0N5Z4ckf9yrOUXwL-29" value="fact_Sales" style="rounded=1;whiteSpace=wrap;html=1;fillColor=#fff2cc;strokeColor=#d6b656;" vertex="1" parent="1">
          <mxGeometry x="1096" y="280" width="190" height="60" as="geometry" />
        </mxCell>
        <mxCell id="X5Hz0N5Z4ckf9yrOUXwL-33" value="dim_customers" style="rounded=1;whiteSpace=wrap;html=1;fillColor=#fff2cc;strokeColor=#d6b656;" vertex="1" parent="1">
          <mxGeometry x="1098" y="471" width="190" height="60" as="geometry" />
        </mxCell>
        <mxCell id="X5Hz0N5Z4ckf9yrOUXwL-34" value="dim_products" style="rounded=1;whiteSpace=wrap;html=1;fillColor=#fff2cc;strokeColor=#d6b656;" vertex="1" parent="1">
          <mxGeometry x="1098" y="656" width="190" height="60" as="geometry" />
        </mxCell>
        <mxCell id="X5Hz0N5Z4ckf9yrOUXwL-36" value="Data Flow Diagram" style="text;html=1;align=left;verticalAlign=middle;whiteSpace=wrap;rounded=0;fontStyle=1;fontSize=31;" vertex="1" parent="1">
          <mxGeometry x="80" y="20" width="380" height="50" as="geometry" />
        </mxCell>
        <mxCell id="X5Hz0N5Z4ckf9yrOUXwL-37" value="Sources" style="rounded=0;whiteSpace=wrap;html=1;strokeColor=none;fontSize=15;fontStyle=1;" vertex="1" parent="1">
          <mxGeometry x="119.5" y="180" width="120" height="60" as="geometry" />
        </mxCell>
        <mxCell id="pTyn5RK9fbOkeS7Fymeb-1" value="" style="endArrow=classic;html=1;rounded=0;exitX=1;exitY=0.5;exitDx=0;exitDy=0;entryX=0;entryY=0.5;entryDx=0;entryDy=0;jumpStyle=gap;" edge="1" parent="1" source="X5Hz0N5Z4ckf9yrOUXwL-21" target="X5Hz0N5Z4ckf9yrOUXwL-29">
          <mxGeometry width="50" height="50" relative="1" as="geometry">
            <mxPoint x="1010" y="330" as="sourcePoint" />
            <mxPoint x="1060" y="280" as="targetPoint" />
          </mxGeometry>
        </mxCell>
        <mxCell id="pTyn5RK9fbOkeS7Fymeb-2" value="" style="endArrow=classic;html=1;rounded=0;exitX=1;exitY=0.5;exitDx=0;exitDy=0;entryX=0;entryY=0.5;entryDx=0;entryDy=0;jumpStyle=gap;" edge="1" parent="1" source="X5Hz0N5Z4ckf9yrOUXwL-22" target="X5Hz0N5Z4ckf9yrOUXwL-33">
          <mxGeometry width="50" height="50" relative="1" as="geometry">
            <mxPoint x="1000" y="355" as="sourcePoint" />
            <mxPoint x="1126" y="395" as="targetPoint" />
          </mxGeometry>
        </mxCell>
        <mxCell id="pTyn5RK9fbOkeS7Fymeb-3" value="" style="endArrow=classic;html=1;rounded=0;exitX=1;exitY=0.5;exitDx=0;exitDy=0;entryX=0;entryY=0.5;entryDx=0;entryDy=0;jumpStyle=gap;" edge="1" parent="1" source="X5Hz0N5Z4ckf9yrOUXwL-24" target="X5Hz0N5Z4ckf9yrOUXwL-33">
          <mxGeometry width="50" height="50" relative="1" as="geometry">
            <mxPoint x="969" y="520" as="sourcePoint" />
            <mxPoint x="1095" y="560" as="targetPoint" />
          </mxGeometry>
        </mxCell>
        <mxCell id="pTyn5RK9fbOkeS7Fymeb-4" value="" style="endArrow=classic;html=1;rounded=0;exitX=1;exitY=0.5;exitDx=0;exitDy=0;entryX=0;entryY=0.5;entryDx=0;entryDy=0;jumpStyle=gap;" edge="1" parent="1" source="X5Hz0N5Z4ckf9yrOUXwL-25" target="X5Hz0N5Z4ckf9yrOUXwL-33">
          <mxGeometry width="50" height="50" relative="1" as="geometry">
            <mxPoint x="960" y="607" as="sourcePoint" />
            <mxPoint x="1086" y="647" as="targetPoint" />
          </mxGeometry>
        </mxCell>
        <mxCell id="pTyn5RK9fbOkeS7Fymeb-5" value="" style="endArrow=classic;html=1;rounded=0;exitX=1;exitY=0.5;exitDx=0;exitDy=0;entryX=0;entryY=0.5;entryDx=0;entryDy=0;jumpStyle=gap;" edge="1" parent="1" source="X5Hz0N5Z4ckf9yrOUXwL-26" target="X5Hz0N5Z4ckf9yrOUXwL-34">
          <mxGeometry width="50" height="50" relative="1" as="geometry">
            <mxPoint x="988" y="680" as="sourcePoint" />
            <mxPoint x="1114" y="720" as="targetPoint" />
          </mxGeometry>
        </mxCell>
        <mxCell id="pTyn5RK9fbOkeS7Fymeb-6" value="" style="endArrow=classic;html=1;rounded=0;exitX=1;exitY=0.5;exitDx=0;exitDy=0;entryX=0;entryY=0.5;entryDx=0;entryDy=0;jumpStyle=gap;" edge="1" parent="1" source="X5Hz0N5Z4ckf9yrOUXwL-23" target="X5Hz0N5Z4ckf9yrOUXwL-34">
          <mxGeometry width="50" height="50" relative="1" as="geometry">
            <mxPoint x="968" y="517.5" as="sourcePoint" />
            <mxPoint x="1098" y="462.5" as="targetPoint" />
          </mxGeometry>
        </mxCell>
      </root>
    </mxGraphModel>
  </diagram>
  <diagram id="eIquUDn0Cagmer_Q2TaQ" name="Integraton">
    <mxGraphModel dx="2972" dy="830" grid="1" gridSize="10" guides="1" tooltips="1" connect="1" arrows="1" fold="1" page="1" pageScale="1" pageWidth="1654" pageHeight="1169" math="0" shadow="0">
      <root>
        <mxCell id="0" />
        <mxCell id="1" parent="0" />
        <mxCell id="VXgEBee4D2svbJ5JLZGv-36" value="" style="rounded=1;whiteSpace=wrap;html=1;arcSize=4;fillColor=none;dashed=1;" vertex="1" parent="1">
          <mxGeometry x="-930" y="199" width="550" height="531" as="geometry" />
        </mxCell>
        <mxCell id="VXgEBee4D2svbJ5JLZGv-30" value="" style="rounded=1;whiteSpace=wrap;html=1;arcSize=3;fillColor=none;dashed=1;" vertex="1" parent="1">
          <mxGeometry x="-1640" y="201.5" width="660" height="528.5" as="geometry" />
        </mxCell>
        <mxCell id="VTrVGbCvu6TR7M67EuGw-1" value="Data Integration Model" style="text;html=1;align=center;verticalAlign=middle;whiteSpace=wrap;rounded=0;fontSize=26;fontStyle=1" vertex="1" parent="1">
          <mxGeometry x="-1654" y="40" width="420" height="50" as="geometry" />
        </mxCell>
        <mxCell id="VTrVGbCvu6TR7M67EuGw-2" value="crm_cust_info" style="swimlane;fontStyle=0;childLayout=stackLayout;horizontal=1;startSize=26;fillColor=#dae8fc;horizontalStack=0;resizeParent=1;resizeParentMax=0;resizeLast=0;collapsible=1;marginBottom=0;html=1;rounded=1;fontSize=27;strokeColor=#6c8ebf;" vertex="1" parent="1">
          <mxGeometry x="-1270" y="451" width="260" height="164" as="geometry">
            <mxRectangle x="150" y="140" width="60" height="30" as="alternateBounds" />
          </mxGeometry>
        </mxCell>
        <mxCell id="VTrVGbCvu6TR7M67EuGw-3" value="cst_id" style="text;strokeColor=none;fillColor=none;align=left;verticalAlign=top;spacingLeft=4;spacingRight=4;overflow=hidden;rotatable=0;points=[[0,0.5],[1,0.5]];portConstraint=eastwest;whiteSpace=wrap;html=1;fontSize=24;" vertex="1" parent="VTrVGbCvu6TR7M67EuGw-2">
          <mxGeometry y="26" width="260" height="54" as="geometry" />
        </mxCell>
        <mxCell id="VXgEBee4D2svbJ5JLZGv-17" value="cst_key" style="text;strokeColor=none;fillColor=none;align=left;verticalAlign=top;spacingLeft=4;spacingRight=4;overflow=hidden;rotatable=0;points=[[0,0.5],[1,0.5]];portConstraint=eastwest;whiteSpace=wrap;html=1;fontSize=24;" vertex="1" parent="VTrVGbCvu6TR7M67EuGw-2">
          <mxGeometry y="80" width="260" height="54" as="geometry" />
        </mxCell>
        <mxCell id="7qXuB2wE4TvNBceBvLCA-5" value="Customer" style="text;html=1;strokeColor=#82b366;fillColor=#d5e8d4;align=center;verticalAlign=middle;whiteSpace=wrap;overflow=hidden;fontStyle=1;fontSize=19;" vertex="1" parent="VTrVGbCvu6TR7M67EuGw-2">
          <mxGeometry y="134" width="260" height="30" as="geometry" />
        </mxCell>
        <mxCell id="VTrVGbCvu6TR7M67EuGw-6" value="Customer Information" style="text;html=1;align=center;verticalAlign=middle;whiteSpace=wrap;rounded=0;" vertex="1" parent="1">
          <mxGeometry x="-1210" y="421" width="130" height="30" as="geometry" />
        </mxCell>
        <mxCell id="VXgEBee4D2svbJ5JLZGv-1" value="crm_prd_info" style="swimlane;fontStyle=0;childLayout=stackLayout;horizontal=1;startSize=26;fillColor=#dae8fc;horizontalStack=0;resizeParent=1;resizeParentMax=0;resizeLast=0;collapsible=1;marginBottom=0;html=1;rounded=1;fontSize=27;strokeColor=#6c8ebf;" vertex="1" parent="1">
          <mxGeometry x="-1280" y="289" width="260" height="80" as="geometry">
            <mxRectangle x="150" y="140" width="60" height="30" as="alternateBounds" />
          </mxGeometry>
        </mxCell>
        <mxCell id="VXgEBee4D2svbJ5JLZGv-2" value="prd_key" style="text;strokeColor=none;fillColor=none;align=left;verticalAlign=top;spacingLeft=4;spacingRight=4;overflow=hidden;rotatable=0;points=[[0,0.5],[1,0.5]];portConstraint=eastwest;whiteSpace=wrap;html=1;fontSize=24;" vertex="1" parent="VXgEBee4D2svbJ5JLZGv-1">
          <mxGeometry y="26" width="260" height="54" as="geometry" />
        </mxCell>
        <mxCell id="VXgEBee4D2svbJ5JLZGv-3" value="Current&amp;nbsp; &amp;amp; Historical Product Information" style="text;html=1;align=center;verticalAlign=middle;whiteSpace=wrap;rounded=0;" vertex="1" parent="1">
          <mxGeometry x="-1283" y="259" width="260" height="30" as="geometry" />
        </mxCell>
        <mxCell id="VXgEBee4D2svbJ5JLZGv-4" value="crm_sales_details" style="swimlane;fontStyle=0;childLayout=stackLayout;horizontal=1;startSize=26;fillColor=#dae8fc;horizontalStack=0;resizeParent=1;resizeParentMax=0;resizeLast=0;collapsible=1;marginBottom=0;html=1;rounded=1;fontSize=27;strokeColor=#6c8ebf;" vertex="1" parent="1">
          <mxGeometry x="-1620" y="369" width="260" height="164" as="geometry">
            <mxRectangle x="150" y="140" width="60" height="30" as="alternateBounds" />
          </mxGeometry>
        </mxCell>
        <mxCell id="VXgEBee4D2svbJ5JLZGv-5" value="prd_key" style="text;strokeColor=none;fillColor=none;align=left;verticalAlign=top;spacingLeft=4;spacingRight=4;overflow=hidden;rotatable=0;points=[[0,0.5],[1,0.5]];portConstraint=eastwest;whiteSpace=wrap;html=1;fontSize=24;" vertex="1" parent="VXgEBee4D2svbJ5JLZGv-4">
          <mxGeometry y="26" width="260" height="54" as="geometry" />
        </mxCell>
        <mxCell id="VXgEBee4D2svbJ5JLZGv-8" value="cst_id" style="text;strokeColor=none;fillColor=none;align=left;verticalAlign=top;spacingLeft=4;spacingRight=4;overflow=hidden;rotatable=0;points=[[0,0.5],[1,0.5]];portConstraint=eastwest;whiteSpace=wrap;html=1;fontSize=24;" vertex="1" parent="VXgEBee4D2svbJ5JLZGv-4">
          <mxGeometry y="80" width="260" height="54" as="geometry" />
        </mxCell>
        <mxCell id="7qXuB2wE4TvNBceBvLCA-8" value="Sales" style="text;html=1;strokeColor=#9673a6;fillColor=#e1d5e7;align=center;verticalAlign=middle;whiteSpace=wrap;overflow=hidden;fontStyle=1;fontSize=19;" vertex="1" parent="VXgEBee4D2svbJ5JLZGv-4">
          <mxGeometry y="134" width="260" height="30" as="geometry" />
        </mxCell>
        <mxCell id="VXgEBee4D2svbJ5JLZGv-6" value="Transactional Table on Sales &amp;amp; Orders" style="text;html=1;align=center;verticalAlign=middle;whiteSpace=wrap;rounded=0;" vertex="1" parent="1">
          <mxGeometry x="-1620" y="339" width="260" height="30" as="geometry" />
        </mxCell>
        <mxCell id="VXgEBee4D2svbJ5JLZGv-11" style="edgeStyle=orthogonalEdgeStyle;rounded=0;orthogonalLoop=1;jettySize=auto;html=1;entryX=0;entryY=0.5;entryDx=0;entryDy=0;" edge="1" parent="1" source="VXgEBee4D2svbJ5JLZGv-5" target="VXgEBee4D2svbJ5JLZGv-2">
          <mxGeometry relative="1" as="geometry" />
        </mxCell>
        <mxCell id="VXgEBee4D2svbJ5JLZGv-13" style="edgeStyle=orthogonalEdgeStyle;rounded=0;orthogonalLoop=1;jettySize=auto;html=1;entryX=0;entryY=0.5;entryDx=0;entryDy=0;" edge="1" parent="1" source="VXgEBee4D2svbJ5JLZGv-8" target="VTrVGbCvu6TR7M67EuGw-3">
          <mxGeometry relative="1" as="geometry" />
        </mxCell>
        <mxCell id="VXgEBee4D2svbJ5JLZGv-14" value="erp_cst_az12" style="swimlane;fontStyle=0;childLayout=stackLayout;horizontal=1;startSize=28;fillColor=#ffe6cc;horizontalStack=0;resizeParent=1;resizeParentMax=0;resizeLast=0;collapsible=1;marginBottom=0;html=1;rounded=1;fontSize=27;strokeColor=#d79b00;labelPosition=center;verticalLabelPosition=middle;align=center;verticalAlign=middle;" vertex="1" parent="1">
          <mxGeometry x="-779" y="440" width="260" height="112" as="geometry">
            <mxRectangle x="150" y="140" width="60" height="30" as="alternateBounds" />
          </mxGeometry>
        </mxCell>
        <mxCell id="VXgEBee4D2svbJ5JLZGv-15" value="cid" style="text;strokeColor=none;fillColor=none;align=left;verticalAlign=top;spacingLeft=4;spacingRight=4;overflow=hidden;rotatable=0;points=[[0,0.5],[1,0.5]];portConstraint=eastwest;whiteSpace=wrap;html=1;fontSize=24;" vertex="1" parent="VXgEBee4D2svbJ5JLZGv-14">
          <mxGeometry y="28" width="260" height="54" as="geometry" />
        </mxCell>
        <mxCell id="7qXuB2wE4TvNBceBvLCA-6" value="Customer" style="text;html=1;strokeColor=#82b366;fillColor=#d5e8d4;align=center;verticalAlign=middle;whiteSpace=wrap;overflow=hidden;fontStyle=1;fontSize=19;" vertex="1" parent="VXgEBee4D2svbJ5JLZGv-14">
          <mxGeometry y="82" width="260" height="30" as="geometry" />
        </mxCell>
        <mxCell id="VXgEBee4D2svbJ5JLZGv-16" value="Extra Customer Information(Birthdate &amp;amp; Gender)" style="text;html=1;align=center;verticalAlign=middle;whiteSpace=wrap;rounded=0;" vertex="1" parent="1">
          <mxGeometry x="-778" y="410" width="260" height="30" as="geometry" />
        </mxCell>
        <mxCell id="VXgEBee4D2svbJ5JLZGv-19" value="erp_loc_a101" style="swimlane;fontStyle=0;childLayout=stackLayout;horizontal=1;startSize=28;fillColor=#ffe6cc;horizontalStack=0;resizeParent=1;resizeParentMax=0;resizeLast=0;collapsible=1;marginBottom=0;html=1;rounded=1;fontSize=27;strokeColor=#d79b00;labelPosition=center;verticalLabelPosition=middle;align=center;verticalAlign=middle;" vertex="1" parent="1">
          <mxGeometry x="-780" y="588.5" width="260" height="112" as="geometry">
            <mxRectangle x="150" y="140" width="60" height="30" as="alternateBounds" />
          </mxGeometry>
        </mxCell>
        <mxCell id="VXgEBee4D2svbJ5JLZGv-20" value="cid" style="text;strokeColor=none;fillColor=none;align=left;verticalAlign=top;spacingLeft=4;spacingRight=4;overflow=hidden;rotatable=0;points=[[0,0.5],[1,0.5]];portConstraint=eastwest;whiteSpace=wrap;html=1;fontSize=24;" vertex="1" parent="VXgEBee4D2svbJ5JLZGv-19">
          <mxGeometry y="28" width="260" height="54" as="geometry" />
        </mxCell>
        <mxCell id="7qXuB2wE4TvNBceBvLCA-7" value="Customer" style="text;html=1;strokeColor=#82b366;fillColor=#d5e8d4;align=center;verticalAlign=middle;whiteSpace=wrap;overflow=hidden;fontStyle=1;fontSize=19;" vertex="1" parent="VXgEBee4D2svbJ5JLZGv-19">
          <mxGeometry y="82" width="260" height="30" as="geometry" />
        </mxCell>
        <mxCell id="VXgEBee4D2svbJ5JLZGv-21" value="Customer Location Information (Country)" style="text;html=1;align=center;verticalAlign=middle;whiteSpace=wrap;rounded=0;" vertex="1" parent="1">
          <mxGeometry x="-778" y="558.5" width="260" height="30" as="geometry" />
        </mxCell>
        <mxCell id="VXgEBee4D2svbJ5JLZGv-23" style="edgeStyle=orthogonalEdgeStyle;rounded=0;orthogonalLoop=1;jettySize=auto;html=1;entryX=1;entryY=0.5;entryDx=0;entryDy=0;" edge="1" parent="1" source="VXgEBee4D2svbJ5JLZGv-15" target="VTrVGbCvu6TR7M67EuGw-3">
          <mxGeometry relative="1" as="geometry" />
        </mxCell>
        <mxCell id="VXgEBee4D2svbJ5JLZGv-24" style="edgeStyle=orthogonalEdgeStyle;rounded=0;orthogonalLoop=1;jettySize=auto;html=1;entryX=1;entryY=0.5;entryDx=0;entryDy=0;" edge="1" parent="1" source="VXgEBee4D2svbJ5JLZGv-20" target="VXgEBee4D2svbJ5JLZGv-17">
          <mxGeometry relative="1" as="geometry" />
        </mxCell>
        <mxCell id="VXgEBee4D2svbJ5JLZGv-25" value="erp_px_cat_g1v2" style="swimlane;fontStyle=0;childLayout=stackLayout;horizontal=1;startSize=28;fillColor=#ffe6cc;horizontalStack=0;resizeParent=1;resizeParentMax=0;resizeLast=0;collapsible=1;marginBottom=0;html=1;rounded=1;fontSize=27;strokeColor=#d79b00;labelPosition=center;verticalLabelPosition=middle;align=center;verticalAlign=middle;" vertex="1" parent="1">
          <mxGeometry x="-778" y="270" width="260" height="112" as="geometry">
            <mxRectangle x="150" y="140" width="60" height="30" as="alternateBounds" />
          </mxGeometry>
        </mxCell>
        <mxCell id="VXgEBee4D2svbJ5JLZGv-26" value="id" style="text;strokeColor=none;fillColor=none;align=left;verticalAlign=top;spacingLeft=4;spacingRight=4;overflow=hidden;rotatable=0;points=[[0,0.5],[1,0.5]];portConstraint=eastwest;whiteSpace=wrap;html=1;fontSize=24;" vertex="1" parent="VXgEBee4D2svbJ5JLZGv-25">
          <mxGeometry y="28" width="260" height="54" as="geometry" />
        </mxCell>
        <mxCell id="7qXuB2wE4TvNBceBvLCA-1" value="Product" style="text;html=1;strokeColor=#b85450;fillColor=#f8cecc;align=center;verticalAlign=middle;whiteSpace=wrap;overflow=hidden;fontStyle=1;fontSize=19;" vertex="1" parent="VXgEBee4D2svbJ5JLZGv-25">
          <mxGeometry y="82" width="260" height="30" as="geometry" />
        </mxCell>
        <mxCell id="VXgEBee4D2svbJ5JLZGv-27" value="Extra product nformation(Category &amp;amp; Subcat)" style="text;html=1;align=center;verticalAlign=middle;whiteSpace=wrap;rounded=0;" vertex="1" parent="1">
          <mxGeometry x="-773" y="240" width="260" height="30" as="geometry" />
        </mxCell>
        <mxCell id="VXgEBee4D2svbJ5JLZGv-28" style="edgeStyle=orthogonalEdgeStyle;rounded=0;orthogonalLoop=1;jettySize=auto;html=1;entryX=1;entryY=0.5;entryDx=0;entryDy=0;" edge="1" parent="1" source="VXgEBee4D2svbJ5JLZGv-26" target="VXgEBee4D2svbJ5JLZGv-2">
          <mxGeometry relative="1" as="geometry" />
        </mxCell>
        <mxCell id="VXgEBee4D2svbJ5JLZGv-29" value="(How tables are related)" style="text;html=1;align=center;verticalAlign=middle;whiteSpace=wrap;rounded=0;" vertex="1" parent="1">
          <mxGeometry x="-1320" y="50" width="180" height="30" as="geometry" />
        </mxCell>
        <mxCell id="VXgEBee4D2svbJ5JLZGv-31" value="CRM" style="rounded=1;whiteSpace=wrap;html=1;fillColor=#dae8fc;strokeColor=#6c8ebf;fontStyle=1;fontSize=15;" vertex="1" parent="1">
          <mxGeometry x="-1390" y="190" width="140" height="30" as="geometry" />
        </mxCell>
        <mxCell id="VXgEBee4D2svbJ5JLZGv-35" value="ERP" style="rounded=1;whiteSpace=wrap;html=1;fillColor=#ffe6cc;strokeColor=#d79b00;fontStyle=1;fontSize=15;" vertex="1" parent="1">
          <mxGeometry x="-680" y="180" width="120" height="33.5" as="geometry" />
        </mxCell>
        <mxCell id="7qXuB2wE4TvNBceBvLCA-2" value="Product" style="text;html=1;strokeColor=#b85450;fillColor=#f8cecc;align=center;verticalAlign=middle;whiteSpace=wrap;overflow=hidden;fontStyle=1;fontSize=19;" vertex="1" parent="1">
          <mxGeometry x="-1280" y="360" width="260" height="30" as="geometry" />
        </mxCell>
      </root>
    </mxGraphModel>
  </diagram>
  <diagram id="FQLSKBNyHHDAfZmIH8_8" name="Data Marts">
    <mxGraphModel dx="1514" dy="830" grid="1" gridSize="10" guides="1" tooltips="1" connect="1" arrows="1" fold="1" page="1" pageScale="1" pageWidth="1654" pageHeight="1169" math="0" shadow="0">
      <root>
        <mxCell id="0" />
        <mxCell id="1" parent="0" />
        <mxCell id="vAWEDM8FE3n2WiIi5mNW-11" value="gold.dim_customers" style="shape=table;startSize=40;container=1;collapsible=1;childLayout=tableLayout;fixedRows=1;rowLines=0;fontStyle=1;align=center;resizeLast=1;html=1;fillColor=#fff2cc;strokeColor=#d6b656;rounded=1;fontSize=16;arcSize=7;" vertex="1" parent="1">
          <mxGeometry x="140" y="240" width="240" height="394" as="geometry" />
        </mxCell>
        <mxCell id="vAWEDM8FE3n2WiIi5mNW-12" value="" style="shape=tableRow;horizontal=0;startSize=0;swimlaneHead=0;swimlaneBody=0;fillColor=none;collapsible=0;dropTarget=0;points=[[0,0.5],[1,0.5]];portConstraint=eastwest;top=0;left=0;right=0;bottom=1;fontSize=16;" vertex="1" parent="vAWEDM8FE3n2WiIi5mNW-11">
          <mxGeometry y="40" width="240" height="36" as="geometry" />
        </mxCell>
        <mxCell id="vAWEDM8FE3n2WiIi5mNW-13" value="PK" style="shape=partialRectangle;connectable=0;fillColor=none;top=0;left=0;bottom=0;right=0;fontStyle=1;overflow=hidden;whiteSpace=wrap;html=1;fontSize=16;" vertex="1" parent="vAWEDM8FE3n2WiIi5mNW-12">
          <mxGeometry width="40" height="36" as="geometry">
            <mxRectangle width="40" height="36" as="alternateBounds" />
          </mxGeometry>
        </mxCell>
        <mxCell id="vAWEDM8FE3n2WiIi5mNW-14" value="customer_key" style="shape=partialRectangle;connectable=0;fillColor=none;top=0;left=0;bottom=0;right=0;align=left;spacingLeft=6;fontStyle=5;overflow=hidden;whiteSpace=wrap;html=1;fontSize=16;" vertex="1" parent="vAWEDM8FE3n2WiIi5mNW-12">
          <mxGeometry x="40" width="200" height="36" as="geometry">
            <mxRectangle width="200" height="36" as="alternateBounds" />
          </mxGeometry>
        </mxCell>
        <mxCell id="vAWEDM8FE3n2WiIi5mNW-15" value="" style="shape=tableRow;horizontal=0;startSize=0;swimlaneHead=0;swimlaneBody=0;fillColor=none;collapsible=0;dropTarget=0;points=[[0,0.5],[1,0.5]];portConstraint=eastwest;top=0;left=0;right=0;bottom=0;fontSize=16;" vertex="1" parent="vAWEDM8FE3n2WiIi5mNW-11">
          <mxGeometry y="76" width="240" height="36" as="geometry" />
        </mxCell>
        <mxCell id="vAWEDM8FE3n2WiIi5mNW-16" value="" style="shape=partialRectangle;connectable=0;fillColor=none;top=0;left=0;bottom=0;right=0;editable=1;overflow=hidden;whiteSpace=wrap;html=1;fontSize=16;" vertex="1" parent="vAWEDM8FE3n2WiIi5mNW-15">
          <mxGeometry width="40" height="36" as="geometry">
            <mxRectangle width="40" height="36" as="alternateBounds" />
          </mxGeometry>
        </mxCell>
        <mxCell id="vAWEDM8FE3n2WiIi5mNW-17" value="customer_id" style="shape=partialRectangle;connectable=0;fillColor=none;top=0;left=0;bottom=0;right=0;align=left;spacingLeft=6;overflow=hidden;whiteSpace=wrap;html=1;fontSize=16;" vertex="1" parent="vAWEDM8FE3n2WiIi5mNW-15">
          <mxGeometry x="40" width="200" height="36" as="geometry">
            <mxRectangle width="200" height="36" as="alternateBounds" />
          </mxGeometry>
        </mxCell>
        <mxCell id="vAWEDM8FE3n2WiIi5mNW-18" value="" style="shape=tableRow;horizontal=0;startSize=0;swimlaneHead=0;swimlaneBody=0;fillColor=none;collapsible=0;dropTarget=0;points=[[0,0.5],[1,0.5]];portConstraint=eastwest;top=0;left=0;right=0;bottom=0;fontSize=16;" vertex="1" parent="vAWEDM8FE3n2WiIi5mNW-11">
          <mxGeometry y="112" width="240" height="36" as="geometry" />
        </mxCell>
        <mxCell id="vAWEDM8FE3n2WiIi5mNW-19" value="" style="shape=partialRectangle;connectable=0;fillColor=none;top=0;left=0;bottom=0;right=0;editable=1;overflow=hidden;whiteSpace=wrap;html=1;fontSize=16;" vertex="1" parent="vAWEDM8FE3n2WiIi5mNW-18">
          <mxGeometry width="40" height="36" as="geometry">
            <mxRectangle width="40" height="36" as="alternateBounds" />
          </mxGeometry>
        </mxCell>
        <mxCell id="vAWEDM8FE3n2WiIi5mNW-20" value="customer_number" style="shape=partialRectangle;connectable=0;fillColor=none;top=0;left=0;bottom=0;right=0;align=left;spacingLeft=6;overflow=hidden;whiteSpace=wrap;html=1;fontSize=16;" vertex="1" parent="vAWEDM8FE3n2WiIi5mNW-18">
          <mxGeometry x="40" width="200" height="36" as="geometry">
            <mxRectangle width="200" height="36" as="alternateBounds" />
          </mxGeometry>
        </mxCell>
        <mxCell id="vAWEDM8FE3n2WiIi5mNW-21" value="" style="shape=tableRow;horizontal=0;startSize=0;swimlaneHead=0;swimlaneBody=0;fillColor=none;collapsible=0;dropTarget=0;points=[[0,0.5],[1,0.5]];portConstraint=eastwest;top=0;left=0;right=0;bottom=0;rounded=1;fontSize=16;" vertex="1" parent="vAWEDM8FE3n2WiIi5mNW-11">
          <mxGeometry y="148" width="240" height="36" as="geometry" />
        </mxCell>
        <mxCell id="vAWEDM8FE3n2WiIi5mNW-22" value="" style="shape=partialRectangle;connectable=0;fillColor=none;top=0;left=0;bottom=0;right=0;editable=1;overflow=hidden;whiteSpace=wrap;html=1;fontSize=16;" vertex="1" parent="vAWEDM8FE3n2WiIi5mNW-21">
          <mxGeometry width="40" height="36" as="geometry">
            <mxRectangle width="40" height="36" as="alternateBounds" />
          </mxGeometry>
        </mxCell>
        <mxCell id="vAWEDM8FE3n2WiIi5mNW-23" value="first_name" style="shape=partialRectangle;connectable=0;fillColor=none;top=0;left=0;bottom=0;right=0;align=left;spacingLeft=6;overflow=hidden;whiteSpace=wrap;html=1;fontSize=16;" vertex="1" parent="vAWEDM8FE3n2WiIi5mNW-21">
          <mxGeometry x="40" width="200" height="36" as="geometry">
            <mxRectangle width="200" height="36" as="alternateBounds" />
          </mxGeometry>
        </mxCell>
        <mxCell id="vAWEDM8FE3n2WiIi5mNW-37" value="" style="shape=tableRow;horizontal=0;startSize=0;swimlaneHead=0;swimlaneBody=0;fillColor=none;collapsible=0;dropTarget=0;points=[[0,0.5],[1,0.5]];portConstraint=eastwest;top=0;left=0;right=0;bottom=0;rounded=1;fontSize=16;" vertex="1" parent="vAWEDM8FE3n2WiIi5mNW-11">
          <mxGeometry y="184" width="240" height="36" as="geometry" />
        </mxCell>
        <mxCell id="vAWEDM8FE3n2WiIi5mNW-38" value="" style="shape=partialRectangle;connectable=0;fillColor=none;top=0;left=0;bottom=0;right=0;editable=1;overflow=hidden;whiteSpace=wrap;html=1;fontSize=16;" vertex="1" parent="vAWEDM8FE3n2WiIi5mNW-37">
          <mxGeometry width="40" height="36" as="geometry">
            <mxRectangle width="40" height="36" as="alternateBounds" />
          </mxGeometry>
        </mxCell>
        <mxCell id="vAWEDM8FE3n2WiIi5mNW-39" value="last_name" style="shape=partialRectangle;connectable=0;fillColor=none;top=0;left=0;bottom=0;right=0;align=left;spacingLeft=6;overflow=hidden;whiteSpace=wrap;html=1;fontSize=16;" vertex="1" parent="vAWEDM8FE3n2WiIi5mNW-37">
          <mxGeometry x="40" width="200" height="36" as="geometry">
            <mxRectangle width="200" height="36" as="alternateBounds" />
          </mxGeometry>
        </mxCell>
        <mxCell id="vAWEDM8FE3n2WiIi5mNW-40" value="" style="shape=tableRow;horizontal=0;startSize=0;swimlaneHead=0;swimlaneBody=0;fillColor=none;collapsible=0;dropTarget=0;points=[[0,0.5],[1,0.5]];portConstraint=eastwest;top=0;left=0;right=0;bottom=0;rounded=1;fontSize=16;" vertex="1" parent="vAWEDM8FE3n2WiIi5mNW-11">
          <mxGeometry y="220" width="240" height="30" as="geometry" />
        </mxCell>
        <mxCell id="vAWEDM8FE3n2WiIi5mNW-41" value="" style="shape=partialRectangle;connectable=0;fillColor=none;top=0;left=0;bottom=0;right=0;editable=1;overflow=hidden;whiteSpace=wrap;html=1;fontSize=16;" vertex="1" parent="vAWEDM8FE3n2WiIi5mNW-40">
          <mxGeometry width="40" height="30" as="geometry">
            <mxRectangle width="40" height="30" as="alternateBounds" />
          </mxGeometry>
        </mxCell>
        <mxCell id="vAWEDM8FE3n2WiIi5mNW-42" value="country" style="shape=partialRectangle;connectable=0;fillColor=none;top=0;left=0;bottom=0;right=0;align=left;spacingLeft=6;overflow=hidden;whiteSpace=wrap;html=1;fontSize=16;" vertex="1" parent="vAWEDM8FE3n2WiIi5mNW-40">
          <mxGeometry x="40" width="200" height="30" as="geometry">
            <mxRectangle width="200" height="30" as="alternateBounds" />
          </mxGeometry>
        </mxCell>
        <mxCell id="vAWEDM8FE3n2WiIi5mNW-43" value="" style="shape=tableRow;horizontal=0;startSize=0;swimlaneHead=0;swimlaneBody=0;fillColor=none;collapsible=0;dropTarget=0;points=[[0,0.5],[1,0.5]];portConstraint=eastwest;top=0;left=0;right=0;bottom=0;rounded=1;fontSize=16;" vertex="1" parent="vAWEDM8FE3n2WiIi5mNW-11">
          <mxGeometry y="250" width="240" height="36" as="geometry" />
        </mxCell>
        <mxCell id="vAWEDM8FE3n2WiIi5mNW-44" value="" style="shape=partialRectangle;connectable=0;fillColor=none;top=0;left=0;bottom=0;right=0;editable=1;overflow=hidden;whiteSpace=wrap;html=1;fontSize=16;" vertex="1" parent="vAWEDM8FE3n2WiIi5mNW-43">
          <mxGeometry width="40" height="36" as="geometry">
            <mxRectangle width="40" height="36" as="alternateBounds" />
          </mxGeometry>
        </mxCell>
        <mxCell id="vAWEDM8FE3n2WiIi5mNW-45" value="marital_status" style="shape=partialRectangle;connectable=0;fillColor=none;top=0;left=0;bottom=0;right=0;align=left;spacingLeft=6;overflow=hidden;whiteSpace=wrap;html=1;fontSize=16;" vertex="1" parent="vAWEDM8FE3n2WiIi5mNW-43">
          <mxGeometry x="40" width="200" height="36" as="geometry">
            <mxRectangle width="200" height="36" as="alternateBounds" />
          </mxGeometry>
        </mxCell>
        <mxCell id="vAWEDM8FE3n2WiIi5mNW-46" value="" style="shape=tableRow;horizontal=0;startSize=0;swimlaneHead=0;swimlaneBody=0;fillColor=none;collapsible=0;dropTarget=0;points=[[0,0.5],[1,0.5]];portConstraint=eastwest;top=0;left=0;right=0;bottom=0;rounded=1;fontSize=16;" vertex="1" parent="vAWEDM8FE3n2WiIi5mNW-11">
          <mxGeometry y="286" width="240" height="36" as="geometry" />
        </mxCell>
        <mxCell id="vAWEDM8FE3n2WiIi5mNW-47" value="" style="shape=partialRectangle;connectable=0;fillColor=none;top=0;left=0;bottom=0;right=0;editable=1;overflow=hidden;whiteSpace=wrap;html=1;fontSize=16;" vertex="1" parent="vAWEDM8FE3n2WiIi5mNW-46">
          <mxGeometry width="40" height="36" as="geometry">
            <mxRectangle width="40" height="36" as="alternateBounds" />
          </mxGeometry>
        </mxCell>
        <mxCell id="vAWEDM8FE3n2WiIi5mNW-48" value="gender" style="shape=partialRectangle;connectable=0;fillColor=none;top=0;left=0;bottom=0;right=0;align=left;spacingLeft=6;overflow=hidden;whiteSpace=wrap;html=1;fontSize=16;" vertex="1" parent="vAWEDM8FE3n2WiIi5mNW-46">
          <mxGeometry x="40" width="200" height="36" as="geometry">
            <mxRectangle width="200" height="36" as="alternateBounds" />
          </mxGeometry>
        </mxCell>
        <mxCell id="vAWEDM8FE3n2WiIi5mNW-49" value="" style="shape=tableRow;horizontal=0;startSize=0;swimlaneHead=0;swimlaneBody=0;fillColor=none;collapsible=0;dropTarget=0;points=[[0,0.5],[1,0.5]];portConstraint=eastwest;top=0;left=0;right=0;bottom=0;rounded=1;fontSize=16;" vertex="1" parent="vAWEDM8FE3n2WiIi5mNW-11">
          <mxGeometry y="322" width="240" height="36" as="geometry" />
        </mxCell>
        <mxCell id="vAWEDM8FE3n2WiIi5mNW-50" value="" style="shape=partialRectangle;connectable=0;fillColor=none;top=0;left=0;bottom=0;right=0;editable=1;overflow=hidden;whiteSpace=wrap;html=1;fontSize=16;" vertex="1" parent="vAWEDM8FE3n2WiIi5mNW-49">
          <mxGeometry width="40" height="36" as="geometry">
            <mxRectangle width="40" height="36" as="alternateBounds" />
          </mxGeometry>
        </mxCell>
        <mxCell id="vAWEDM8FE3n2WiIi5mNW-51" value="birth_date" style="shape=partialRectangle;connectable=0;fillColor=none;top=0;left=0;bottom=0;right=0;align=left;spacingLeft=6;overflow=hidden;whiteSpace=wrap;html=1;fontSize=16;" vertex="1" parent="vAWEDM8FE3n2WiIi5mNW-49">
          <mxGeometry x="40" width="200" height="36" as="geometry">
            <mxRectangle width="200" height="36" as="alternateBounds" />
          </mxGeometry>
        </mxCell>
        <mxCell id="vAWEDM8FE3n2WiIi5mNW-52" value="" style="shape=tableRow;horizontal=0;startSize=0;swimlaneHead=0;swimlaneBody=0;fillColor=none;collapsible=0;dropTarget=0;points=[[0,0.5],[1,0.5]];portConstraint=eastwest;top=0;left=0;right=0;bottom=0;rounded=1;fontSize=16;" vertex="1" parent="vAWEDM8FE3n2WiIi5mNW-11">
          <mxGeometry y="358" width="240" height="36" as="geometry" />
        </mxCell>
        <mxCell id="vAWEDM8FE3n2WiIi5mNW-53" value="" style="shape=partialRectangle;connectable=0;fillColor=none;top=0;left=0;bottom=0;right=0;editable=1;overflow=hidden;whiteSpace=wrap;html=1;fontSize=16;" vertex="1" parent="vAWEDM8FE3n2WiIi5mNW-52">
          <mxGeometry width="40" height="36" as="geometry">
            <mxRectangle width="40" height="36" as="alternateBounds" />
          </mxGeometry>
        </mxCell>
        <mxCell id="vAWEDM8FE3n2WiIi5mNW-54" value="create_date" style="shape=partialRectangle;connectable=0;fillColor=none;top=0;left=0;bottom=0;right=0;align=left;spacingLeft=6;overflow=hidden;whiteSpace=wrap;html=1;fontSize=16;" vertex="1" parent="vAWEDM8FE3n2WiIi5mNW-52">
          <mxGeometry x="40" width="200" height="36" as="geometry">
            <mxRectangle width="200" height="36" as="alternateBounds" />
          </mxGeometry>
        </mxCell>
        <mxCell id="vAWEDM8FE3n2WiIi5mNW-55" value="gold.dim_products" style="shape=table;startSize=40;container=1;collapsible=1;childLayout=tableLayout;fixedRows=1;rowLines=0;fontStyle=1;align=center;resizeLast=1;html=1;fillColor=#fff2cc;strokeColor=#d6b656;rounded=1;fontSize=16;arcSize=7;" vertex="1" parent="1">
          <mxGeometry x="1000" y="240" width="240" height="430" as="geometry" />
        </mxCell>
        <mxCell id="vAWEDM8FE3n2WiIi5mNW-56" value="" style="shape=tableRow;horizontal=0;startSize=0;swimlaneHead=0;swimlaneBody=0;fillColor=none;collapsible=0;dropTarget=0;points=[[0,0.5],[1,0.5]];portConstraint=eastwest;top=0;left=0;right=0;bottom=1;fontSize=16;" vertex="1" parent="vAWEDM8FE3n2WiIi5mNW-55">
          <mxGeometry y="40" width="240" height="36" as="geometry" />
        </mxCell>
        <mxCell id="vAWEDM8FE3n2WiIi5mNW-57" value="PK" style="shape=partialRectangle;connectable=0;fillColor=none;top=0;left=0;bottom=0;right=0;fontStyle=1;overflow=hidden;whiteSpace=wrap;html=1;fontSize=16;" vertex="1" parent="vAWEDM8FE3n2WiIi5mNW-56">
          <mxGeometry width="40" height="36" as="geometry">
            <mxRectangle width="40" height="36" as="alternateBounds" />
          </mxGeometry>
        </mxCell>
        <mxCell id="vAWEDM8FE3n2WiIi5mNW-58" value="product_key" style="shape=partialRectangle;connectable=0;fillColor=none;top=0;left=0;bottom=0;right=0;align=left;spacingLeft=6;fontStyle=5;overflow=hidden;whiteSpace=wrap;html=1;fontSize=16;" vertex="1" parent="vAWEDM8FE3n2WiIi5mNW-56">
          <mxGeometry x="40" width="200" height="36" as="geometry">
            <mxRectangle width="200" height="36" as="alternateBounds" />
          </mxGeometry>
        </mxCell>
        <mxCell id="vAWEDM8FE3n2WiIi5mNW-59" value="" style="shape=tableRow;horizontal=0;startSize=0;swimlaneHead=0;swimlaneBody=0;fillColor=none;collapsible=0;dropTarget=0;points=[[0,0.5],[1,0.5]];portConstraint=eastwest;top=0;left=0;right=0;bottom=0;fontSize=16;" vertex="1" parent="vAWEDM8FE3n2WiIi5mNW-55">
          <mxGeometry y="76" width="240" height="36" as="geometry" />
        </mxCell>
        <mxCell id="vAWEDM8FE3n2WiIi5mNW-60" value="" style="shape=partialRectangle;connectable=0;fillColor=none;top=0;left=0;bottom=0;right=0;editable=1;overflow=hidden;whiteSpace=wrap;html=1;fontSize=16;" vertex="1" parent="vAWEDM8FE3n2WiIi5mNW-59">
          <mxGeometry width="40" height="36" as="geometry">
            <mxRectangle width="40" height="36" as="alternateBounds" />
          </mxGeometry>
        </mxCell>
        <mxCell id="vAWEDM8FE3n2WiIi5mNW-61" value="product_id" style="shape=partialRectangle;connectable=0;fillColor=none;top=0;left=0;bottom=0;right=0;align=left;spacingLeft=6;overflow=hidden;whiteSpace=wrap;html=1;fontSize=16;" vertex="1" parent="vAWEDM8FE3n2WiIi5mNW-59">
          <mxGeometry x="40" width="200" height="36" as="geometry">
            <mxRectangle width="200" height="36" as="alternateBounds" />
          </mxGeometry>
        </mxCell>
        <mxCell id="vAWEDM8FE3n2WiIi5mNW-62" value="" style="shape=tableRow;horizontal=0;startSize=0;swimlaneHead=0;swimlaneBody=0;fillColor=none;collapsible=0;dropTarget=0;points=[[0,0.5],[1,0.5]];portConstraint=eastwest;top=0;left=0;right=0;bottom=0;fontSize=16;" vertex="1" parent="vAWEDM8FE3n2WiIi5mNW-55">
          <mxGeometry y="112" width="240" height="36" as="geometry" />
        </mxCell>
        <mxCell id="vAWEDM8FE3n2WiIi5mNW-63" value="" style="shape=partialRectangle;connectable=0;fillColor=none;top=0;left=0;bottom=0;right=0;editable=1;overflow=hidden;whiteSpace=wrap;html=1;fontSize=16;" vertex="1" parent="vAWEDM8FE3n2WiIi5mNW-62">
          <mxGeometry width="40" height="36" as="geometry">
            <mxRectangle width="40" height="36" as="alternateBounds" />
          </mxGeometry>
        </mxCell>
        <mxCell id="vAWEDM8FE3n2WiIi5mNW-64" value="product_number" style="shape=partialRectangle;connectable=0;fillColor=none;top=0;left=0;bottom=0;right=0;align=left;spacingLeft=6;overflow=hidden;whiteSpace=wrap;html=1;fontSize=16;" vertex="1" parent="vAWEDM8FE3n2WiIi5mNW-62">
          <mxGeometry x="40" width="200" height="36" as="geometry">
            <mxRectangle width="200" height="36" as="alternateBounds" />
          </mxGeometry>
        </mxCell>
        <mxCell id="vAWEDM8FE3n2WiIi5mNW-65" value="" style="shape=tableRow;horizontal=0;startSize=0;swimlaneHead=0;swimlaneBody=0;fillColor=none;collapsible=0;dropTarget=0;points=[[0,0.5],[1,0.5]];portConstraint=eastwest;top=0;left=0;right=0;bottom=0;rounded=1;fontSize=16;" vertex="1" parent="vAWEDM8FE3n2WiIi5mNW-55">
          <mxGeometry y="148" width="240" height="36" as="geometry" />
        </mxCell>
        <mxCell id="vAWEDM8FE3n2WiIi5mNW-66" value="" style="shape=partialRectangle;connectable=0;fillColor=none;top=0;left=0;bottom=0;right=0;editable=1;overflow=hidden;whiteSpace=wrap;html=1;fontSize=16;" vertex="1" parent="vAWEDM8FE3n2WiIi5mNW-65">
          <mxGeometry width="40" height="36" as="geometry">
            <mxRectangle width="40" height="36" as="alternateBounds" />
          </mxGeometry>
        </mxCell>
        <mxCell id="vAWEDM8FE3n2WiIi5mNW-67" value="product_name" style="shape=partialRectangle;connectable=0;fillColor=none;top=0;left=0;bottom=0;right=0;align=left;spacingLeft=6;overflow=hidden;whiteSpace=wrap;html=1;fontSize=16;" vertex="1" parent="vAWEDM8FE3n2WiIi5mNW-65">
          <mxGeometry x="40" width="200" height="36" as="geometry">
            <mxRectangle width="200" height="36" as="alternateBounds" />
          </mxGeometry>
        </mxCell>
        <mxCell id="vAWEDM8FE3n2WiIi5mNW-68" value="" style="shape=tableRow;horizontal=0;startSize=0;swimlaneHead=0;swimlaneBody=0;fillColor=none;collapsible=0;dropTarget=0;points=[[0,0.5],[1,0.5]];portConstraint=eastwest;top=0;left=0;right=0;bottom=0;rounded=1;fontSize=16;" vertex="1" parent="vAWEDM8FE3n2WiIi5mNW-55">
          <mxGeometry y="184" width="240" height="36" as="geometry" />
        </mxCell>
        <mxCell id="vAWEDM8FE3n2WiIi5mNW-69" value="" style="shape=partialRectangle;connectable=0;fillColor=none;top=0;left=0;bottom=0;right=0;editable=1;overflow=hidden;whiteSpace=wrap;html=1;fontSize=16;" vertex="1" parent="vAWEDM8FE3n2WiIi5mNW-68">
          <mxGeometry width="40" height="36" as="geometry">
            <mxRectangle width="40" height="36" as="alternateBounds" />
          </mxGeometry>
        </mxCell>
        <mxCell id="vAWEDM8FE3n2WiIi5mNW-70" value="category_id" style="shape=partialRectangle;connectable=0;fillColor=none;top=0;left=0;bottom=0;right=0;align=left;spacingLeft=6;overflow=hidden;whiteSpace=wrap;html=1;fontSize=16;" vertex="1" parent="vAWEDM8FE3n2WiIi5mNW-68">
          <mxGeometry x="40" width="200" height="36" as="geometry">
            <mxRectangle width="200" height="36" as="alternateBounds" />
          </mxGeometry>
        </mxCell>
        <mxCell id="vAWEDM8FE3n2WiIi5mNW-71" value="" style="shape=tableRow;horizontal=0;startSize=0;swimlaneHead=0;swimlaneBody=0;fillColor=none;collapsible=0;dropTarget=0;points=[[0,0.5],[1,0.5]];portConstraint=eastwest;top=0;left=0;right=0;bottom=0;rounded=1;fontSize=16;" vertex="1" parent="vAWEDM8FE3n2WiIi5mNW-55">
          <mxGeometry y="220" width="240" height="30" as="geometry" />
        </mxCell>
        <mxCell id="vAWEDM8FE3n2WiIi5mNW-72" value="" style="shape=partialRectangle;connectable=0;fillColor=none;top=0;left=0;bottom=0;right=0;editable=1;overflow=hidden;whiteSpace=wrap;html=1;fontSize=16;" vertex="1" parent="vAWEDM8FE3n2WiIi5mNW-71">
          <mxGeometry width="40" height="30" as="geometry">
            <mxRectangle width="40" height="30" as="alternateBounds" />
          </mxGeometry>
        </mxCell>
        <mxCell id="vAWEDM8FE3n2WiIi5mNW-73" value="category" style="shape=partialRectangle;connectable=0;fillColor=none;top=0;left=0;bottom=0;right=0;align=left;spacingLeft=6;overflow=hidden;whiteSpace=wrap;html=1;fontSize=16;" vertex="1" parent="vAWEDM8FE3n2WiIi5mNW-71">
          <mxGeometry x="40" width="200" height="30" as="geometry">
            <mxRectangle width="200" height="30" as="alternateBounds" />
          </mxGeometry>
        </mxCell>
        <mxCell id="vAWEDM8FE3n2WiIi5mNW-74" value="" style="shape=tableRow;horizontal=0;startSize=0;swimlaneHead=0;swimlaneBody=0;fillColor=none;collapsible=0;dropTarget=0;points=[[0,0.5],[1,0.5]];portConstraint=eastwest;top=0;left=0;right=0;bottom=0;rounded=1;fontSize=16;" vertex="1" parent="vAWEDM8FE3n2WiIi5mNW-55">
          <mxGeometry y="250" width="240" height="36" as="geometry" />
        </mxCell>
        <mxCell id="vAWEDM8FE3n2WiIi5mNW-75" value="" style="shape=partialRectangle;connectable=0;fillColor=none;top=0;left=0;bottom=0;right=0;editable=1;overflow=hidden;whiteSpace=wrap;html=1;fontSize=16;" vertex="1" parent="vAWEDM8FE3n2WiIi5mNW-74">
          <mxGeometry width="40" height="36" as="geometry">
            <mxRectangle width="40" height="36" as="alternateBounds" />
          </mxGeometry>
        </mxCell>
        <mxCell id="vAWEDM8FE3n2WiIi5mNW-76" value="subcategory" style="shape=partialRectangle;connectable=0;fillColor=none;top=0;left=0;bottom=0;right=0;align=left;spacingLeft=6;overflow=hidden;whiteSpace=wrap;html=1;fontSize=16;" vertex="1" parent="vAWEDM8FE3n2WiIi5mNW-74">
          <mxGeometry x="40" width="200" height="36" as="geometry">
            <mxRectangle width="200" height="36" as="alternateBounds" />
          </mxGeometry>
        </mxCell>
        <mxCell id="vAWEDM8FE3n2WiIi5mNW-77" value="" style="shape=tableRow;horizontal=0;startSize=0;swimlaneHead=0;swimlaneBody=0;fillColor=none;collapsible=0;dropTarget=0;points=[[0,0.5],[1,0.5]];portConstraint=eastwest;top=0;left=0;right=0;bottom=0;rounded=1;fontSize=16;" vertex="1" parent="vAWEDM8FE3n2WiIi5mNW-55">
          <mxGeometry y="286" width="240" height="36" as="geometry" />
        </mxCell>
        <mxCell id="vAWEDM8FE3n2WiIi5mNW-78" value="" style="shape=partialRectangle;connectable=0;fillColor=none;top=0;left=0;bottom=0;right=0;editable=1;overflow=hidden;whiteSpace=wrap;html=1;fontSize=16;" vertex="1" parent="vAWEDM8FE3n2WiIi5mNW-77">
          <mxGeometry width="40" height="36" as="geometry">
            <mxRectangle width="40" height="36" as="alternateBounds" />
          </mxGeometry>
        </mxCell>
        <mxCell id="vAWEDM8FE3n2WiIi5mNW-79" value="maintenace" style="shape=partialRectangle;connectable=0;fillColor=none;top=0;left=0;bottom=0;right=0;align=left;spacingLeft=6;overflow=hidden;whiteSpace=wrap;html=1;fontSize=16;" vertex="1" parent="vAWEDM8FE3n2WiIi5mNW-77">
          <mxGeometry x="40" width="200" height="36" as="geometry">
            <mxRectangle width="200" height="36" as="alternateBounds" />
          </mxGeometry>
        </mxCell>
        <mxCell id="vAWEDM8FE3n2WiIi5mNW-80" value="" style="shape=tableRow;horizontal=0;startSize=0;swimlaneHead=0;swimlaneBody=0;fillColor=none;collapsible=0;dropTarget=0;points=[[0,0.5],[1,0.5]];portConstraint=eastwest;top=0;left=0;right=0;bottom=0;rounded=1;fontSize=16;" vertex="1" parent="vAWEDM8FE3n2WiIi5mNW-55">
          <mxGeometry y="322" width="240" height="36" as="geometry" />
        </mxCell>
        <mxCell id="vAWEDM8FE3n2WiIi5mNW-81" value="" style="shape=partialRectangle;connectable=0;fillColor=none;top=0;left=0;bottom=0;right=0;editable=1;overflow=hidden;whiteSpace=wrap;html=1;fontSize=16;" vertex="1" parent="vAWEDM8FE3n2WiIi5mNW-80">
          <mxGeometry width="40" height="36" as="geometry">
            <mxRectangle width="40" height="36" as="alternateBounds" />
          </mxGeometry>
        </mxCell>
        <mxCell id="vAWEDM8FE3n2WiIi5mNW-82" value="cost" style="shape=partialRectangle;connectable=0;fillColor=none;top=0;left=0;bottom=0;right=0;align=left;spacingLeft=6;overflow=hidden;whiteSpace=wrap;html=1;fontSize=16;" vertex="1" parent="vAWEDM8FE3n2WiIi5mNW-80">
          <mxGeometry x="40" width="200" height="36" as="geometry">
            <mxRectangle width="200" height="36" as="alternateBounds" />
          </mxGeometry>
        </mxCell>
        <mxCell id="vAWEDM8FE3n2WiIi5mNW-83" value="" style="shape=tableRow;horizontal=0;startSize=0;swimlaneHead=0;swimlaneBody=0;fillColor=none;collapsible=0;dropTarget=0;points=[[0,0.5],[1,0.5]];portConstraint=eastwest;top=0;left=0;right=0;bottom=0;rounded=1;fontSize=16;" vertex="1" parent="vAWEDM8FE3n2WiIi5mNW-55">
          <mxGeometry y="358" width="240" height="36" as="geometry" />
        </mxCell>
        <mxCell id="vAWEDM8FE3n2WiIi5mNW-84" value="" style="shape=partialRectangle;connectable=0;fillColor=none;top=0;left=0;bottom=0;right=0;editable=1;overflow=hidden;whiteSpace=wrap;html=1;fontSize=16;" vertex="1" parent="vAWEDM8FE3n2WiIi5mNW-83">
          <mxGeometry width="40" height="36" as="geometry">
            <mxRectangle width="40" height="36" as="alternateBounds" />
          </mxGeometry>
        </mxCell>
        <mxCell id="vAWEDM8FE3n2WiIi5mNW-85" value="product_line" style="shape=partialRectangle;connectable=0;fillColor=none;top=0;left=0;bottom=0;right=0;align=left;spacingLeft=6;overflow=hidden;whiteSpace=wrap;html=1;fontSize=16;" vertex="1" parent="vAWEDM8FE3n2WiIi5mNW-83">
          <mxGeometry x="40" width="200" height="36" as="geometry">
            <mxRectangle width="200" height="36" as="alternateBounds" />
          </mxGeometry>
        </mxCell>
        <mxCell id="vAWEDM8FE3n2WiIi5mNW-86" value="" style="shape=tableRow;horizontal=0;startSize=0;swimlaneHead=0;swimlaneBody=0;fillColor=none;collapsible=0;dropTarget=0;points=[[0,0.5],[1,0.5]];portConstraint=eastwest;top=0;left=0;right=0;bottom=0;rounded=1;fontSize=16;" vertex="1" parent="vAWEDM8FE3n2WiIi5mNW-55">
          <mxGeometry y="394" width="240" height="36" as="geometry" />
        </mxCell>
        <mxCell id="vAWEDM8FE3n2WiIi5mNW-87" value="" style="shape=partialRectangle;connectable=0;fillColor=none;top=0;left=0;bottom=0;right=0;editable=1;overflow=hidden;whiteSpace=wrap;html=1;fontSize=16;" vertex="1" parent="vAWEDM8FE3n2WiIi5mNW-86">
          <mxGeometry width="40" height="36" as="geometry">
            <mxRectangle width="40" height="36" as="alternateBounds" />
          </mxGeometry>
        </mxCell>
        <mxCell id="vAWEDM8FE3n2WiIi5mNW-88" value="start_line" style="shape=partialRectangle;connectable=0;fillColor=none;top=0;left=0;bottom=0;right=0;align=left;spacingLeft=6;overflow=hidden;whiteSpace=wrap;html=1;fontSize=16;" vertex="1" parent="vAWEDM8FE3n2WiIi5mNW-86">
          <mxGeometry x="40" width="200" height="36" as="geometry">
            <mxRectangle width="200" height="36" as="alternateBounds" />
          </mxGeometry>
        </mxCell>
        <mxCell id="vAWEDM8FE3n2WiIi5mNW-89" value="gold.fact_sales" style="shape=table;startSize=40;container=1;collapsible=1;childLayout=tableLayout;fixedRows=1;rowLines=0;fontStyle=1;align=center;resizeLast=1;html=1;fillColor=#dae8fc;strokeColor=#6c8ebf;rounded=1;fontSize=16;arcSize=8;" vertex="1" parent="1">
          <mxGeometry x="560" y="240" width="240" height="358" as="geometry" />
        </mxCell>
        <mxCell id="vAWEDM8FE3n2WiIi5mNW-93" value="" style="shape=tableRow;horizontal=0;startSize=0;swimlaneHead=0;swimlaneBody=0;fillColor=none;collapsible=0;dropTarget=0;points=[[0,0.5],[1,0.5]];portConstraint=eastwest;top=0;left=0;right=0;bottom=0;fontSize=16;" vertex="1" parent="vAWEDM8FE3n2WiIi5mNW-89">
          <mxGeometry y="40" width="240" height="36" as="geometry" />
        </mxCell>
        <mxCell id="vAWEDM8FE3n2WiIi5mNW-94" value="" style="shape=partialRectangle;connectable=0;fillColor=none;top=0;left=0;bottom=0;right=0;editable=1;overflow=hidden;whiteSpace=wrap;html=1;fontSize=16;" vertex="1" parent="vAWEDM8FE3n2WiIi5mNW-93">
          <mxGeometry width="40" height="36" as="geometry">
            <mxRectangle width="40" height="36" as="alternateBounds" />
          </mxGeometry>
        </mxCell>
        <mxCell id="vAWEDM8FE3n2WiIi5mNW-95" value="order_number" style="shape=partialRectangle;connectable=0;fillColor=none;top=0;left=0;bottom=0;right=0;align=left;spacingLeft=6;overflow=hidden;whiteSpace=wrap;html=1;fontSize=16;" vertex="1" parent="vAWEDM8FE3n2WiIi5mNW-93">
          <mxGeometry x="40" width="200" height="36" as="geometry">
            <mxRectangle width="200" height="36" as="alternateBounds" />
          </mxGeometry>
        </mxCell>
        <mxCell id="vAWEDM8FE3n2WiIi5mNW-96" value="" style="shape=tableRow;horizontal=0;startSize=0;swimlaneHead=0;swimlaneBody=0;fillColor=none;collapsible=0;dropTarget=0;points=[[0,0.5],[1,0.5]];portConstraint=eastwest;top=0;left=0;right=0;bottom=0;fontSize=16;" vertex="1" parent="vAWEDM8FE3n2WiIi5mNW-89">
          <mxGeometry y="76" width="240" height="36" as="geometry" />
        </mxCell>
        <mxCell id="vAWEDM8FE3n2WiIi5mNW-97" value="FK1" style="shape=partialRectangle;connectable=0;fillColor=none;top=0;left=0;bottom=0;right=0;editable=1;overflow=hidden;whiteSpace=wrap;html=1;fontSize=16;" vertex="1" parent="vAWEDM8FE3n2WiIi5mNW-96">
          <mxGeometry width="40" height="36" as="geometry">
            <mxRectangle width="40" height="36" as="alternateBounds" />
          </mxGeometry>
        </mxCell>
        <mxCell id="vAWEDM8FE3n2WiIi5mNW-98" value="product_key" style="shape=partialRectangle;connectable=0;fillColor=none;top=0;left=0;bottom=0;right=0;align=left;spacingLeft=6;overflow=hidden;whiteSpace=wrap;html=1;fontSize=16;" vertex="1" parent="vAWEDM8FE3n2WiIi5mNW-96">
          <mxGeometry x="40" width="200" height="36" as="geometry">
            <mxRectangle width="200" height="36" as="alternateBounds" />
          </mxGeometry>
        </mxCell>
        <mxCell id="vAWEDM8FE3n2WiIi5mNW-99" value="" style="shape=tableRow;horizontal=0;startSize=0;swimlaneHead=0;swimlaneBody=0;fillColor=none;collapsible=0;dropTarget=0;points=[[0,0.5],[1,0.5]];portConstraint=eastwest;top=0;left=0;right=0;bottom=0;rounded=1;fontSize=16;" vertex="1" parent="vAWEDM8FE3n2WiIi5mNW-89">
          <mxGeometry y="112" width="240" height="36" as="geometry" />
        </mxCell>
        <mxCell id="vAWEDM8FE3n2WiIi5mNW-100" value="FK2" style="shape=partialRectangle;connectable=0;fillColor=none;top=0;left=0;bottom=0;right=0;editable=1;overflow=hidden;whiteSpace=wrap;html=1;fontSize=16;" vertex="1" parent="vAWEDM8FE3n2WiIi5mNW-99">
          <mxGeometry width="40" height="36" as="geometry">
            <mxRectangle width="40" height="36" as="alternateBounds" />
          </mxGeometry>
        </mxCell>
        <mxCell id="vAWEDM8FE3n2WiIi5mNW-101" value="customer_key" style="shape=partialRectangle;connectable=0;fillColor=none;top=0;left=0;bottom=0;right=0;align=left;spacingLeft=6;overflow=hidden;whiteSpace=wrap;html=1;fontSize=16;" vertex="1" parent="vAWEDM8FE3n2WiIi5mNW-99">
          <mxGeometry x="40" width="200" height="36" as="geometry">
            <mxRectangle width="200" height="36" as="alternateBounds" />
          </mxGeometry>
        </mxCell>
        <mxCell id="vAWEDM8FE3n2WiIi5mNW-102" value="" style="shape=tableRow;horizontal=0;startSize=0;swimlaneHead=0;swimlaneBody=0;fillColor=none;collapsible=0;dropTarget=0;points=[[0,0.5],[1,0.5]];portConstraint=eastwest;top=0;left=0;right=0;bottom=0;rounded=1;fontSize=16;" vertex="1" parent="vAWEDM8FE3n2WiIi5mNW-89">
          <mxGeometry y="148" width="240" height="36" as="geometry" />
        </mxCell>
        <mxCell id="vAWEDM8FE3n2WiIi5mNW-103" value="" style="shape=partialRectangle;connectable=0;fillColor=none;top=0;left=0;bottom=0;right=0;editable=1;overflow=hidden;whiteSpace=wrap;html=1;fontSize=16;" vertex="1" parent="vAWEDM8FE3n2WiIi5mNW-102">
          <mxGeometry width="40" height="36" as="geometry">
            <mxRectangle width="40" height="36" as="alternateBounds" />
          </mxGeometry>
        </mxCell>
        <mxCell id="vAWEDM8FE3n2WiIi5mNW-104" value="order_date" style="shape=partialRectangle;connectable=0;fillColor=none;top=0;left=0;bottom=0;right=0;align=left;spacingLeft=6;overflow=hidden;whiteSpace=wrap;html=1;fontSize=16;" vertex="1" parent="vAWEDM8FE3n2WiIi5mNW-102">
          <mxGeometry x="40" width="200" height="36" as="geometry">
            <mxRectangle width="200" height="36" as="alternateBounds" />
          </mxGeometry>
        </mxCell>
        <mxCell id="vAWEDM8FE3n2WiIi5mNW-105" value="" style="shape=tableRow;horizontal=0;startSize=0;swimlaneHead=0;swimlaneBody=0;fillColor=none;collapsible=0;dropTarget=0;points=[[0,0.5],[1,0.5]];portConstraint=eastwest;top=0;left=0;right=0;bottom=0;rounded=1;fontSize=16;" vertex="1" parent="vAWEDM8FE3n2WiIi5mNW-89">
          <mxGeometry y="184" width="240" height="30" as="geometry" />
        </mxCell>
        <mxCell id="vAWEDM8FE3n2WiIi5mNW-106" value="" style="shape=partialRectangle;connectable=0;fillColor=none;top=0;left=0;bottom=0;right=0;editable=1;overflow=hidden;whiteSpace=wrap;html=1;fontSize=16;" vertex="1" parent="vAWEDM8FE3n2WiIi5mNW-105">
          <mxGeometry width="40" height="30" as="geometry">
            <mxRectangle width="40" height="30" as="alternateBounds" />
          </mxGeometry>
        </mxCell>
        <mxCell id="vAWEDM8FE3n2WiIi5mNW-107" value="shipping_date" style="shape=partialRectangle;connectable=0;fillColor=none;top=0;left=0;bottom=0;right=0;align=left;spacingLeft=6;overflow=hidden;whiteSpace=wrap;html=1;fontSize=16;" vertex="1" parent="vAWEDM8FE3n2WiIi5mNW-105">
          <mxGeometry x="40" width="200" height="30" as="geometry">
            <mxRectangle width="200" height="30" as="alternateBounds" />
          </mxGeometry>
        </mxCell>
        <mxCell id="vAWEDM8FE3n2WiIi5mNW-108" value="" style="shape=tableRow;horizontal=0;startSize=0;swimlaneHead=0;swimlaneBody=0;fillColor=none;collapsible=0;dropTarget=0;points=[[0,0.5],[1,0.5]];portConstraint=eastwest;top=0;left=0;right=0;bottom=0;rounded=1;fontSize=16;" vertex="1" parent="vAWEDM8FE3n2WiIi5mNW-89">
          <mxGeometry y="214" width="240" height="36" as="geometry" />
        </mxCell>
        <mxCell id="vAWEDM8FE3n2WiIi5mNW-109" value="" style="shape=partialRectangle;connectable=0;fillColor=none;top=0;left=0;bottom=0;right=0;editable=1;overflow=hidden;whiteSpace=wrap;html=1;fontSize=16;" vertex="1" parent="vAWEDM8FE3n2WiIi5mNW-108">
          <mxGeometry width="40" height="36" as="geometry">
            <mxRectangle width="40" height="36" as="alternateBounds" />
          </mxGeometry>
        </mxCell>
        <mxCell id="vAWEDM8FE3n2WiIi5mNW-110" value="due_date" style="shape=partialRectangle;connectable=0;fillColor=none;top=0;left=0;bottom=0;right=0;align=left;spacingLeft=6;overflow=hidden;whiteSpace=wrap;html=1;fontSize=16;" vertex="1" parent="vAWEDM8FE3n2WiIi5mNW-108">
          <mxGeometry x="40" width="200" height="36" as="geometry">
            <mxRectangle width="200" height="36" as="alternateBounds" />
          </mxGeometry>
        </mxCell>
        <mxCell id="vAWEDM8FE3n2WiIi5mNW-111" value="" style="shape=tableRow;horizontal=0;startSize=0;swimlaneHead=0;swimlaneBody=0;fillColor=none;collapsible=0;dropTarget=0;points=[[0,0.5],[1,0.5]];portConstraint=eastwest;top=0;left=0;right=0;bottom=0;rounded=1;fontSize=16;" vertex="1" parent="vAWEDM8FE3n2WiIi5mNW-89">
          <mxGeometry y="250" width="240" height="36" as="geometry" />
        </mxCell>
        <mxCell id="vAWEDM8FE3n2WiIi5mNW-112" value="" style="shape=partialRectangle;connectable=0;fillColor=none;top=0;left=0;bottom=0;right=0;editable=1;overflow=hidden;whiteSpace=wrap;html=1;fontSize=16;" vertex="1" parent="vAWEDM8FE3n2WiIi5mNW-111">
          <mxGeometry width="40" height="36" as="geometry">
            <mxRectangle width="40" height="36" as="alternateBounds" />
          </mxGeometry>
        </mxCell>
        <mxCell id="vAWEDM8FE3n2WiIi5mNW-113" value="sales_amount" style="shape=partialRectangle;connectable=0;fillColor=none;top=0;left=0;bottom=0;right=0;align=left;spacingLeft=6;overflow=hidden;whiteSpace=wrap;html=1;fontSize=16;" vertex="1" parent="vAWEDM8FE3n2WiIi5mNW-111">
          <mxGeometry x="40" width="200" height="36" as="geometry">
            <mxRectangle width="200" height="36" as="alternateBounds" />
          </mxGeometry>
        </mxCell>
        <mxCell id="vAWEDM8FE3n2WiIi5mNW-114" value="" style="shape=tableRow;horizontal=0;startSize=0;swimlaneHead=0;swimlaneBody=0;fillColor=none;collapsible=0;dropTarget=0;points=[[0,0.5],[1,0.5]];portConstraint=eastwest;top=0;left=0;right=0;bottom=0;rounded=1;fontSize=16;" vertex="1" parent="vAWEDM8FE3n2WiIi5mNW-89">
          <mxGeometry y="286" width="240" height="36" as="geometry" />
        </mxCell>
        <mxCell id="vAWEDM8FE3n2WiIi5mNW-115" value="" style="shape=partialRectangle;connectable=0;fillColor=none;top=0;left=0;bottom=0;right=0;editable=1;overflow=hidden;whiteSpace=wrap;html=1;fontSize=16;" vertex="1" parent="vAWEDM8FE3n2WiIi5mNW-114">
          <mxGeometry width="40" height="36" as="geometry">
            <mxRectangle width="40" height="36" as="alternateBounds" />
          </mxGeometry>
        </mxCell>
        <mxCell id="vAWEDM8FE3n2WiIi5mNW-116" value="quantity" style="shape=partialRectangle;connectable=0;fillColor=none;top=0;left=0;bottom=0;right=0;align=left;spacingLeft=6;overflow=hidden;whiteSpace=wrap;html=1;fontSize=16;" vertex="1" parent="vAWEDM8FE3n2WiIi5mNW-114">
          <mxGeometry x="40" width="200" height="36" as="geometry">
            <mxRectangle width="200" height="36" as="alternateBounds" />
          </mxGeometry>
        </mxCell>
        <mxCell id="vAWEDM8FE3n2WiIi5mNW-117" value="" style="shape=tableRow;horizontal=0;startSize=0;swimlaneHead=0;swimlaneBody=0;fillColor=none;collapsible=0;dropTarget=0;points=[[0,0.5],[1,0.5]];portConstraint=eastwest;top=0;left=0;right=0;bottom=0;rounded=1;fontSize=16;" vertex="1" parent="vAWEDM8FE3n2WiIi5mNW-89">
          <mxGeometry y="322" width="240" height="36" as="geometry" />
        </mxCell>
        <mxCell id="vAWEDM8FE3n2WiIi5mNW-118" value="" style="shape=partialRectangle;connectable=0;fillColor=none;top=0;left=0;bottom=0;right=0;editable=1;overflow=hidden;whiteSpace=wrap;html=1;fontSize=16;" vertex="1" parent="vAWEDM8FE3n2WiIi5mNW-117">
          <mxGeometry width="40" height="36" as="geometry">
            <mxRectangle width="40" height="36" as="alternateBounds" />
          </mxGeometry>
        </mxCell>
        <mxCell id="vAWEDM8FE3n2WiIi5mNW-119" value="price" style="shape=partialRectangle;connectable=0;fillColor=none;top=0;left=0;bottom=0;right=0;align=left;spacingLeft=6;overflow=hidden;whiteSpace=wrap;html=1;fontSize=16;" vertex="1" parent="vAWEDM8FE3n2WiIi5mNW-117">
          <mxGeometry x="40" width="200" height="36" as="geometry">
            <mxRectangle width="200" height="36" as="alternateBounds" />
          </mxGeometry>
        </mxCell>
        <mxCell id="vAWEDM8FE3n2WiIi5mNW-124" value="" style="edgeStyle=entityRelationEdgeStyle;fontSize=12;html=1;endArrow=ERzeroToMany;startArrow=ERmandOne;rounded=0;exitX=1;exitY=0.5;exitDx=0;exitDy=0;entryX=0;entryY=0.5;entryDx=0;entryDy=0;" edge="1" parent="1" source="vAWEDM8FE3n2WiIi5mNW-12" target="vAWEDM8FE3n2WiIi5mNW-99">
          <mxGeometry width="100" height="100" relative="1" as="geometry">
            <mxPoint x="430" y="770" as="sourcePoint" />
            <mxPoint x="530" y="670" as="targetPoint" />
          </mxGeometry>
        </mxCell>
        <mxCell id="vAWEDM8FE3n2WiIi5mNW-125" value="" style="edgeStyle=entityRelationEdgeStyle;fontSize=12;html=1;endArrow=ERzeroToMany;startArrow=ERmandOne;rounded=0;exitX=0;exitY=0.5;exitDx=0;exitDy=0;entryX=1;entryY=0.5;entryDx=0;entryDy=0;" edge="1" parent="1" source="vAWEDM8FE3n2WiIi5mNW-56" target="vAWEDM8FE3n2WiIi5mNW-96">
          <mxGeometry width="100" height="100" relative="1" as="geometry">
            <mxPoint x="700" y="370" as="sourcePoint" />
            <mxPoint x="880" y="442" as="targetPoint" />
            <Array as="points">
              <mxPoint x="860" y="334" />
              <mxPoint x="900" y="300" />
              <mxPoint x="900" y="320" />
            </Array>
          </mxGeometry>
        </mxCell>
      </root>
    </mxGraphModel>
  </diagram>
</mxfile>
